<?xml version="1.0" encoding="utf-8"?>
<!-- Generator: Adobe Illustrator 25.4.1, SVG Export Plug-In . SVG Version: 6.00 Build 0)  -->
<svg version="1.1" id="Layer_1" xmlns="http://www.w3.org/2000/svg" xmlns:xlink="http://www.w3.org/1999/xlink" x="0px" y="0px"
	 viewBox="0 0 24 24" style="enable-background:new 0 0 24 24;" xml:space="preserve">
<style type="text/css">
	.st0{fill:#D7DFE2;}
	.st1{fill:#005178;}
	.st2{fill:#FFFFFF;}
</style>
<circle class="st0" cx="12" cy="12" r="11.6"/>
<g>
	<path class="st1" d="M5.6,19.1c-0.1,0-0.1,0-0.2,0C5.3,19,5.1,18.9,5,18.7S4.9,18.4,5,18.2L5.8,15c0-0.1,0.1-0.2,0.2-0.3l6.7-6.7
		l-1-1l1-1l1,1l2.2-2.2c0.3-0.3,0.6-0.4,1-0.4c0.4,0,0.8,0.2,1,0.4l1.3,1.3c0.6,0.6,0.6,1.5,0,2.1L17,10.3l1,1l-1,1l-1-1l-6.7,6.8
		c-0.1,0.1-0.2,0.1-0.3,0.2L5.8,19C5.7,19.1,5.7,19.1,5.6,19.1z"/>
	<path class="st2" d="M16.9,4.5c0.4,0,0.7,0.1,1,0.4l1.3,1.3c0.5,0.5,0.5,1.4,0,1.9L17,10.2l-0.2,0.2l0.2,0.2l0.9,0.9l-0.8,0.8
		l-0.9-0.9l-0.2-0.2l-0.2,0.2L9.2,18c-0.1,0.1-0.2,0.1-0.3,0.1l-3.2,0.8c0,0-0.1,0-0.1,0c0,0-0.1,0-0.2,0c-0.3-0.1-0.5-0.4-0.4-0.7
		L5.9,15c0-0.1,0.1-0.2,0.2-0.3l6.7-6.7l0.2-0.2l-0.2-0.2l-0.9-0.9l0.8-0.8L13.5,7l0.2,0.2L13.8,7l2.1-2.1
		C16.2,4.6,16.5,4.5,16.9,4.5 M16.9,4.3c-0.4,0-0.8,0.2-1.1,0.5l-2.1,2.1l-1-1l-1.1,1.1l1,1l-6.7,6.7c-0.1,0.1-0.2,0.2-0.2,0.4
		l-0.8,3.2c-0.1,0.4,0.1,0.9,0.6,1c0,0,0,0,0,0c0.1,0,0.1,0,0.2,0s0.1,0,0.2,0L9,18.4c0.1,0,0.3-0.1,0.4-0.2l6.7-6.7l1,1l1.1-1.1
		l-1-1l2.1-2.1c0.6-0.6,0.6-1.6,0-2.3L18,4.7C17.7,4.4,17.3,4.3,16.9,4.3L16.9,4.3z"/>
</g>
<polygon class="st2" points="7.1,15.6 13.7,9.1 14.9,10.3 8.4,16.8 6.7,17.3 "/>
</svg>
