<svg id="Layer_1" data-name="Layer 1" xmlns="http://www.w3.org/2000/svg" viewBox="0 0 43.13 43.13"><defs><style>.cls-1{fill:#d7dfe2;}.cls-2,.cls-3{fill:#005178;stroke-linejoin:round;}.cls-2{stroke:#fff;stroke-width:4px;}.cls-3{stroke:#005178;stroke-width:0.5px;}</style></defs><circle class="cls-1" cx="21.39" cy="21.54" r="20.54"/><path class="cls-2" d="M30,9.09,16.1,25.28s3.3.16,3,2.64L34.77,13.56S35.94,7.57,30,9.09Z"/><path class="cls-2" d="M7.56,32.82a7.47,7.47,0,0,0,4.57-3.27c2-2.88,2.72-2.45,3.78-2.12s2.51,1.59.72,3.11S13.79,33.32,7.56,32.82Z"/><path class="cls-3" d="M30,9.09,16.1,25.28s3.3.16,3,2.64L34.77,13.56S35.94,7.57,30,9.09Z"/><path class="cls-3" d="M7.56,32.82a7.47,7.47,0,0,0,4.57-3.27c2-2.88,2.72-2.45,3.78-2.12s2.51,1.59.72,3.11S13.79,33.32,7.56,32.82Z"/></svg>