<svg id="Layer_1" data-name="Layer 1" xmlns="http://www.w3.org/2000/svg" viewBox="0 0 43.13 43.13"><defs><style>.cls-1{fill:#d7dfe2;}.cls-2{fill:#fff;}.cls-3{fill:#005178;}</style></defs><circle class="cls-1" cx="21.48" cy="21.54" r="20.54"/><path class="cls-2" d="M18.1,6.8l.33.09a2.51,2.51,0,0,1,2,2.28c.06.56.05,1.13.07,1.69v.38a3.08,3.08,0,0,1,2.27.4A2.68,2.68,0,0,1,24,13.57a7.25,7.25,0,0,1,1.32,0,2.65,2.65,0,0,1,2,1.59.24.24,0,0,0,.29.16,2.37,2.37,0,0,1,2.56,1.48,3.68,3.68,0,0,1,.35,1.53c0,1.86,0,3.71.07,5.57A18.85,18.85,0,0,1,30.05,29c-.59,2.41-1.11,4.85-1.63,7.28-.07.32-.2.41-.52.41-3.42,0-6.84.05-10.25.08a.34.34,0,0,1-.38-.23c-.21-.51-.48-1-.68-1.52a9.31,9.31,0,0,0-1.67-2.7C14,31.27,13.11,30.14,12.21,29a.94.94,0,0,1-.18-.36q-1.15-4-2.3-8a3.19,3.19,0,0,1,0-1.68,2.66,2.66,0,0,1,2.61-2.09,2.9,2.9,0,0,1,2.44.82l.09.07.09,0v-.34c0-2.6,0-5.2-.05-7.8a2.74,2.74,0,0,1,2.28-2.8l.13-.06ZM27,35.15a2.65,2.65,0,0,0,.08-.29q.69-3.06,1.37-6.14A13.71,13.71,0,0,0,29,25.53c0-2.44,0-4.89-.1-7.33a2.41,2.41,0,0,0-.31-.95.68.68,0,0,0-.72-.36c-.7,0-1.07.45-1.08,1.23s0,1.83,0,2.75c0,.34-.12.5-.42.5s-.42-.15-.42-.49V16.33a1.25,1.25,0,0,0-2.49,0c0,1.18,0,2.35,0,3.52a.43.43,0,0,1-.34.45c-.44.13-.72-.08-.72-.55V14a1.11,1.11,0,0,0-.58-1A1.27,1.27,0,0,0,19.93,14c.06,2,0,4,0,6,0,.14,0,.37-.11.39a2,2,0,0,1-.73,0c-.24,0-.18-.27-.18-.44v-10a4,4,0,0,0-.07-.78,1,1,0,0,0-.79-.87,1.23,1.23,0,0,0-1.6,1.29l.06,13.57c0,.36-.11.53-.39.58s-.44,0-.58-.4c-.52-1.35-1-2.71-1.55-4.07a1.82,1.82,0,0,0-.24-.43,1.45,1.45,0,0,0-1.59-.45,1.14,1.14,0,0,0-1,1.43,1.5,1.5,0,0,0,.06.29q1.1,3.84,2.21,7.7a1,1,0,0,0,.18.36c.58.72,1.16,1.45,1.75,2.16a13.65,13.65,0,0,1,2.77,4.27c0,.09.09.17.12.27s.17.24.37.23l8-.07Z"/><path class="cls-3" d="M27,35.15h-.37l-8,.07c-.2,0-.31,0-.37-.23s-.09-.18-.12-.27a13.65,13.65,0,0,0-2.77-4.27c-.59-.71-1.17-1.44-1.75-2.16a1,1,0,0,1-.18-.36q-1.11-3.86-2.21-7.7a1.5,1.5,0,0,1-.06-.29,1.14,1.14,0,0,1,1-1.43,1.45,1.45,0,0,1,1.59.45,1.82,1.82,0,0,1,.24.43c.52,1.36,1,2.72,1.55,4.07.14.36.28.45.58.4s.4-.22.39-.58L16.46,9.71a1.23,1.23,0,0,1,1.6-1.29,1,1,0,0,1,.79.87,4,4,0,0,1,.07.78V20c0,.17-.06.41.18.44a2,2,0,0,0,.73,0c.07,0,.11-.25.11-.39,0-2,0-4,0-6a1.27,1.27,0,0,1,1.91-1.11,1.11,1.11,0,0,1,.58,1v5.77c0,.47.28.68.72.55a.43.43,0,0,0,.34-.45c0-1.17,0-2.34,0-3.52a1.25,1.25,0,0,1,2.49,0v4.55c0,.34.14.5.42.49s.42-.16.42-.5c0-.92,0-1.83,0-2.75s.38-1.19,1.08-1.23a.68.68,0,0,1,.72.36,2.41,2.41,0,0,1,.31.95c.06,2.44.06,4.89.1,7.33a13.71,13.71,0,0,1-.52,3.19q-.68,3.08-1.37,6.14A2.65,2.65,0,0,1,27,35.15Zm-9.39-19.8h0a1.41,1.41,0,0,0,.46,0c.11,0,.19-.17.28-.26-.09-.08-.18-.22-.28-.23a4.22,4.22,0,0,0-.87,0c-.11,0-.2.16-.29.24.09.09.18.22.29.26A1.39,1.39,0,0,0,17.64,15.35Zm0,.7h0a2,2,0,0,0,.49,0,.34.34,0,0,0,.22-.25.33.33,0,0,0-.22-.24,5,5,0,0,0-.95,0c-.09,0-.25.16-.24.23a.41.41,0,0,0,.24.26A1.41,1.41,0,0,0,17.66,16.05Z"/><rect class="cls-3" x="16.85" y="14.45" width="1.73" height="2.04" rx="0.86"/></svg>