<svg id="Layer_1" data-name="Layer 1" xmlns="http://www.w3.org/2000/svg" viewBox="0 0 43.13 43.13"><defs><style>.cls-1{fill:#d7dfe2;}.cls-2{fill:#005178;}.cls-3{fill:#fff;}</style></defs><circle class="cls-1" cx="21.67" cy="21.54" r="20.54"/><path class="cls-2" d="M15.77,33.37H9.22c-.7,0-1-.34-.79-1,.67-2.52,1.34-5,2-7.55a1.31,1.31,0,0,1,.3-.54q5.55-5.88,11.12-11.75a1,1,0,0,1,.65-.22c2,0,4,0,6,0h7.18c.51,0,.79.19.84.6a1,1,0,0,1,0,.38q-1,3.8-2,7.57a1.45,1.45,0,0,1-.32.6l-6,6.4c-1.56,1.66-3.14,3.31-4.69,5a1.58,1.58,0,0,1-1.29.57C20,33.35,17.88,33.37,15.77,33.37Zm-3-9.25.15,0H24.25a.45.45,0,0,0,.32-.16Q29.28,19,34,14.06l.37-.4H22.9a.7.7,0,0,0-.43.21q-4.09,4.31-8.17,8.62Zm11,1.39H12a.34.34,0,0,0-.39.29q-.64,2.46-1.31,4.91c-.11.43-.22.85-.34,1.29H21.72c.23,0,.29-.09.34-.28.38-1.44.77-2.88,1.16-4.32C23.38,26.8,23.55,26.17,23.73,25.51Z"/><path class="cls-3" d="M12.76,24.12l1.54-1.64q4.08-4.31,8.17-8.62a.7.7,0,0,1,.43-.21H34.34l-.37.4q-4.69,5-9.4,9.92a.45.45,0,0,1-.32.16H12.91Z"/><path class="cls-3" d="M23.73,25.51c-.18.66-.35,1.29-.51,1.91-.39,1.44-.78,2.88-1.16,4.32,0,.19-.11.28-.34.28H9.93c.12-.44.23-.86.34-1.29q.66-2.45,1.31-4.91a.34.34,0,0,1,.39-.29H23.73Z"/></svg>