<svg xmlns="http://www.w3.org/2000/svg" viewBox="0 0 682 146.35"><defs><style>.cls-1{isolation:isolate;}.cls-2{fill:#0099cd;}.cls-3,.cls-4{fill:#010101;}.cls-3{mix-blend-mode:darken;}</style></defs><title>Artboard 1</title><g class="cls-1"><g id="Layer_1" data-name="Layer 1"><path class="cls-2" d="M227.19,30.36l59.35,42.81L308.91,3.51a73.17,73.17,0,0,0-81.43,112.87l59.06-43.21Z"/><path class="cls-3" d="M359.7,72.92l-73.16.25,22.84,69.52L286.54,73.17l-59.06,43.21A73.16,73.16,0,0,0,359.7,72.92Z"/><path class="cls-2" d="M388.34,30.36l59.35,42.81L470.06,3.51a73.17,73.17,0,0,0-81.43,112.87l59.06-43.21Z"/><path class="cls-3" d="M520.85,72.92l-73.16.25,22.84,69.52L447.69,73.17l-59.06,43.21A73.16,73.16,0,0,0,520.85,72.92Z"/><path class="cls-2" d="M549.49,30.36l59.35,42.81L631.21,3.51a73.17,73.17,0,0,0-81.43,112.87l59.06-43.21Z"/><path class="cls-3" d="M682,72.92l-73.16.25,22.84,69.52L608.84,73.17l-59.06,43.21A73.16,73.16,0,0,0,682,72.92Z"/><polygon class="cls-2" points="73.18 0 0 146.35 73.18 146.35 109.77 73.18 73.18 0"/><polygon class="cls-2" points="146.35 0 109.77 73.18 146.35 146.35 219.53 146.35 146.35 0"/><polygon class="cls-4" points="73.18 146.35 146.35 146.35 109.77 73.18 73.18 146.35"/><polygon class="cls-3" points="73.18 146.35 146.35 146.35 109.77 73.18 73.18 146.35"/></g></g></svg>