<svg xmlns="http://www.w3.org/2000/svg" width="365.67" height="71.565" viewBox="0 0 365.67 71.565">
  <g id="Logo" transform="translate(-41.7 -85.774)">
    <g id="Group_998" data-name="Group 998" transform="translate(41.7 85.774)">
      <path id="Path_3601" data-name="Path 3601" d="M322.2,155.489a.172.172,0,0,1-.175.175l-.263-.175a4.539,4.539,0,0,0-1.841-.351,3.007,3.007,0,0,0-3.156,3.244,3.04,3.04,0,0,0,3.069,3.244,6.3,6.3,0,0,0,1.929-.351l.263-.088.175.088v.088l-.088.526c0,.088-.088.088-.175.175a6.755,6.755,0,0,1-2.192.263,3.74,3.74,0,0,1-1.4-7.277,5.753,5.753,0,0,1,2.016-.351,7.49,7.49,0,0,1,1.929.263l.088.175Z" transform="translate(-75.485 -94.27)" fill="#606489"/>
      <path id="Path_3602" data-name="Path 3602" d="M332.064,162.065H331.1l3.419-7.365h.7l2.893,7.365h-.964l-.877-2.367h-3.244Zm4.033-2.981-1.315-3.419-1.49,3.419Z" transform="translate(-77.371 -94.27)" fill="#606489"/>
      <path id="Path_3603" data-name="Path 3603" d="M348.777,154.7v6.663h3.682v.7H347.9V154.7Z" transform="translate(-79.442 -94.27)" fill="#606489"/>
      <rect id="Rectangle_1670" data-name="Rectangle 1670" width="0.877" height="7.365" transform="translate(280.469 60.43)" fill="#606489"/>
      <path id="Path_3604" data-name="Path 3604" d="M373.177,162.065H372.3V154.7h4.734v.614h-3.858v2.543h3.332v.7h-3.332Z" transform="translate(-82.45 -94.27)" fill="#606489"/>
      <path id="Path_3605" data-name="Path 3605" d="M393.691,158.258a3.893,3.893,0,0,1-4.033,3.945,3.834,3.834,0,0,1-3.858-3.858,3.951,3.951,0,0,1,4.121-3.945A3.706,3.706,0,0,1,393.691,158.258Zm-5.7-2.63a3.37,3.37,0,0,0,1.841,5.874,2.936,2.936,0,0,0,2.806-3.069c0-1.4-.877-3.332-2.718-3.332A3.389,3.389,0,0,0,387.992,155.627Z" transform="translate(-84.114 -94.233)" fill="#606489"/>
      <path id="Path_3606" data-name="Path 3606" d="M405.077,162.065H404.2V154.7h2.017c1.14,0,1.841.088,2.28.526a2.258,2.258,0,0,1,.614,1.4,2.124,2.124,0,0,1-1.578,2.017,19.149,19.149,0,0,0,1.753,2.543,1.837,1.837,0,0,0,1.052.526l-.088.351c0,.088-.088.088-.175.088-1.14,0-1.666-.175-3.419-3.244-.263,0-.614.088-1.4.088v3.069Zm0-3.77h.789c.877,0,2.1-.088,2.1-1.578s-1.14-1.49-1.929-1.49h-1.052v3.069Z" transform="translate(-86.382 -94.27)" fill="#606489"/>
      <path id="Path_3607" data-name="Path 3607" d="M425.8,161.977l-.438.175-5.26-6.137.175,6.05H419.4V154.7h.7l5.085,5.874-.175-5.874h.789Z" transform="translate(-88.255 -94.27)" fill="#606489"/>
      <rect id="Rectangle_1671" data-name="Rectangle 1671" width="0.877" height="7.365" transform="translate(346.225 60.43)" fill="#606489"/>
      <path id="Path_3608" data-name="Path 3608" d="M447.264,162.065H446.3l3.419-7.365h.7l2.893,7.365h-.964l-.877-2.367h-3.244Zm3.945-2.981-1.315-3.419-1.49,3.419Z" transform="translate(-91.571 -94.27)" fill="#606489"/>
      <path id="Path_3609" data-name="Path 3609" d="M49.065,103.758a113.643,113.643,0,0,0-.438-12.625c-.175-1.841-1.052-2.63-5.173-2.63-.789,0-1.578-.175-1.578-.7s.526-.7,1.578-.7c2.543,0,5.523.526,9.206.526,2.893,0,6.488-.526,8.5-.526,1.052,0,1.4.175,1.4.7s-.789.7-1.49.7c-4.121,0-4.734.877-4.91,2.63-.175,3.419-.351,8.066-.351,12.011v9.907c0,8.241.175,13.765.7,16.4.438,1.841,1.929,2.28,5.7,2.28,3.858,0,7.54-.263,10.258-1.227,3.244-1.14,4.208-4.3,5-8.943.175-.877.351-1.227.877-1.227.438,0,.614.351.614,1.14a38.475,38.475,0,0,1-2.28,9.206c-1.052,2.543-2.017,3.156-7.014,3.156-6.225,0-13.5-.526-17.622-.526-3.332,0-7.365.526-8.855.438-.877,0-1.49-.088-1.49-.614,0-.614.526-.789,1.666-.789,3.244-.088,4.647-.7,5-2.893.438-2.28.614-9.206.614-15.694v-9.995Z" transform="translate(-41.7 -85.938)" fill="#606489"/>
      <path id="Path_3610" data-name="Path 3610" d="M182.21,120.855c-.526,0-.877.351-.964,1.227-.877,4.647-1.753,6.576-3.858,7.715-2.28,1.227-5.436,1.929-11.4,1.929-4.033,0-5.348-.438-5.786-2.192-.526-2.367-.789-8.241-.789-16.921v-1.49c1.841.088,7.628.263,11.924.263,3.419,0,4.208-1.052,5.611-3.069.263-.351,0-.7-.7-.526-4.033,1.227-14.642,1.14-16.921,1.052V107c0-8.241.088-14.642.438-16.307.175-.964.526-1.315,1.578-1.315,1.315-.088,2.718-.175,4.121-.175,9.381,0,11.4,1.4,11.4,4.384,0,1.315-.088,3.332-.088,4.384,0,.789.263,1.14.7,1.14.526,0,.7-.614.7-1.49,0-2.28.175-6.137.351-8.767.088-1.227-.263-1.753-2.28-1.753-6.049,0-16.22.614-20.34.614-.614,0-16.483-.526-19.113-.526-1.14,0-1.4.263-1.4.789s.7.614,2.1.614c3.244-.088,4.734.614,4.734,2.017a17.155,17.155,0,0,1-1.315,4.91c-2.893,7.891-8.767,21.3-12.888,29.809-.263.614-.614.789-.964.175-4.91-10.959-10.521-23.935-13.5-32.176-.614-1.666-.877-2.893-.526-3.682.263-.789,1.4-1.052,3.244-1.052,1.14,0,1.666-.088,1.666-.7V87.8c0-.526-.351-.7-1.578-.7-2.63,0-6.488.526-9.206.526H92.695c-2.718,0-6.751-.526-8.592-.526-.877,0-1.315.175-1.315.7,0,.614.789.7,2.017.7,3.77,0,4.559.877,4.734,2.718.351,2.981.351,10.433.351,14.554v7.54c0,7.277-.088,13.326-.438,16.22-.263,2.017-1.49,2.806-5.26,2.893-.964,0-1.49.263-1.49.7s.438.789,1.4.789c1.578,0,5.874-.526,8.329-.526,2.806,0,6.839.526,9.469.526,1.14,0,1.578-.263,1.578-.789,0-.438-.614-.7-1.753-.7-3.507,0-4.384-.877-4.647-3.244a166.083,166.083,0,0,1-.614-17.535v-4.384c0-3.682.088-11.661.438-15.606.175-1.929.526-2.718,2.893-2.893a7.527,7.527,0,0,1,2.455.7c1.14.614,2.192,2.367,3.244,4.647,4.033,8.767,11.222,26.39,15.343,36.3.964,2.1,3.507,4.559,4.471,4.559.351,0,.526-.351.877-1.14,4.91-11.222,14.2-31.387,19.9-41.645,1.052-1.841,1.929-2.806,2.893-3.156.175-.088.438-.088.614-.175a2.615,2.615,0,0,1,2.28,2.543c.263,2.017.438,7.8.438,15.168v6.488a140.792,140.792,0,0,1-.7,16.483c-.351,2.192-1.666,2.806-4.91,2.893-1.227,0-1.753.175-1.753.7s.526.7,1.49.7c1.841,0,5.436-.526,8.767-.526,2.455,0,12.011.526,17.8.526,5,0,5.962-.526,6.926-3.156a45.768,45.768,0,0,0,2.28-8.68C182.736,121.293,182.648,120.855,182.21,120.855Z" transform="translate(-46.754 -85.938)" fill="#606489"/>
      <path id="Path_3611" data-name="Path 3611" d="M204.152,104.547c0-7.891-.263-12.1-.614-13.853-.263-1.49-1.929-2.1-5.085-2.1-1.14,0-1.753-.088-1.753-.614s.7-.789,1.578-.789c1.753,0,5.611.526,8.943.526,2.981,0,8.943-.614,12.625-.614,10.784,0,15.08,3.595,15.08,10.609,0,5.348-3.945,9.907-11.4,12.888a168.016,168.016,0,0,0,20.516,24.9c14.9,14.642,27,18.762,35.771,18.762a24.418,24.418,0,0,0,13.94-3.945c.438-.263.964-.351.964.088s-.351.964-1.315,1.578a28.677,28.677,0,0,1-16.132,5.523c-11.4,0-23.847-5.523-33.842-14.554-9.644-8.592-14.992-15.255-24.023-27.793-1.753-2.367-2.893-3.069-4.647-2.981-.877,0-1.4-.351-1.4-.614,0-.526.614-.7,1.753-.789,7.628-.088,12.362-3.507,12.362-11.222,0-7.452-4.384-10.784-11.4-10.784-2.981,0-4.384.526-4.647,1.841s-.438,4.559-.438,16.833V114.1c0,8.417.438,13.589.877,15.606.438,2.1,2.1,2.718,4.647,2.718,1.227,0,1.753.263,1.753.789s-.526.7-1.578.7c-2.1,0-6.576-.526-9.03-.526-2.718,0-7.1.526-8.767.526-1.14,0-1.578-.175-1.578-.7,0-.438.438-.789,1.315-.789,3.332,0,4.822-.614,5.26-2.63.351-2.1.438-6.4.438-14.642V104.547Z" transform="translate(-60.805 -85.938)" fill="#606489"/>
      <path id="Path_3612" data-name="Path 3612" d="M289.908,105.95c0-3.77,0-7.8.088-11.748,0-.351-.263-.438-.438-.088-3.77,8.154-12.1,34.807-15.869,42.434-.526,1.052-1.14,2.017-1.49,2.017s-.7-.526-1.227-1.4c-4.647-9.556-16.4-37.261-18.85-42.785-.175-.351-.438-.438-.438.088,0,2.455-.175,9.644-.088,13.589,0,12.362.351,19.376.789,21.743.351,2.1,1.578,2.63,5.523,2.63,1.052,0,1.4.263,1.4.7,0,.526-.438.7-1.4.7-1.841,0-5.7-.526-7.628-.526-3.419,0-5.085.438-6.926.526-.964,0-1.753-.088-1.753-.7s.526-.789,1.49-.789c3.156,0,4.3-.614,4.822-2.718.7-2.806,1.227-9.556,1.578-24.549.175-6.488.438-12.888-.088-14.466-.438-1.578-1.49-2.017-5.611-2.017-1.052,0-1.49-.175-1.49-.7,0-.614.526-.789,1.4-.789,1.49,0,4.734.526,7.189.526,2.1,0,3.419-.263,4.384-.263a1.354,1.354,0,0,1,1.4.789c3.77,9.907,12.8,30.072,17.8,39.8.351.7.614.789.964,0,4.734-9.732,9.732-28.494,14.116-39.629.263-.614.438-1.052,1.052-1.052.964,0,2.63.351,4.647.351s5.611-.526,7.1-.526c.877,0,1.4.263,1.4.7,0,.526-.351.789-1.578.789-3.507,0-4.471.351-5,1.578-.7,1.841-.7,8.066-.7,13.5,0,2.63,0,9.644.263,14.554.175,4.822.351,10.609.964,12.1.7,1.841,2.016,1.929,5,1.929,1.14,0,1.666.351,1.666.789,0,.614-.614.789-1.49.789-2.016,0-6.751-.526-8.943-.526-2.28,0-6.225.526-8.329.526-1.052,0-1.578-.175-1.578-.7s.438-.789,1.666-.789c1.315,0,2.63,0,3.507-1.227.7-1.14.877-7.628.877-11.573-.175-3.682-.175-9.907-.175-13.589Z" transform="translate(-66.34 -85.938)" fill="#606489"/>
      <path id="Path_3613" data-name="Path 3613" d="M446.886,120.955c-.526,0-.877.351-.964,1.227-.789,4.647-1.753,6.576-3.77,7.715-2.28,1.315-5.436,2.017-11.4,2.017-4.033.088-5.348-.438-5.786-2.192-.526-2.367-.877-8.241-.964-16.921v-1.49c1.841,0,7.628.175,11.924.088,3.419,0,4.208-1.14,5.611-3.069.263-.351,0-.7-.7-.526-4.033,1.227-14.642,1.315-16.921,1.227V107.19c-.088-8.241,0-14.642.263-16.307.175-.964.526-1.315,1.49-1.315,1.315-.088,2.718-.175,4.121-.175,9.381-.088,11.4,1.315,11.4,4.3v4.384c0,.789.263,1.14.7,1.14.526,0,.7-.614.7-1.49-.088-2.28.088-6.137.263-8.767,0-1.227-.263-1.753-2.28-1.753-6.049.088-16.22.7-20.34.789-2.718,0-7.014-.351-8.943-.438-1.052-.088-1.578.175-1.578.7,0,.614.7.7,1.753.7,3.945,0,4.822.789,5.085,2.718.263,2.017.526,7.8.614,15.168l.088,6.488a131.736,131.736,0,0,1-.526,16.483c-.263,1.841-1.227,3.244-3.507,2.806-1.841-.351-3.419-1.4-5.962-3.682-3.682-3.332-10.433-11.661-14.116-18.061,4.471-1.753,10.959-5.962,10.872-12.713-.088-7.189-4.471-10.7-15.168-10.609-3.77,0-9.644.7-12.625.789-3.332,0-7.189-.438-8.943-.438-.877,0-1.578.263-1.578.877,0,.526.614.614,1.753.614,3.069,0,4.734.614,5.085,2.1.351,1.753.7,5.962.789,13.853l.088,10.521c.088,8.241.088,12.537-.351,14.642-.351,2.017-1.929,2.63-5.173,2.718q-1.315,0-1.315.789c0,.438.438.7,1.578.614,1.666,0,6.049-.526,8.767-.526,2.455,0,6.926.438,9.03.438,1.052,0,1.578-.175,1.578-.7s-.438-.789-1.753-.7c-2.543,0-4.208-.614-4.647-2.718-.438-2.016-.964-7.189-1.052-15.606l-.088-6.663c-.088-12.362.088-15.518.351-16.833s1.666-1.841,4.647-1.841c7.014-.088,11.485,3.156,11.485,10.609.088,7.1-4.471,11.31-11.31,11.4-2.1,0-2.63.088-2.63.789,0,.526.526.7,1.49.7,2.1,0,2.981.614,4.91,3.858,2.367,3.682,7.1,10.959,9.293,13.677,2.981,3.507,5.962,4.3,11.135,4.208,4.559-.088,9.82-.877,10.959-.877,2.455,0,12.011.438,17.8.351,5-.088,5.962-.614,6.926-3.244a43.2,43.2,0,0,0,2.192-8.767C447.412,121.393,447.237,120.955,446.886,120.955Z" transform="translate(-81.636 -85.95)" fill="#606489"/>
      <path id="Path_3614" data-name="Path 3614" d="M363.892,109.03c0-14.729-11.135-24.812-27.705-23.058-1.49.175-1.578.438-1.49,1.052.088.526,1.14.438,1.841.351,13.414-1.052,19.727,10.959,19.727,23.321" transform="translate(-77.812 -85.774)" fill="#606489"/>
      <path id="Path_3615" data-name="Path 3615" d="M333.2,99.574c0-1.929,3.156,2.893,3.156-1.578,0-4.559-1.841-6.926-6.663-6.926-7.628,0-11.573,7.891-11.573,18.236,0,15.957,8.329,23.409,18.236,23.409,11.924,0,16.921-10.083,16.921-21.919,0-12.362-6.313-24.286-19.727-23.321-.7.088-1.753.175-1.841-.351-.088-.614,0-.877,1.49-1.052C349.853,84.319,360.9,94.4,360.9,109.13c0,12.8-8.329,25.6-26.039,25.6-14.116,0-24.461-8.154-24.461-23.847,0-10.872,8.066-22.094,19.2-22.094,6.576,0,10.17,4.91,10.17,9.293C339.771,105.36,333.2,104.659,333.2,99.574Z" transform="translate(-74.82 -85.787)" fill="#606489"/>
      <path id="Path_3616" data-name="Path 3616" d="M352.575,110.192s-.964-1.666-1.753-2.806c-.877-1.227-3.507-.7-3.244-1.753.175-1.052,1.227.351,2.63-1.666a2.1,2.1,0,0,1,1.841-.7s-2.63-.789-3.595-2.1c-1.14-1.753-.7-1.929-.7-1.929l1.4-.088a4.505,4.505,0,0,0-2.806-2.017,2.738,2.738,0,0,0-2.1.789s.438-1.315.175-1.841a1.837,1.837,0,0,0-.877-.877s-.175.789-1.753,1.14a5.232,5.232,0,0,1-2.718-.175s.088,1.227.088,1.666a1.14,1.14,0,0,1-.526,1.052s3.419,5.26-1.49,4.822c-4.3-.438.877-4.471-1.4-6.576a4.512,4.512,0,0,0-4.208-1.14,1.406,1.406,0,0,1,.088,1.315c-.351.614-1.315-.175-2.893-.351a6.1,6.1,0,0,0-2.806.351s.7.789.7,1.315c0,.614.7,1.052.351,1.929s-2.192.351-2.192,1.227S322.854,103,322.854,103a2.712,2.712,0,0,1,.964,1.052,3.865,3.865,0,0,1,.526,1.14s2.367-.175,2.718.789c.438,1.052-2.543,1.227-2.543,1.227l.088.7c.088.7-1.49.526-2.192.964s-.789.964,0,1.14c.7.175.438,1.052-.175,1.578-1.052.964.175,2.367.175,2.367a1.051,1.051,0,0,1,.789-1.14c.526-.088.964.351,1.052,1.227,0,.877-.964,1.666-1.227,2.543-.351.877.438,2.455.438,2.455s1.052-.088,2.016-.263c1.052-.088.614-1.4,1.4-2.1s2.28.7,2.28.7.526-1.841.789-2.981c.351-1.14,1.929-2.1,2.806-1.227s-.088,1.49-1.14,2.455a3.024,3.024,0,0,0-1.227,2.893c.088,1.052,1.052.614.789,1.49a5.7,5.7,0,0,0,.438,2.893,1.572,1.572,0,0,1,.877-.964c.438-.263,1.052.351,1.49,1.666a9.134,9.134,0,0,0,1.227,2.543l.789-1.315s.789,2.1,2.1,2.28a7.188,7.188,0,0,1,2.543.964,13.727,13.727,0,0,0-.263-1.753,2.369,2.369,0,0,1,1.227-2.28c.7-.438,1.753.964,1.753.964l.088-1.227s1.227-1.929,1.052-2.981c-.088-1.052-1.4-.614-2.016-1.227-.526-.614.438-.964.438-.964l-.614-.351c-.614-.351-.088-1.315-.964-2.192s-1.666-1.841-.789-2.63c.877-.877,1.841.526,2.543,1.841s.088,2.455,1.052,2.63c1.052.175.526,1.49,1.578.789s1.227,1.315,1.227,1.315.789-1.578,1.578-2.893-.088-2.192.351-2.893,1.14.877,1.4.351c.351-.614.175-.7-.175-2.367C350.3,110.368,352.575,110.192,352.575,110.192Z" transform="translate(-76.227 -86.936)" fill="#a5a837"/>
    </g>
  </g>
</svg>
