<?xml version="1.0" encoding="utf-8"?>
<!-- Generator: Adobe Illustrator 21.1.0, SVG Export Plug-In . SVG Version: 6.00 Build 0)  -->
<svg version="1.1" id="Layer_1" xmlns="http://www.w3.org/2000/svg" xmlns:xlink="http://www.w3.org/1999/xlink" x="0px" y="0px"
	 viewBox="0 0 170 170" style="enable-background:new 0 0 170 170;" xml:space="preserve">
<style type="text/css">
	.st0{fill:#FFFFFF;}
	.st1{fill:#FFFFFF;stroke:#000000;stroke-width:2.3375;}
	.st2{fill:#FFFFFF;stroke:#000000;stroke-width:1.1688;}
	.st3{fill:#FFFFFF;stroke:#000000;stroke-width:0.5844;}
	.st4{fill:#FFFFFF;stroke:#000000;stroke-width:0.6613;}
	.st5{fill:#FFFFFF;stroke:#000000;stroke-width:0.6678;}
	.st6{fill:#FFFFFF;stroke:#000000;stroke-width:0.4342;stroke-linejoin:round;}
	.st7{fill:#FFFFFF;stroke:#000000;stroke-width:0.3339;}
	.st8{fill:#FFFFFF;stroke:#000000;stroke-width:0.4674;}
	.st9{fill:#FFFFFF;stroke:#000000;stroke-width:0.267;stroke-linecap:round;stroke-linejoin:bevel;}
</style>
<g>
	<g>
		<path class="st0" d="M85,170c-46.9,0-85-38.1-85-85C0,38.1,38.1,0,85,0s85,38.1,85,85C170,131.9,131.9,170,85,170z M85,2.3
			C39.4,2.3,2.3,39.4,2.3,85c0,45.6,37.1,82.7,82.7,82.7s82.7-37.1,82.7-82.7C167.7,39.4,130.6,2.3,85,2.3z"/>
		<path class="st1" d="M85,85"/>
	</g>
	<g>
		<path class="st0" d="M85,166.4c-44.9,0-81.4-36.5-81.4-81.4C3.6,40.1,40.1,3.6,85,3.6s81.4,36.5,81.4,81.4
			C166.4,129.9,129.9,166.4,85,166.4z M85,4.8C40.8,4.8,4.8,40.8,4.8,85c0,44.2,36,80.2,80.2,80.2s80.2-36,80.2-80.2
			C165.2,40.8,129.2,4.8,85,4.8z"/>
		<path class="st2" d="M85,85"/>
	</g>
	<g>
		<path class="st0" d="M85,146.3c-33.8,0-61.3-27.5-61.3-61.3S51.2,23.7,85,23.7s61.3,27.5,61.3,61.3S118.8,146.3,85,146.3z
			 M85,24.3c-33.5,0-60.7,27.2-60.7,60.7s27.2,60.7,60.7,60.7s60.7-27.2,60.7-60.7S118.5,24.3,85,24.3z"/>
		<path class="st3" d="M85,85"/>
	</g>
	<g>
		<path class="st0" d="M13.6,62.2c-0.7-0.2-0.9,0-1.2,0.9c-0.6,1.8,0,3.4,0.5,4.5c0.1,0.2,0.2,0.4,0.2,0.4c0,0.1-0.1,0.1-0.1,0.1
			c-0.1,0-0.2-0.2-0.4-0.3l-1.9-1.3l3.9-11.6l2.3,0.1c0.2,0,0.4,0,0.5,0c0.1,0,0.1,0.1,0.1,0.1c0,0-0.3,0.1-0.4,0.2
			c-1.1,0.6-2.5,1.4-3.1,3.3c-0.3,0.8-0.3,1.2,0.5,1.4l8.5,2.8c0.9,0.3,1.7,0.3,2.2-0.5c0.1-0.2,0.2-0.2,0.2-0.2
			c0,0,0.1,0.1,0.1,0.2c0,0.1-0.5,1.2-0.8,2.3c-0.4,1-0.7,2.1-0.7,2.3c0,0.1-0.1,0.2-0.1,0.1c-0.1,0,0-0.2,0-0.4
			c-0.1-1-0.6-1.3-2.3-1.9L13.6,62.2z"/>
		<path class="st0" d="M26.7,44.9l-3.3-2c-0.7-0.4-1.3-0.6-1.8-0.1c-0.1,0.1-0.2,0.1-0.2,0.1c0,0,0-0.1,0.1-0.3c0.2-0.3,0.7-1,1-1.5
			c0.3-0.5,0.7-1.4,0.9-1.6c0.1-0.1,0.2-0.2,0.2-0.2c0,0,0,0.1,0,0.2c-0.2,0.6,0.2,1.1,0.9,1.5l7.3,4.5c0.8,0.5,1.4,0.6,2.2,0.1
			c0.1-0.1,0.2-0.1,0.2-0.1c0,0,0,0.1-0.1,0.3c-0.4,0.6-0.5,0.8-1.1,1.7c-0.6,0.9-0.7,1.2-1,1.8c-0.1,0.2-0.2,0.3-0.2,0.2
			c0,0-0.1-0.1,0-0.2c0.1-1-0.3-1.4-1.1-1.9l-3.6-2.2l-3.9,6.3l3.6,2.2c0.8,0.5,1.4,0.6,2.2,0.1c0.1-0.1,0.2-0.1,0.2-0.1
			c0,0,0,0.1-0.1,0.3c-0.4,0.6-0.5,0.8-1.1,1.7c-0.6,0.9-0.6,1.2-1,1.8c-0.1,0.2-0.2,0.3-0.2,0.2c0,0-0.1-0.1,0-0.2
			c0.1-1-0.3-1.4-1.1-1.9L18.3,51c-0.7-0.4-1.3-0.6-1.8-0.1C16.4,51,16.3,51,16.3,51c0,0,0-0.1,0.1-0.3c0.2-0.3,0.7-1,1-1.5
			c0.3-0.5,0.7-1.4,0.9-1.6c0.1-0.1,0.2-0.2,0.2-0.2c0,0,0,0.1,0,0.2c-0.2,0.6,0.2,1.1,0.9,1.5l3.3,2L26.7,44.9z"/>
		<path class="st0" d="M33.1,36.9l2.5-2.5c1-1,1.4-2.3,1.1-3.1c-0.1-0.1-0.1-0.2,0-0.2c0,0,0.1,0,0.3,0.2l2.2,2.3
			c0.2,0.2,0.3,0.3,0.2,0.3c-0.1,0.1-0.2,0-0.3-0.1c-1.4-0.6-2.6,0.4-3.6,1.4l-2.1,2.1l2.9,2.9c1,1,1.6,0.9,2.5,0l1.6-1.5
			c1.2-1.1,2.1-3.3,2.1-5.1c0-0.3,0.1-0.6,0.1-0.7c0,0,0.1,0,0.1,0c0,0,0,0.1,0.1,0.1l1.4,2.6l-8.4,8.3c-0.3,0.3-0.4,0.4-0.5,0.4
			c0,0,0.2-0.4,0.2-0.6c0.1-0.9-0.2-1.4-1.4-2.6l-4.6-4.7c-0.9-0.9-1.5-1.4-2.2-1c-0.1,0.1-0.3,0.1-0.4,0.1c-0.1-0.1,0-0.1,0.2-0.3
			l7.8-7.7l1.7,0.9c0.2,0.1,0.5,0.2,0.6,0.4c0.1,0.1,0.1,0.1,0,0.2c-0.1,0.1-0.2,0.1-0.3,0c-1.5-0.4-3.5,0.6-4.8,1.8l-2.5,2.5
			L33.1,36.9z"/>
		<path class="st0" d="M63.9,22.9c-0.9,1.9-2.7,3.2-4.6,4c-3.5,1.6-7.5,1.1-9.4-2.9c-1.7-3.6,0.5-7.5,3.9-9c1.6-0.7,3.8-1.2,5.7-1
			l0.2,1.9c0,0.2,0.1,0.7,0,0.7c-0.1,0-0.3-0.2-0.4-0.4c-1.1-1.4-2.7-2-5.3-0.8c-3.2,1.5-3,4.9-1.8,7.5c1.2,2.6,3.8,5,7.5,3.3
			c1.7-0.8,2.6-2.3,2.6-4.5c0-0.3-0.1-0.4,0-0.5c0.1,0,0.1,0,0.3,0.2L63.9,22.9z"/>
		<path class="st0" d="M76.3,15.3c0.5,2.8,0,6.2-3.5,6.9c-3.5,0.7-5.2-2.3-5.8-5.1c-0.5-2.8,0-6.2,3.5-6.9
			C74,9.5,75.8,12.5,76.3,15.3z M78.9,14.8c-0.8-3.9-4.7-5.8-8.4-5.1c-3.7,0.7-6.7,3.9-5.9,7.8c0.8,3.9,4.7,5.8,8.4,5.1
			C76.6,21.9,79.6,18.7,78.9,14.8z"/>
		<path class="st0" d="M85.3,17.2c-0.1,2.4,1.6,3.8,3.9,3.9c3.2,0.2,4.7-1.2,4.9-4.5l0.2-4c0.1-2-0.4-2.9-1.1-3.3
			C93,9.2,92.9,9.1,92.9,9C92.9,9,93,9,93,9c0.5,0,0.7,0.1,1.6,0.2c0.8,0,1.4,0,1.6,0c0.2,0,0.3,0,0.3,0.1c0,0-0.1,0.1-0.3,0.2
			c-0.6,0.3-1.4,1.1-1.5,3.1l-0.2,4c-0.2,3.7-2,5.2-5.8,5c-3-0.2-5.9-1-5.7-4.5l0.4-6.9c0-0.8-0.1-1.4-0.7-1.6
			c-0.1,0-0.2-0.1-0.2-0.1c0-0.1,0.1-0.1,0.3-0.1c0.3,0,1.2,0.1,1.9,0.2c0.6,0,1.5,0,1.9,0c0.2,0,0.3,0,0.3,0.1c0,0-0.1,0.1-0.2,0.1
			c-0.6,0.1-0.9,0.7-0.9,1.5L85.3,17.2z"/>
		<path class="st0" d="M99.5,19c-0.4,1.3-0.6,2.6,0.5,3.5c0.1,0.1,0.2,0.1,0.2,0.2c0,0.1-0.1,0-0.4,0l-3.1-0.9
			c-0.1,0-0.2-0.1-0.2-0.1c0,0,0.1-0.1,0.2,0c1.4-0.2,2.1-1.5,2.4-2.8l1.6-5.2c0.7-2.4,0.5-2.9,0-3.3c-0.2-0.2-0.3-0.2-0.3-0.3
			c0-0.1,0.1-0.1,0.3,0l3.1,0.9l5.7,10.8l1.3-4.4c0.5-1.7,0.8-3.2-0.3-4.2c-0.1-0.1-0.1-0.1-0.1-0.2c0-0.1,0.1-0.1,0.3,0l3,0.9
			c0.1,0,0.2,0.1,0.2,0.1c0,0.1-0.2,0.1-0.4,0.1c-1,0.2-1.6,1.5-2,2.7l-2.6,8.7c0,0.1-0.1,0.3-0.2,0.3l0,0c-0.1,0-0.2-0.3-0.3-0.5
			l-6.6-13.6L99.5,19z"/>
		<path class="st0" d="M120.7,19.1c0.4-0.7,0.2-0.9-0.6-1.4c-1.7-0.9-3.3-0.6-4.5-0.3c-0.2,0.1-0.4,0.1-0.5,0.1
			c-0.1,0-0.1-0.1,0-0.1c0-0.1,0.2-0.2,0.3-0.3l1.6-1.6l10.6,6l-0.5,2.2c0,0.2-0.1,0.4-0.1,0.5c0,0.1-0.1,0.1-0.1,0.1
			c0,0-0.1-0.3-0.1-0.5c-0.3-1.2-0.9-2.7-2.6-3.7c-0.8-0.4-1.1-0.5-1.5,0.2l-4.4,7.8c-0.5,0.8-0.6,1.6,0.1,2.2
			c0.1,0.1,0.2,0.2,0.2,0.3c0,0-0.1,0.1-0.2,0c-0.1-0.1-1.1-0.7-2.1-1.2c-1-0.5-2-1.1-2.1-1.1c-0.1-0.1-0.1-0.1-0.1-0.2
			c0-0.1,0.2,0,0.4,0c1,0.1,1.4-0.3,2.3-1.9L120.7,19.1z"/>
		<path class="st0" d="M131.8,33l4.4-0.9c1-0.2,1.7-0.5,1.8-0.7c0.4-0.4,0.3-0.7,0.2-0.9c-0.1-0.2-0.2-0.4-0.1-0.4
			c0,0,0.1,0,0.3,0.1c0.1,0.1,0.4,0.5,1,1c0.5,0.4,1,0.8,1.2,0.9c0.1,0.1,0.2,0.2,0.1,0.3c0,0-0.3,0-0.6-0.1
			c-0.6-0.1-2.2,0.1-2.8,0.2l-5.4,1.2l-2.1,2.4c-1,1.1-1.2,1.5-0.8,2.2c0.1,0.1,0.2,0.2,0.1,0.3c0,0-0.2,0-0.2-0.1
			c-0.1-0.1-0.5-0.5-1.4-1.3c-0.9-0.8-1.4-1.1-1.5-1.2c-0.1-0.1-0.2-0.2-0.1-0.2c0,0,0.1,0,0.3,0.1c0.7,0.3,1.1,0,2.1-1.1l1.9-2.2
			l0.4-6.5c0.1-0.9,0-1.5-0.1-2.1c-0.1-0.4-0.2-0.6-0.1-0.6c0.1-0.1,0.2,0,0.3,0.1c0.1,0.1,1,1,1.8,1.7c0.7,0.7,1.2,1,1.4,1.1
			c0.1,0.1,0.2,0.2,0.1,0.2c0,0-0.2,0-0.3-0.1c-0.2-0.1-0.7-0.1-0.9,0.1c-0.3,0.4-0.3,0.7-0.4,1.3L131.8,33z"/>
		<path class="st0" d="M147.8,53.6c-2.5,1.5-5.9,2.1-7.6-1c-1.8-3,0.4-5.7,2.9-7.2c2.5-1.5,5.9-2.1,7.7,1
			C152.5,49.5,150.3,52.1,147.8,53.6z M149.2,55.8c3.4-2,3.9-6.4,2-9.6c-1.9-3.3-5.9-5-9.4-3c-3.4,2-3.9,6.4-2,9.6
			C141.7,56.1,145.7,57.8,149.2,55.8z"/>
		<path class="st0" d="M151.6,61.3l1.1,3.4c0.4,1.3,1.4,2.3,2.2,2.3c0.1,0,0.2,0,0.2,0.1c0,0.1,0,0.1-0.2,0.2l-3.1,1
			c-0.1,0-0.2,0-0.2,0c0-0.1,0.2-0.2,0.3-0.3c0.7-0.8,0.6-2.3,0.2-3.6l-0.9-2.9l-2.7,0.8c-1.7,0.5-2.9,1.2-2.9,2c0,0.2,0,0.4,0,0.4
			c0,0-0.1,0-0.1-0.1c0-0.1-0.3-1.3-0.7-2.3c-0.3-1.1-0.7-2.1-0.7-2.2c0-0.1,0-0.2,0-0.2c0.1,0,0.2,0.1,0.3,0.2
			c0.6,0.6,1.2,0.7,2.6,0.3l7.3-2.3c1.1-0.3,1.6-0.6,1.6-1.2c0-0.1,0-0.3,0.1-0.3c0,0,0.1,0.1,0.2,0.3l3.2,10.2l-1.6,1
			c-0.2,0.1-0.6,0.4-0.6,0.4c-0.1,0-0.1,0-0.1,0c0-0.1,0.1-0.2,0.1-0.3c0.9-1.5,1-3.4,0.4-5.1l-1.1-3.4L151.6,61.3z"/>
		<path class="st4" d="M85,85"/>
	</g>
	<g>
		<path class="st0" d="M29.6,122.2c-0.3,0.1-0.4,0.1-0.4,0c0,0,0-0.1,0.1-0.1c0.9-1.1,1.3-2.7,0.1-4.8c-0.8-1.3-2.1-3-3.8-2
			c-2,1.2-0.9,3.1,0.3,5.8c1.3,3.2,0.2,4.5-0.8,5.1c-3,1.7-5.6-0.8-7-3.3c-1.1-2-1.4-3.2-1.8-5.5l2.3-0.6c0.4-0.1,0.4-0.1,0.5,0
			c0,0.1,0,0.2-0.2,0.2c-1.5,1.2-1.3,4-0.4,5.5c0.9,1.6,2.6,3.5,4.6,2.3c1.9-1.1,0.8-2.9,0.2-4.4c-0.8-1.9-2.1-5.1,0.3-6.5
			c2.8-1.6,5,0.7,6.3,3c0.8,1.5,1.5,3,1.8,4.7L29.6,122.2z"/>
		<path class="st0" d="M33.4,133.1l-2.7-3.1l4.4-1.2L33.4,133.1z M33.2,133.6l-1,2.4c-0.4,1-0.8,1.9-1.1,2.1
			c-0.4,0.3-0.7,0.5-1.1,0.3c-0.1-0.1-0.2-0.1-0.3-0.1c0,0,0,0.1,0.1,0.2c0.1,0.1,0.5,0.5,1.6,1.7c0.8,0.8,1.3,1.5,1.4,1.6
			c0.1,0.1,0.2,0.2,0.3,0.1c0.1-0.1,0-0.3-0.1-0.6c-0.1-0.7,0.1-1.4,0.3-2l4.1-11.4c0-0.1,0.1-0.2,0-0.2l0,0c0,0-0.1,0-0.2,0
			l-10,2.6c-0.9,0.2-2.8,0.5-3.8,0.4c-0.2,0-0.4-0.2-0.5-0.1c0,0,0,0.1,0.1,0.3c0.2,0.2,0.5,0.5,1.1,1.1c0.7,0.8,1.1,1.3,1.2,1.4
			c0.1,0.1,0.2,0.2,0.2,0.1c0,0,0-0.1,0-0.3c-0.2-0.5-0.4-1,0.2-1.6c0.6-0.5,1.4-0.8,2.1-1l2.2-0.6L33.2,133.6z"/>
		<path class="st0" d="M39,142.2c-0.8,1.1-1.4,2.3-0.7,3.5c0.1,0.1,0.1,0.2,0.1,0.2c0,0-0.1,0-0.4-0.2l-2.7-1.9
			c-0.1-0.1-0.1-0.1-0.1-0.1c0,0,0.1,0,0.2,0c1.4,0.2,2.4-0.8,3.2-1.9l3.1-4.4c1.4-2,1.4-2.6,1.1-3.2c-0.1-0.2-0.2-0.3-0.2-0.4
			c0,0,0.1,0,0.3,0.1l2.6,1.8l2,12l2.7-3.8c1-1.5,1.7-2.8,1-4.1c-0.1-0.1-0.1-0.2,0-0.2c0-0.1,0.1,0,0.3,0.1l2.6,1.8
			c0.1,0.1,0.1,0.1,0.1,0.2c0,0-0.2,0-0.4,0c-1-0.2-2,0.9-2.8,2l-5.2,7.4c-0.1,0.1-0.2,0.2-0.2,0.2l0,0c-0.1-0.1-0.1-0.3-0.1-0.5
			l-2-15L39,142.2z"/>
		<path class="st0" d="M60,145.8c0.3-0.7,0-0.9-0.8-1.3c-1.8-0.7-3.4-0.2-4.5,0.3c-0.2,0.1-0.4,0.2-0.4,0.2c-0.1,0-0.1-0.1,0-0.1
			c0-0.1,0.2-0.2,0.3-0.4l1.4-1.8l11.4,4.5l-0.2,2.2c0,0.2,0,0.4,0,0.5c0,0.1-0.1,0.1-0.1,0.1c0,0-0.1-0.3-0.2-0.4
			c-0.5-1.1-1.3-2.6-3.1-3.3c-0.8-0.3-1.2-0.3-1.4,0.4l-3.3,8.3c-0.3,0.9-0.4,1.7,0.4,2.2c0.2,0.1,0.2,0.2,0.2,0.3
			c0,0-0.1,0.1-0.2,0.1c-0.1-0.1-1.2-0.5-2.2-0.9c-1-0.4-2.1-0.8-2.2-0.8c-0.1,0-0.1-0.1-0.1-0.2c0-0.1,0.2,0,0.4,0
			c1,0,1.3-0.5,2-2.2L60,145.8z"/>
		<path class="st0" d="M74.7,154.9l-4.1-0.7l2.7-3.6L74.7,154.9z M74.9,155.4l0.7,2.4c0.3,1,0.6,2,0.5,2.3c-0.1,0.5-0.2,0.8-0.7,0.9
			c-0.2,0-0.3,0-0.3,0.1c0,0,0.1,0.1,0.2,0.1c0.1,0,0.8,0.1,2.3,0.3c1.1,0.2,2,0.4,2.1,0.4c0.2,0,0.3,0,0.3-0.1
			c0-0.1-0.2-0.2-0.4-0.4c-0.5-0.5-0.8-1.1-1-1.8l-3.9-11.4c0-0.1-0.1-0.2-0.1-0.2l0,0c0,0-0.1,0-0.2,0.1l-6.2,8.3
			c-0.6,0.8-1.8,2.2-2.7,2.7c-0.1,0.1-0.4,0.1-0.4,0.2c0,0.1,0,0.1,0.2,0.1c0.2,0,0.7,0.1,1.5,0.2c1.1,0.2,1.7,0.3,1.9,0.4
			c0.1,0,0.2,0,0.2-0.1c0-0.1,0-0.1-0.2-0.2c-0.5-0.3-1-0.6-0.8-1.4c0.1-0.8,0.6-1.5,1-2.1l1.4-1.8L74.9,155.4z"/>
		<path class="st0" d="M106.2,157.7c-1.3,1.6-3.4,2.5-5.4,2.9c-3.7,0.7-7.6-0.7-8.4-5.1c-0.8-3.9,2.2-7.1,5.9-7.9
			c1.8-0.3,4-0.3,5.7,0.4l-0.2,1.9c0,0.2-0.1,0.7-0.1,0.7c-0.1,0-0.2-0.3-0.3-0.5c-0.7-1.6-2.1-2.5-5-2c-3.5,0.7-4,4.1-3.5,6.9
			c0.6,2.8,2.5,5.7,6.6,4.9c1.9-0.4,3.1-1.6,3.5-3.7c0-0.2,0-0.4,0.1-0.4c0.1,0,0.1,0,0.2,0.3L106.2,157.7z"/>
		<path class="st0" d="M113.3,153.7c0.8,1.8,1.5,1.6,3,0.9l0.9-0.4c1.5-0.7,3.2-2.4,3.7-4.1c0.1-0.3,0.1-0.6,0.2-0.6
			c0.1,0,0.1,0,0.2,0.1c0,0.1,0,0.2,0,0.3l0.4,2.9l-10.4,4.7c-0.3,0.1-0.4,0.1-0.4,0.1c0,0,0.1-0.1,0.4-0.3c0.6-0.6,0.4-1.3-0.3-2.9
			l-3.2-7c-0.3-0.7-0.8-1.1-1.4-1.1c-0.1,0-0.2,0-0.2-0.1c0-0.1,0.1-0.1,0.2-0.2c0.3-0.1,1.2-0.4,1.7-0.7c0.6-0.3,1.4-0.7,1.7-0.8
			c0.2-0.1,0.2-0.1,0.3,0c0,0.1-0.1,0.1-0.1,0.2c-0.4,0.5-0.4,1-0.1,1.8L113.3,153.7z"/>
		<path class="st0" d="M128,141.1l-3.3,2.4l-0.8-4.4L128,141.1z M128.5,141.3l2.2,1.2c0.9,0.5,1.8,1,2,1.3c0.3,0.4,0.4,0.7,0.2,1.1
			c-0.1,0.1-0.2,0.2-0.1,0.3c0,0,0.1,0,0.2-0.1c0.1-0.1,0.6-0.5,1.8-1.4c0.9-0.7,1.7-1.2,1.8-1.2c0.1-0.1,0.2-0.2,0.2-0.2
			c-0.1-0.1-0.3,0-0.6,0c-0.7,0-1.4-0.2-2-0.5l-10.9-5.2c-0.1,0-0.2-0.1-0.2,0l0,0c0,0,0,0.1,0,0.2l1.7,10.2c0.2,0.9,0.3,2.8,0,3.8
			c-0.1,0.2-0.2,0.4-0.1,0.5c0,0,0.1,0,0.3-0.1c0.2-0.1,0.6-0.5,1.2-0.9c0.9-0.6,1.5-1,1.6-1.1c0.1-0.1,0.2-0.2,0.1-0.2
			c0,0-0.1,0-0.3,0c-0.5,0.2-1.1,0.3-1.6-0.4c-0.5-0.6-0.6-1.4-0.8-2.2l-0.4-2.3L128.5,141.3z"/>
		<path class="st0" d="M132.3,129.6l2.4-2.8c1.3-1.6,2.8-1.6,3.9-0.7c1,0.8,1.3,2.5-0.1,4.1l-2.3,2.7L132.3,129.6z M136.5,133.2
			l1.9-2.1c1.6-1.8,2.8-1.2,5.2-0.3l2.5,0.9l1.7-1.9c0.4-0.5,0.5-0.6,0.4-0.6c-0.1,0-0.2,0-0.4,0.1c-0.6,0.3-2.3-0.3-3.6-0.8
			c-2-0.8-3.7,0.2-5.2,1.5l0,0c1.3-1.5,3.1-4.2,1.1-5.9c-1.3-1.1-3.1-0.7-5.5,2l-4.7,5.5c-0.2,0.2-0.2,0.3-0.1,0.4
			c0.1,0.1,0.2-0.1,0.4-0.2c0.7-0.4,1.5,0.2,1.9,0.6l6.2,5.3c0.7,0.6,1,1.1,0.9,1.9c-0.1,0.2-0.1,0.3-0.1,0.3c0,0,0.1,0,0.1-0.1
			l2.8-3.3c0.1-0.1,0.1-0.2,0.1-0.2c0,0-0.1,0-0.3,0.1c-0.7,0.3-1.3,0.1-2.1-0.5L136.5,133.2z"/>
		<path class="st0" d="M148.4,116.4l-1.9,3.6l-2.6-3.7L148.4,116.4z M148.9,116.4l2.5,0.1c1,0,2,0.1,2.4,0.2
			c0.4,0.2,0.7,0.5,0.6,0.9c0,0.2,0,0.3,0,0.3c0,0,0.1-0.1,0.1-0.1c0.1-0.1,0.3-0.7,1-2.1c0.5-1,1-1.8,1-1.9c0.1-0.2,0.1-0.3,0-0.3
			c-0.1,0-0.3,0.1-0.5,0.2c-0.7,0.3-1.3,0.4-2,0.4l-12.1,0.2c-0.1,0-0.2,0-0.2,0.1l0,0c0,0,0,0.1,0.1,0.2l6,8.4
			c0.5,0.8,1.5,2.4,1.7,3.4c0,0.2,0,0.4,0.1,0.5c0.1,0,0.1,0,0.2-0.2c0.1-0.2,0.3-0.7,0.6-1.4c0.5-0.9,0.9-1.5,0.9-1.7
			c0.1-0.1,0.1-0.2,0-0.2c-0.1,0-0.1,0-0.2,0.1c-0.4,0.4-0.8,0.7-1.6,0.4c-0.7-0.4-1.2-1-1.6-1.6l-1.3-1.9L148.9,116.4z"/>
		<path class="st5" d="M85.1,85"/>
	</g>
	<g>
		<path class="st0" d="M75.8,138v-5.7l0,0c-0.6,0.2-1.2,0.3-2,0.5c0,0-0.1,0-0.1,0.1c0,0.1,0.1,0.1,0.1,0.1c0.6,0.1,0.7,0.3,0.7,0.9
			v4.1c0,0.6-0.1,1.3-0.7,1.4c-0.2,0-0.2,0-0.2,0.1c0,0.1,0.1,0.1,0.2,0.1c0,0,0.1,0,0.1,0c0.2,0,0.5,0,1.3,0c0.8,0,1.1,0,1.2,0
			c0.1,0,0.1,0,0.1,0c0.2,0,0.2,0,0.2-0.1c0-0.1-0.1-0.1-0.2-0.1C75.9,139.2,75.8,138.6,75.8,138z"/>
		<path class="st0" d="M84,137.7c0,0.1,0,0.2-0.1,0.3c0.1-0.2,0.2-0.3,0.2-0.6c0-1.3-1.3-1.7-2.3-1.9l-0.1,0
			c0.9-0.1,1.9-0.6,1.9-1.5c0-1.2-1.5-1.7-2.8-1.7c-1.1,0-2.8,0.5-2.8,1.9c0,1.1,0.9,1.5,1.7,1.8c-0.2,0-0.7,0.1-1.1,0.3
			c-0.3,0.1-0.4,0.3-0.6,0.5c0,0-0.1,0-0.1,0.1c-0.2,0.3-0.4,0.6-0.4,0.9c0,1.5,2.1,1.9,3.2,1.9c1.3,0,2.7-0.4,3.2-1.5
			c0,0.1-0.1,0.1-0.1,0.1C83.9,138.2,84,137.9,84,137.7z M80.9,139.4c-1,0-2.2-0.4-2.2-1.7c0-1,1.3-1.5,1.6-1.5l0.6,0.2l0.2,0.1
			c0.8,0.2,1.7,0.5,1.7,1.5C82.8,138.9,81.9,139.4,80.9,139.4z M81.2,135.2l-0.4-0.1c-0.7-0.1-1.5-0.6-1.5-1.4
			c0-0.7,0.7-1.2,1.4-1.2c0.8,0,1.6,0.4,1.6,1.3c0,0.4-0.2,0.9-0.5,1.1c-0.1,0.1-0.3,0.2-0.5,0.2C81.2,135.2,81.2,135.2,81.2,135.2z
			 M81.7,135.1c0,0-0.1,0-0.1,0.1C81.6,135.2,81.6,135.2,81.7,135.1z M82.5,139.3c0,0-0.1,0-0.1,0C82.5,139.3,82.5,139.3,82.5,139.3
			z M78,136.7C78.1,136.7,78.1,136.7,78,136.7C78.1,136.7,78.1,136.7,78,136.7C78,136.7,78,136.7,78,136.7z M77.8,137
			c-0.1,0.2-0.2,0.3-0.2,0.6C77.6,137.4,77.7,137.2,77.8,137z M83,139.1c0.2-0.1,0.4-0.3,0.6-0.5C83.4,138.8,83.3,139,83,139.1z"/>
		<path class="st0" d="M83.9,138.2c0,0,0-0.1,0-0.1C83.9,138.1,83.9,138.2,83.9,138.2z"/>
		<path class="st0" d="M87.8,135.3c-0.7,0-1.3,0.1-2.2,0.4l0.1-1.2c0.1-0.7,0.2-0.9,0.7-0.9h4l0.3-1c0-0.1,0-0.1,0-0.2
			c0-0.1,0-0.1-0.1-0.1c0,0-0.1,0-0.1,0.1c-0.2,0.2-0.3,0.2-0.6,0.2h-4.5l-0.3,3.7l0,0.1l0,0c0.8-0.3,1.5-0.5,2.3-0.5
			c1.3,0,2.2,0.7,2.2,1.9c0,1.4-1.1,1.8-2.1,1.8c-1,0-2.2-0.6-2.4-1.8c0,0,0-0.1-0.1-0.1c-0.1,0-0.1,0.1-0.1,0.2c0,0,0,0.1,0,0.1
			l-0.4,1.1l0,0l0,0c0.9,0.5,2.2,0.7,3,0.7c0.8,0,3.6-0.2,3.6-2.3C91.3,135.4,88.4,135.3,87.8,135.3z"/>
		<path class="st0" d="M95.2,132.3c-2,0-3.5,1.6-3.5,3.7c0,2.1,1.5,3.7,3.5,3.7s3.5-1.6,3.5-3.7C98.7,133.9,97.2,132.3,95.2,132.3z
			 M95.2,139.4c-1.8,0-2-1.8-2-3.4c0-1.6,0.2-3.4,2-3.4s2,1.8,2,3.4C97.2,137.6,97,139.4,95.2,139.4z"/>
	</g>
	<g>
		<g>
			<path class="st0" d="M14.6,91.2C14.6,91.2,14.6,91.2,14.6,91.2c-0.2,0-0.2-0.1-0.2-0.2v-8.4c0-0.1,0.1-0.2,0.2-0.2c0,0,0,0,0,0
				c0.1,0,0.2,0.1,0.2,0.2l1.9,5.8c0,0.1,0,0.1,0,0.2l-1.9,2.6C14.8,91.2,14.7,91.2,14.6,91.2z M14.9,84v6.4l1.4-2L14.9,84z"/>
		</g>
		<g>
			<path class="st0" d="M14.6,91.2c-0.1,0-0.1,0-0.2-0.1l-1.9-2.6c0-0.1-0.1-0.1,0-0.2l1.9-5.8c0-0.1,0.1-0.2,0.2-0.2c0,0,0,0,0,0
				c0.1,0,0.2,0.1,0.2,0.2V91C14.9,91.1,14.8,91.2,14.6,91.2C14.7,91.2,14.7,91.2,14.6,91.2z M13,88.4l1.4,2V84L13,88.4z"/>
		</g>
		<g>
			<path class="st0" d="M14.6,91.2C14.6,91.2,14.6,91.2,14.6,91.2l-8.1-2.6c-0.1,0-0.2-0.1-0.2-0.2c0-0.1,0.1-0.2,0.2-0.2h6.1
				c0.1,0,0.1,0,0.2,0.1l1.9,2.6c0.1,0.1,0.1,0.2,0,0.3C14.8,91.2,14.7,91.2,14.6,91.2z M8,88.6l6.1,2l-1.4-2H8z"/>
		</g>
		<g>
			<path class="st0" d="M11.6,92.2c0,0-0.1,0-0.1,0l-4.9-3.6c-0.1-0.1-0.1-0.2-0.1-0.3c0-0.1,0.2-0.1,0.3-0.1l8,2.6
				c0.1,0,0.2,0.1,0.2,0.2c0,0.1-0.1,0.2-0.2,0.2L11.6,92.2C11.6,92.2,11.6,92.2,11.6,92.2z M7.9,89l3.7,2.7l2.3-0.8L7.9,89z"/>
		</g>
		<g>
			<path class="st0" d="M9.7,98C9.7,98,9.6,98,9.7,98c-0.2-0.1-0.2-0.2-0.2-0.3l1.9-5.8c0-0.1,0.1-0.1,0.1-0.1l3.1-1
				c0.1,0,0.2,0,0.2,0.1c0.1,0.1,0.1,0.2,0,0.3l-4.9,6.8C9.8,98,9.8,98,9.7,98z M11.8,92.2l-1.4,4.4l3.7-5.2L11.8,92.2z"/>
		</g>
		<g>
			<path class="st0" d="M9.7,98c-0.1,0-0.1,0-0.2-0.1c-0.1-0.1-0.1-0.2,0-0.3l4.9-6.8c0.1-0.1,0.2-0.1,0.2-0.1
				c0.1,0,0.2,0.1,0.2,0.2v3.2c0,0.1,0,0.1-0.1,0.2L9.8,98C9.8,98,9.7,98,9.7,98z M14.4,91.7l-3.7,5.2l3.7-2.7V91.7z"/>
		</g>
		<g>
			<path class="st0" d="M19.6,98c0,0-0.1,0-0.1,0l-4.9-3.6c-0.1,0-0.1-0.1-0.1-0.2V91c0-0.1,0.1-0.2,0.2-0.2c0.1,0,0.2,0,0.2,0.1
				l4.9,6.8c0.1,0.1,0.1,0.2,0,0.3C19.7,98,19.6,98,19.6,98z M14.9,94.1l3.7,2.7l-3.7-5.2V94.1z"/>
		</g>
		<g>
			<path class="st0" d="M19.6,98c-0.1,0-0.1,0-0.2-0.1l-4.9-6.8c-0.1-0.1-0.1-0.2,0-0.3c0.1-0.1,0.2-0.1,0.2-0.1l3.1,1
				c0.1,0,0.1,0.1,0.1,0.1l1.9,5.8C19.8,97.9,19.8,98,19.6,98C19.6,98,19.6,98,19.6,98z M15.2,91.4l3.7,5.2l-1.4-4.4L15.2,91.4z"/>
		</g>
		<g>
			<path class="st0" d="M17.7,92.2C17.7,92.2,17.6,92.2,17.7,92.2l-3.1-1c-0.1,0-0.2-0.1-0.2-0.2c0-0.1,0.1-0.2,0.2-0.2l8-2.6
				c0.1,0,0.2,0,0.3,0.1c0,0.1,0,0.2-0.1,0.3l-4.9,3.6C17.8,92.2,17.7,92.2,17.7,92.2z M15.3,91l2.3,0.8l3.7-2.7L15.3,91z"/>
		</g>
		<g>
			<path class="st0" d="M14.6,91.2c-0.1,0-0.1,0-0.2-0.1c-0.1-0.1-0.1-0.2,0-0.3l1.9-2.6c0-0.1,0.1-0.1,0.2-0.1h6.1
				c0.1,0,0.2,0.1,0.2,0.2c0,0.1,0,0.2-0.2,0.2L14.6,91.2C14.7,91.2,14.7,91.2,14.6,91.2z M16.6,88.6l-1.4,2l6.1-2H16.6z"/>
		</g>
	</g>
	<g>
		<g>
			<path class="st0" d="M155.2,91.2C155.2,91.2,155.2,91.2,155.2,91.2c-0.2,0-0.2-0.1-0.2-0.2v-8.4c0-0.1,0.1-0.2,0.2-0.2
				c0,0,0,0,0,0c0.1,0,0.2,0.1,0.2,0.2l1.9,5.8c0,0.1,0,0.1,0,0.2l-1.9,2.6C155.4,91.2,155.3,91.2,155.2,91.2z M155.4,84v6.4l1.4-2
				L155.4,84z"/>
		</g>
		<g>
			<path class="st0" d="M155.2,91.2c-0.1,0-0.1,0-0.2-0.1l-1.9-2.6c0-0.1-0.1-0.1,0-0.2l1.9-5.8c0-0.1,0.1-0.2,0.2-0.2c0,0,0,0,0,0
				c0.1,0,0.2,0.1,0.2,0.2V91C155.4,91.1,155.4,91.2,155.2,91.2C155.3,91.2,155.2,91.2,155.2,91.2z M153.6,88.4l1.4,2V84L153.6,88.4
				z"/>
		</g>
		<g>
			<path class="st0" d="M155.2,91.2C155.2,91.2,155.2,91.2,155.2,91.2l-8.1-2.6c-0.1,0-0.2-0.1-0.2-0.2c0-0.1,0.1-0.2,0.2-0.2h6.1
				c0.1,0,0.1,0,0.2,0.1l1.9,2.6c0.1,0.1,0.1,0.2,0,0.3C155.4,91.2,155.3,91.2,155.2,91.2z M148.6,88.6l6.1,2l-1.4-2H148.6z"/>
		</g>
		<g>
			<path class="st0" d="M152.2,92.2c0,0-0.1,0-0.1,0l-4.9-3.6c-0.1-0.1-0.1-0.2-0.1-0.3c0-0.1,0.2-0.1,0.3-0.1l8,2.6
				c0.1,0,0.2,0.1,0.2,0.2c0,0.1-0.1,0.2-0.2,0.2L152.2,92.2C152.2,92.2,152.2,92.2,152.2,92.2z M148.5,89l3.7,2.7l2.3-0.8L148.5,89
				z"/>
		</g>
		<g>
			<path class="st0" d="M150.3,98C150.2,98,150.2,98,150.3,98c-0.2-0.1-0.2-0.2-0.2-0.3l1.9-5.8c0-0.1,0.1-0.1,0.1-0.1l3.1-1
				c0.1,0,0.2,0,0.2,0.1c0.1,0.1,0.1,0.2,0,0.3l-4.9,6.8C150.4,98,150.3,98,150.3,98z M152.3,92.2l-1.4,4.4l3.7-5.2L152.3,92.2z"/>
		</g>
		<g>
			<path class="st0" d="M150.3,98c-0.1,0-0.1,0-0.2-0.1c-0.1-0.1-0.1-0.2,0-0.3l4.9-6.8c0.1-0.1,0.2-0.1,0.2-0.1
				c0.1,0,0.2,0.1,0.2,0.2v3.2c0,0.1,0,0.1-0.1,0.2l-4.9,3.6C150.4,98,150.3,98,150.3,98z M155,91.7l-3.7,5.2l3.7-2.7V91.7z"/>
		</g>
		<g>
			<path class="st0" d="M160.2,98c0,0-0.1,0-0.1,0l-4.9-3.6c-0.1,0-0.1-0.1-0.1-0.2V91c0-0.1,0.1-0.2,0.2-0.2c0.1,0,0.2,0,0.2,0.1
				l4.9,6.8c0.1,0.1,0.1,0.2,0,0.3C160.3,98,160.2,98,160.2,98z M155.4,94.1l3.7,2.7l-3.7-5.2V94.1z"/>
		</g>
		<g>
			<path class="st0" d="M160.2,98c-0.1,0-0.1,0-0.2-0.1l-4.9-6.8c-0.1-0.1-0.1-0.2,0-0.3c0.1-0.1,0.2-0.1,0.2-0.1l3.1,1
				c0.1,0,0.1,0.1,0.1,0.1l1.9,5.8C160.4,97.9,160.4,98,160.2,98C160.2,98,160.2,98,160.2,98z M155.8,91.4l3.7,5.2l-1.4-4.4
				L155.8,91.4z"/>
		</g>
		<g>
			<path class="st0" d="M158.3,92.2C158.3,92.2,158.2,92.2,158.3,92.2l-3.1-1c-0.1,0-0.2-0.1-0.2-0.2c0-0.1,0.1-0.2,0.2-0.2l8-2.6
				c0.1,0,0.2,0,0.3,0.1c0,0.1,0,0.2-0.1,0.3l-4.9,3.6C158.4,92.2,158.3,92.2,158.3,92.2z M155.9,91l2.3,0.8L162,89L155.9,91z"/>
		</g>
		<g>
			<path class="st0" d="M155.2,91.2c-0.1,0-0.1,0-0.2-0.1c-0.1-0.1-0.1-0.2,0-0.3l1.9-2.6c0-0.1,0.1-0.1,0.2-0.1h6.1
				c0.1,0,0.2,0.1,0.2,0.2c0,0.1,0,0.2-0.2,0.2L155.2,91.2C155.3,91.2,155.2,91.2,155.2,91.2z M157.2,88.6l-1.4,2l6.1-2H157.2z"/>
		</g>
	</g>
	<g>
		<polygon class="st0" points="64,110.4 63.7,110.4 63.7,92.2 62.3,92.2 62.3,91.9 64,91.9 		"/>
		<rect x="62.3" y="97.1" class="st0" width="1.6" height="0.3"/>
		<rect x="62.3" y="102.2" class="st0" width="1.6" height="0.3"/>
		<rect x="62.3" y="107.3" class="st0" width="1.6" height="0.3"/>
	</g>
	<g>
		<path class="st0" d="M85,144.9c-33,0-59.9-26.9-59.9-59.9C25.1,52,52,25.2,85,25.2S144.9,52,144.9,85
			C144.9,118,118,144.9,85,144.9z M85,25.7c-32.7,0-59.3,26.6-59.3,59.3c0,32.7,26.6,59.3,59.3,59.3s59.3-26.6,59.3-59.3
			C144.3,52.3,117.7,25.7,85,25.7z"/>
		<path class="st3" d="M85,85"/>
	</g>
	<g>
		<path class="st0" d="M85.8,47.5h-1.3v-18h1.3V47.5z M84.8,47.1h0.7V29.8h-0.7V47.1z"/>
		<path class="st6" d="M85.1,38.6"/>
	</g>
	<g>
		<path class="st0" d="M95.3,48.9L94,48.5l0-0.2l3.4-13.1l1.3,0.3l0,0.2L95.3,48.9z M94.4,48.3l0.6,0.2l3.3-12.6l-0.6-0.2L94.4,48.3
			z"/>
		<path class="st6" d="M96.9,40.2"/>
	</g>
	<g>
		<path class="st0" d="M103.7,52.5l-1.2-0.6l8.7-15.8l1.2,0.6L103.7,52.5z M103,51.7l0.6,0.3l8.4-15.2l-0.6-0.3L103,51.7z"/>
		<path class="st6" d="M107.4,44.4"/>
	</g>
	<g>
		<path class="st0" d="M111.4,58.3l-1-0.9l0.1-0.1l9.4-9.8l1,0.9l-0.1,0.1L111.4,58.3z M110.9,57.4l0.5,0.5l9-9.4l-0.5-0.5
			L110.9,57.4z"/>
		<path class="st6" d="M117,51.5"/>
	</g>
	<g>
		<path class="st0" d="M117,65.6l-0.7-1.1l0.1-0.1l15.2-9.5l0.7,1.1l-0.1,0.1L117,65.6z M116.7,64.6l0.4,0.6l14.7-9.2l-0.4-0.6
			L116.7,64.6z"/>
		<path class="st6" d="M124.1,60.3"/>
	</g>
	<g>
		<path class="st0" d="M66.5,52.4l-8.7-15.8l1.2-0.6l8.7,15.8L66.5,52.4z M58.2,36.8l8.4,15.2l0.6-0.3l-8.4-15.2L58.2,36.8z"/>
		<path class="st6" d="M62.7,44.3"/>
	</g>
	<g>
		<path class="st0" d="M75.3,48.7l0-0.2L72,35.4l1.3-0.3l0,0.2l3.3,13.1L75.3,48.7z M72.4,35.7l3.2,12.6l0.6-0.2L73,35.5L72.4,35.7z
			"/>
		<path class="st6" d="M73.8,40"/>
	</g>
	<g>
		<path class="st0" d="M53.1,65.5L53,65.4l-15.1-9.5l0.7-1.1l0.1,0.1l15.1,9.5L53.1,65.5z M38.3,55.8L53,65l0.4-0.6l-14.7-9.2
			L38.3,55.8z"/>
		<path class="st6" d="M46,60.2"/>
	</g>
	<g>
		<path class="st0" d="M59.1,57.9L59,57.8l-9.3-9.9l1-0.9l0.1,0.1l9.3,9.9L59.1,57.9z M50.2,48l8.9,9.5l0.5-0.5l-8.9-9.5L50.2,48z"
			/>
		<path class="st6" d="M53.5,51"/>
	</g>
	<path class="st0" d="M56.6,67l-0.4-0.2c6.2-9.9,16.8-15.9,28.5-15.9c0.1,0,0.2,0,0.3,0c11.5,0.1,22.1,6,28.2,15.8l-0.4,0.2
		c-6-9.7-16.5-15.5-27.8-15.6c-0.1,0-0.2,0-0.3,0C73.2,51.4,62.7,57.2,56.6,67z"/>
	<rect x="84.8" y="63" class="st0" width="0.3" height="2.7"/>
	<polygon class="st0" points="90,65.8 89.7,65.8 89.8,63.1 90.1,63.1 	"/>
	<polygon class="st0" points="94.8,66.2 94.5,66.1 94.7,63.5 95.1,63.5 	"/>
	<polygon class="st0" points="99.6,66.8 99.3,66.7 99.7,64.1 100,64.1 	"/>
	<polygon class="st0" points="104.4,67.6 104,67.5 104.6,64.9 104.9,64.9 	"/>
	<polygon class="st0" points="109.1,68.6 108.8,68.5 109.4,65.9 109.7,66 	"/>
	<polygon class="st0" points="113.7,69.9 113.4,69.8 114.2,67.2 114.5,67.3 	"/>
	<polygon class="st0" points="118.3,71.4 118,71.3 118.9,68.7 119.2,68.8 	"/>
	<polygon class="st0" points="122.9,73.1 122.6,73 123.6,70.5 123.9,70.6 	"/>
	<polygon class="st0" points="127.3,75 127,74.9 128.1,72.4 128.4,72.6 	"/>
	<polygon class="st0" points="131.6,77.1 131.3,77 132.6,74.6 132.9,74.8 	"/>
	<polygon class="st0" points="135.9,79.5 135.6,79.3 136.9,77 137.2,77.2 	"/>
	
		<rect x="79.9" y="63.1" transform="matrix(0.9988 -4.879676e-02 4.879676e-02 0.9988 -3.0506 3.9856)" class="st0" width="0.3" height="2.7"/>
	<polygon class="st0" points="75.2,66.2 74.9,63.5 75.3,63.5 75.5,66.1 	"/>
	<polygon class="st0" points="70.4,66.8 70,64.1 70.3,64.1 70.7,66.7 	"/>
	<polygon class="st0" points="65.6,67.6 65.1,64.9 65.4,64.9 66,67.5 	"/>
	<polygon class="st0" points="60.9,68.6 60.3,66 60.6,65.9 61.2,68.5 	"/>
	<polygon class="st0" points="56.2,69.9 55.5,67.3 55.8,67.2 56.6,69.8 	"/>
	<polygon class="st0" points="51.6,71.4 50.8,68.8 51.1,68.7 52,71.3 	"/>
	<polygon class="st0" points="47.1,73.1 46.1,70.6 46.4,70.5 47.4,73 	"/>
	
		<rect x="42.1" y="72.4" transform="matrix(0.9086 -0.4177 0.4177 0.9086 -26.9273 24.4044)" class="st0" width="0.3" height="2.7"/>
	<polygon class="st0" points="38.4,77.1 37.1,74.8 37.4,74.6 38.7,77 	"/>
	<polygon class="st0" points="34.1,79.5 32.8,77.2 33.1,77 34.4,79.3 	"/>
	<path class="st0" d="M139.5,81.9c-16.3-10.5-35.1-16-54.5-16c-19,0-37.5,5.3-53.5,15.3L31.4,81C47.4,70.9,66,65.6,85,65.6
		c19.5,0,38.4,5.6,54.7,16L139.5,81.9z"/>
	<path class="st0" d="M139.1,82.5C123,72.1,104.3,66.6,85,66.6c-18.9,0-37.3,5.3-53.2,15.3l-0.1-0.2c16-10,34.4-15.3,53.3-15.3
		c19.3,0,38.1,5.5,54.2,15.9L139.1,82.5z"/>
	<path class="st7" d="M85.1,92"/>
	<g>
		<path class="st0" d="M68.9,111.9V92c0-9.7,7.8-17.5,17.5-17.5h-1.3c-9.7,0-17.5,7.8-17.5,17.5v21.2L68.9,111.9z"/>
		<path class="st0" d="M67.7,113.3l-0.3-0.1V92c0-9.7,7.9-17.7,17.7-17.7h1.3v0.3c-9.6,0-17.3,7.8-17.3,17.3v19.9L69,112L67.7,113.3
			z M81.4,75c-7.8,1.7-13.6,8.6-13.6,16.9v20.8l1-0.9V92C68.7,84,74.1,77.2,81.4,75z"/>
	</g>
	<path class="st0" d="M120.5,92"/>
	<g>
		<path class="st0" d="M109,112V92c0-7,5.7-12.6,12.6-12.6l-1.2,0.1c-7,0-12.6,5.7-12.6,12.6v21.1L109,112z"/>
		<path class="st0" d="M108,113.3l-0.3-0.1V92c0-7,5.7-12.8,12.7-12.8c0.4,0,0.8-0.1,1.3-0.1l0,0.3l-1.2,0.1c0,0-0.1,0-0.1,0
			c-6.3,0.6-11.2,6-11.2,12.4V112l-0.1,0.1L108,113.3z M116.8,80.1c-5.1,1.6-8.8,6.3-8.8,11.9v20.7l0.8-0.8V92
			C108.8,86.6,112.1,82,116.8,80.1z"/>
	</g>
	<g>
		<polygon class="st0" points="106.5,110.4 106.1,110.4 106.1,91.9 107.9,91.9 107.9,92.2 106.5,92.2 		"/>
		<rect x="106.3" y="97.1" class="st0" width="1.6" height="0.3"/>
		<rect x="106.3" y="102.2" class="st0" width="1.6" height="0.3"/>
		<rect x="106.3" y="107.3" class="st0" width="1.6" height="0.3"/>
	</g>
	<rect x="102.5" y="110.1" class="st0" width="5.3" height="0.5"/>
	<g>
		<polygon class="st0" points="104.3,110.4 104,110.4 104,92.2 102.5,92.2 102.5,91.9 104.3,91.9 		"/>
		<rect x="102.5" y="97.1" class="st0" width="1.6" height="0.3"/>
		<rect x="102.5" y="102.2" class="st0" width="1.6" height="0.3"/>
		<rect x="102.5" y="107.3" class="st0" width="1.6" height="0.3"/>
	</g>
	<path class="st7" d="M118.3,79.6"/>
	<path class="st7" d="M122.7,79.6"/>
	<g>
		<path class="st0" d="M122.8,79.6l-0.3-0.1l0.3-1.6c0-0.8-1-1.4-2.3-1.4s-2.3,0.6-2.3,1.4l0.3,1.6l-0.3,0.1l-0.3-1.6
			c0-1,1.2-1.8,2.6-1.8s2.6,0.8,2.6,1.8L122.8,79.6z"/>
	</g>
	<path class="st8" d="M120.5,78"/>
	<path class="st0" d="M114,81.2l-0.8-1.4c-0.3-0.9,0.5-2.1,1.9-2.6c1.4-0.5,2.8-0.2,3.1,0.7l0.3,1.6l-0.3,0.1l-0.3-1.6
		c-0.3-0.7-1.5-1-2.7-0.5c-1.2,0.4-2,1.4-1.7,2.1l0.8,1.4L114,81.2z"/>
	<path class="st0" d="M110.7,84.1l-1.2-1c-0.6-0.8-0.3-2.1,0.9-3.1s2.5-1.1,3.2-0.4l0.8,1.4l-0.3,0.2l-0.8-1.4
		c-0.5-0.6-1.7-0.4-2.7,0.4c-1,0.8-1.3,2-0.8,2.6l1.2,1L110.7,84.1z"/>
	<path class="st0" d="M108.5,87.9l-1.5-0.5c-0.9-0.5-1-1.9-0.2-3.2c0.4-0.8,1.1-1.4,1.8-1.5c0.4-0.1,0.8-0.1,1.1,0.1l1.3,1.1
		l-0.2,0.3l-1.2-1c-0.2-0.1-0.5-0.1-0.8-0.1c-0.6,0.2-1.2,0.7-1.6,1.4c-0.6,1.1-0.6,2.3,0.1,2.7l1.5,0.5L108.5,87.9z"/>
	<path class="st0" d="M106.2,92.1c-0.5-0.7-0.7-1.6-0.5-2.7c0.2-1.3,0.8-2,1.7-2.2l0,0l0,0l1.2,0.4l-0.1,0.3l-1.2-0.4
		c-0.8,0.2-1.3,0.8-1.4,1.9c-0.1,1,0,1.8,0.5,2.5L106.2,92.1z"/>
	<g>
		<path class="st0" d="M127,81.2l-0.3-0.2l0.8-1.4c0.1-0.2,0.1-0.5-0.1-0.8c-0.3-0.6-0.9-1-1.6-1.3c-0.8-0.3-1.5-0.3-2.1,0
			c-0.3,0.1-0.5,0.3-0.6,0.6l-0.3,1.6l-0.3-0.1l0.3-1.6c0.1-0.4,0.4-0.6,0.8-0.8c0.6-0.3,1.5-0.3,2.3,0c0.8,0.3,1.5,0.9,1.8,1.5
			c0.2,0.4,0.2,0.7,0.1,1.1L127,81.2z"/>
	</g>
	<g>
		<path class="st0" d="M130.3,84.1l-0.2-0.3l1.2-1c0.5-0.6,0.1-1.7-0.9-2.6c-1-0.8-2.2-1-2.7-0.4l-0.8,1.4l-0.3-0.2l0.8-1.4
			c0.7-0.8,2-0.6,3.2,0.3c1.1,1,1.5,2.3,0.9,3.1L130.3,84.1z"/>
	</g>
	<g>
		<path class="st0" d="M132.4,88l-0.1-0.3l1.5-0.5c0.3-0.2,0.5-0.5,0.5-1c0-0.5-0.1-1.1-0.4-1.7c-0.6-1.1-1.7-1.7-2.4-1.3l-1.2,1
			l-0.2-0.3l1.2-1c0.9-0.5,2.1,0.2,2.9,1.4c0.3,0.6,0.5,1.3,0.5,1.8c0,0.6-0.3,1.1-0.7,1.3L132.4,88z"/>
	</g>
	<path class="st0" d="M135.3,89.5c-0.2-1.1-0.7-1.9-1.5-2l-1.4,0.5l-0.1-0.3l1.5-0.5l0,0c0.9,0.2,1.6,1,1.8,2.3L135.3,89.5z"/>
	<path class="st0" d="M49.6,92"/>
	<path class="st0" d="M38.1,93v-1c0-7,5.7-12.6,12.6-12.6l-1.2,0.1c-7,0-12.6,5.7-12.6,12.6"/>
	<g>
		<polygon class="st0" points="66.1,110.4 65.8,110.4 65.8,91.9 67.5,91.9 67.5,92.2 66.1,92.2 		"/>
		<rect x="66" y="97.1" class="st0" width="1.6" height="0.3"/>
		<rect x="66" y="102.2" class="st0" width="1.6" height="0.3"/>
		<rect x="66" y="107.3" class="st0" width="1.6" height="0.3"/>
	</g>
	<path class="st8" d="M31.7,110.4"/>
	<path class="st7" d="M47.4,79.6"/>
	<path class="st7" d="M51.8,79.6"/>
	<g>
		<path class="st0" d="M52,79.6l-0.3-0.1l0.3-1.6c0-0.8-1-1.4-2.3-1.4c-1.3,0-2.3,0.6-2.3,1.4l0.3,1.6l-0.3,0.1L47,78
			c0-1,1.2-1.8,2.6-1.8c1.5,0,2.6,0.8,2.6,1.8L52,79.6z"/>
	</g>
	<path class="st8" d="M49.6,78"/>
	<path class="st0" d="M43.1,81.2l-0.8-1.4c-0.3-0.9,0.5-2.1,1.9-2.6c1.4-0.5,2.7-0.2,3.1,0.7l0.3,1.6l-0.3,0.1L46.9,78
		c-0.3-0.7-1.5-1-2.7-0.5c-1.2,0.4-1.9,1.4-1.7,2.1l0.8,1.4L43.1,81.2z"/>
	<path class="st0" d="M39.8,84.1l-1.2-1c-0.6-0.8-0.2-2.1,0.9-3.1c1.1-0.9,2.5-1.1,3.2-0.4l0.8,1.4l-0.3,0.2l-0.8-1.4
		c-0.5-0.6-1.7-0.4-2.7,0.4c-1,0.8-1.4,2-0.8,2.6l1.2,1L39.8,84.1z"/>
	<path class="st0" d="M37.6,87.9l-1.5-0.5c-0.9-0.5-1-1.9-0.2-3.2c0.4-0.8,1.1-1.4,1.8-1.5c0.4-0.1,0.8-0.1,1.1,0.1l1.3,1.1
		l-0.2,0.3l-1.2-1c-0.2-0.1-0.5-0.1-0.8-0.1c-0.6,0.2-1.2,0.7-1.6,1.4c-0.6,1.1-0.6,2.3,0.1,2.7l1.5,0.5L37.6,87.9z"/>
	<path class="st0" d="M35,88.7l-0.3-0.1c0.3-0.8,0.9-1.3,1.5-1.4l0,0l0,0l1.5,0.5L37.6,88l-1.4-0.5C35.7,87.6,35.2,88,35,88.7z"/>
	<path class="st7" d="M34.8,88.6"/>
	<g>
		<path class="st0" d="M56.1,81.2L55.8,81l0.8-1.4c0.1-0.2,0.1-0.5-0.1-0.8c-0.3-0.6-0.9-1-1.6-1.3c-0.8-0.3-1.5-0.3-2.1,0
			c-0.3,0.1-0.5,0.3-0.6,0.6L52,79.6l-0.3-0.1l0.3-1.6c0.1-0.4,0.4-0.6,0.8-0.8c0.6-0.3,1.5-0.3,2.3,0c0.8,0.3,1.5,0.9,1.8,1.5
			c0.2,0.4,0.2,0.7,0.1,1.1L56.1,81.2z"/>
	</g>
	<g>
		<path class="st0" d="M59.4,84.1l-0.2-0.3l1.2-1c0.5-0.6,0.1-1.7-0.9-2.6c-1-0.8-2.2-1-2.7-0.4l-0.8,1.4L55.8,81l0.8-1.4
			c0.6-0.8,2.1-0.6,3.2,0.3c1.1,1,1.5,2.3,0.9,3.1L59.4,84.1z"/>
	</g>
	<g>
		<path class="st0" d="M61.6,88l-0.1-0.3l1.5-0.5c0.2-0.1,0.4-0.3,0.5-0.7c0.2-0.6,0-1.4-0.4-2c-0.6-1.1-1.7-1.7-2.4-1.3l-1.2,1
			l-0.2-0.3l1.2-1c0.9-0.5,2.1,0.2,2.9,1.4c0.4,0.8,0.6,1.6,0.4,2.3c-0.1,0.4-0.3,0.7-0.6,0.9L61.6,88z"/>
	</g>
	<path class="st0" d="M64,92.1l-0.3-0.2c0.5-0.7,0.6-2,0.5-2.7c-0.2-1.2-1.3-1.5-1.7-1.6l-1,0.4l-0.1-0.3l1.1-0.4l0,0
		c0.8,0.2,1.8,0.8,2,1.9C64.7,89.9,64.6,91.3,64,92.1z"/>
	<path class="st7" d="M82.4,74.7"/>
	<path class="st7" d="M87.8,74.7"/>
	<path class="st7" d="M82.5,74.6"/>
	<path class="st7" d="M87.7,74.7"/>
	<g>
		<path class="st0" d="M87.8,74.7l-0.3,0l0.3-2.1c0-1-1.2-1.9-2.8-1.9c-1.5,0-2.8,0.9-2.8,1.9l0.3,2.1l-0.3,0L82,72.6
			c0-1.3,1.4-2.3,3.1-2.3s3.1,1,3.1,2.3L87.8,74.7z"/>
	</g>
	<path class="st7" d="M85.1,72.5"/>
	<g>
		<path class="st0" d="M92.8,76.3l-0.3-0.1l0.9-1.9c0.3-1-0.6-2.2-2.1-2.6c-0.9-0.3-1.7-0.2-2.4,0.1c-0.4,0.2-0.7,0.5-0.8,0.9
			l-0.3,2.1l-0.3,0l0.3-2.1c0.1-0.5,0.5-0.9,1-1.1c0.7-0.4,1.7-0.4,2.6-0.2c1.6,0.5,2.6,1.9,2.3,3.1L92.8,76.3z"/>
	</g>
	<g>
		<path class="st0" d="M97,79.2L96.8,79l1.4-1.6c0.2-0.3,0.3-0.7,0.2-1.2c-0.1-0.7-0.7-1.4-1.4-1.9c-0.6-0.4-1.2-0.6-1.9-0.6
			c0,0-0.1,0-0.1,0c-0.6,0-1.1,0.3-1.4,0.7l-0.9,1.9l-0.3-0.1l0.9-1.9c0.4-0.5,1-0.8,1.7-0.9c0,0,0.1,0,0.1,0c0.7,0,1.4,0.2,2.1,0.7
			c0.8,0.5,1.4,1.3,1.5,2.1c0.1,0.5,0,1.1-0.3,1.5L97,79.2z"/>
	</g>
	<g>
		<path class="st0" d="M100.2,83.3l-0.2-0.3l1.8-1.1c0.4-0.3,0.6-0.8,0.5-1.5c0-0.6-0.3-1.3-0.8-1.9c-1-1.2-2.4-1.6-3.2-0.9L97,79.2
			L96.8,79l1.4-1.6c1-0.8,2.7-0.4,3.7,0.9c0.5,0.6,0.8,1.4,0.9,2.1c0,0.7-0.2,1.4-0.7,1.7L100.2,83.3z"/>
	</g>
	<g>
		<path class="st0" d="M102.1,88.1l-0.1-0.3l2.1-0.5c0.4-0.2,0.8-0.6,0.9-1.2c0.2-0.6,0.1-1.4-0.2-2c-0.6-1.4-1.9-2.2-2.8-1.8
			l-1.8,1.1l-0.2-0.3l1.8-1.1c1.2-0.5,2.7,0.4,3.3,2c0.3,0.8,0.4,1.5,0.2,2.2c-0.2,0.7-0.6,1.2-1.2,1.5L102.1,88.1z"/>
	</g>
	<g>
		<path class="st0" d="M77.3,76.2l-0.9-1.9c-0.4-1.2,0.7-2.6,2.3-3.1c1.6-0.5,3.2,0.1,3.6,1.3l0.3,2.1l-0.3,0L82,72.5
			c-0.1-0.5-0.6-0.8-1.1-1c-0.6-0.2-1.3-0.2-2,0c-1.4,0.4-2.4,1.6-2.1,2.7l0.9,1.9L77.3,76.2z"/>
	</g>
	<g>
		<path class="st0" d="M73.1,79.1l-1.4-1.5c-0.7-1.1-0.1-2.7,1.3-3.6c0.8-0.5,1.8-0.8,2.6-0.6c0.5,0.1,1,0.4,1.3,0.8l0.9,2l-0.3,0.1
			l-0.9-1.9c-0.2-0.3-0.6-0.5-1-0.6c-0.7-0.1-1.6,0.1-2.3,0.6c-1.3,0.8-1.8,2.3-1.2,3.1l1.4,1.5L73.1,79.1z"/>
	</g>
	<g>
		<path class="st0" d="M69.8,83.2L68,82.1c-1-0.8-0.9-2.5,0.2-3.8c1.1-1.3,2.7-1.8,3.7-1l1.5,1.6l-0.2,0.2l-1.4-1.6
			c-0.8-0.7-2.3-0.2-3.2,0.9c-1,1.2-1.1,2.7-0.2,3.4l1.8,1.1L69.8,83.2z"/>
	</g>
	<g>
		<path class="st0" d="M67.9,88l-2-0.5c-0.6-0.2-1-0.8-1.2-1.5c-0.2-0.7-0.1-1.5,0.2-2.2c0.6-1.6,2.1-2.5,3.3-2l1.9,1.1l-0.2,0.3
			L68,82.1c-0.9-0.4-2.2,0.4-2.8,1.8c-0.3,0.7-0.3,1.4-0.2,2c0.2,0.6,0.5,1,1,1.2l2,0.5L67.9,88z"/>
	</g>
	<path class="st0" d="M65.8,92.1c-0.8-0.9-0.8-1.8-0.8-2.7c0-0.6,0.7-1.7,1.6-2.1l0,0l1.4,0.3L68,88.1l-1.3-0.3
		C66,88,65.4,89,65.4,89.5c0,0.9,0,1.7,0.7,2.5L65.8,92.1z"/>
	<path class="st0" d="M104.2,92.1l-0.3-0.2c0.8-0.9,0.8-1.6,0.7-2.7c-0.1-1.1-0.7-1.2-1.5-1.3l-0.2,0l-0.9,0.3l-0.1-0.3l1-0.3l0.2,0
		c0.8,0.1,1.6,0.3,1.7,1.6C105.2,90.3,105.2,91.1,104.2,92.1z"/>
	<path class="st0" d="M108,113.3h-5.6V92c0-9.6-7.8-17.3-17.3-17.3c-9.6,0-17.3,7.8-17.3,17.3v21.3h-5.7V92
		c0-6.9-5.6-12.5-12.5-12.5c-6.9,0-12.5,5.6-12.5,12.5h-0.3c0-7.1,5.7-12.8,12.8-12.8c7.1,0,12.8,5.7,12.8,12.8v21h5V92
		c0-9.7,7.9-17.7,17.7-17.7s17.7,7.9,17.7,17.7v21h5V92c0-7.1,5.7-12.8,12.8-12.8c7.1,0,12.8,5.7,12.8,12.8h-0.3
		c0-6.9-5.6-12.5-12.5-12.5c-6.9,0-12.5,5.6-12.5,12.5V113.3z"/>
	<rect x="62.2" y="110.1" class="st0" width="5.3" height="0.5"/>
	<path class="st0" d="M48.7,69.6C48.7,69.6,48.7,69.6,48.7,69.6c-0.9-0.1-3.6-1.3-4.1-1.7c-0.5-0.3-2.3-1.1-2.7-1.2
		c-0.4-0.1-0.7-0.2-1.1-0.3c-1.6-0.4-3.1-0.9-4.7-0.6c-0.2,0-0.3,0.1-0.5,0.2c-0.2,0.1-0.4,0.2-0.7,0.2c0,0,0,0-0.1,0h-0.1v-0.3
		c0.2,0,0.4-0.1,0.7-0.2c0.2-0.1,0.4-0.2,0.6-0.2c1.7-0.3,3.2,0.1,4.9,0.6c0.3,0.1,0.7,0.2,1,0.3c0.4,0.1,2.2,0.9,2.8,1.2
		c0.6,0.4,3.2,1.5,4,1.6c0.1,0,0.2,0.1,0.1,0.2C48.9,69.6,48.8,69.6,48.7,69.6z"/>
	<path class="st0" d="M43.1,70.5c0,0-0.1,0-0.1-0.1c-0.3-0.3-0.6-0.4-0.9-0.6l-0.1-0.1c-0.6-0.3-1.2-0.5-1.7-0.8
		c-0.9-0.4-1.8-0.8-2.8-1.3c-0.7-0.4-4.7-2.1-6-2.4c0,0-0.2,0-0.7,0.2c0,0-0.1,0-0.1,0c-0.3,0.1-0.6,0.2-0.9,0.2
		C29.4,65.9,29,66,28.5,66c-0.1,0-0.2-0.1-0.2-0.2c0-0.1,0.1-0.2,0.2-0.2c0.4,0,0.7-0.1,1.1-0.3c0.3-0.1,0.6-0.2,0.9-0.3
		c0.5-0.2,0.7-0.3,0.9-0.3c1.4,0.3,5.4,2.1,6.1,2.4c0.9,0.5,1.8,0.9,2.7,1.3c0.6,0.3,1.2,0.5,1.7,0.8l0.1,0.1c0.3,0.2,0.7,0.3,1,0.7
		c0.1,0.1,0.1,0.2,0,0.2C43.2,70.4,43.2,70.5,43.1,70.5z"/>
	<path class="st0" d="M36.8,73.2c0,0-0.1,0-0.1,0c-0.2-0.1-1.7-1-2.5-1c-0.1,0-0.2,0-0.3,0c-0.4,0-0.8,0-1.1-0.2
		c-0.4-0.1-0.7-0.3-1-0.5c-0.5-0.3-1-0.6-1.7-0.7c-0.5-0.1-1,0.1-1.5,0.3c-0.1,0-0.2,0.1-0.3,0.1c-0.1,0-0.2,0-0.2-0.1
		c0-0.1,0-0.2,0.1-0.2c0.1,0,0.2-0.1,0.3-0.1c0.5-0.2,1-0.4,1.7-0.3c0.7,0.1,1.2,0.4,1.8,0.8c0.3,0.2,0.6,0.4,1,0.5
		c0.3,0.1,0.6,0.1,1,0.1c0.1,0,0.2,0,0.3,0c0.9,0.1,2.5,1,2.7,1.1c0.1,0.1,0.1,0.2,0,0.2C36.9,73.1,36.9,73.2,36.8,73.2z"/>
	<path class="st0" d="M48.3,111.6c0,0-0.1,0-0.1,0c-0.2-0.1-0.4-0.4-0.5-0.7l-0.1-0.2c-0.2-0.4-0.5-0.7-0.7-1.1
		c-0.7-0.9-1.4-1.8-1.3-3.1c0-0.2-0.2-0.5-0.5-0.8c-1.4-1.3-2.2-2.9-2.8-4.5c-0.3-0.6-0.6-1.3-0.9-1.9c-0.1-0.3-0.4-0.4-0.6-0.6
		c-0.1-0.1-0.2-0.1-0.3-0.2l-0.1-0.1c-0.4-0.3-0.8-0.6-1-1.2c-0.2-0.6-0.3-1.2-0.5-1.7c-0.1-0.4-0.3-0.9-0.4-1.3
		c-0.2-0.6-0.6-1.1-1.3-1.6c-0.2-0.2-0.4-0.4-0.4-0.7c-0.2-1.1-0.7-1.9-1.4-2.7c-0.1-0.1-0.3-0.3-0.5-0.4c-0.2-0.2-0.4-0.3-0.6-0.6
		l0,0c0,0-0.1,0-0.1,0c-0.1,0-0.3-0.1-0.4-0.2c-0.4-0.5-0.4-1-0.4-1.5c0-0.4,0-0.7-0.2-1.1l-0.2-0.1c0-0.6-0.2-1.1-0.5-1.7
		c-0.1-0.3-0.3-0.5-0.4-0.8c-0.1-0.2-0.2-0.4-0.4-0.6c-0.1-0.2-0.2-0.3-0.3-0.4c-0.4-0.8-0.4-1.5-0.4-2.2c0-0.6,0-1.2-0.2-1.8
		c0,0,0-0.1,0-0.2c0-0.1,0-0.2-0.1-0.2c-0.9-0.4-1.9-0.8-2.9-1.4c-0.1-0.1-0.2-0.2-0.3-0.3c-0.1-0.1-0.2-0.2-0.2-0.2
		c-0.2-0.1-0.5-0.2-0.7-0.3l-0.2-0.1c-0.1,0-0.2-0.2-0.2-0.3c0-0.1,0.2-0.2,0.3-0.2l0.2,0.1c0.3,0.1,0.6,0.2,0.8,0.3
		c0.1,0.1,0.2,0.2,0.3,0.3c0.1,0.1,0.2,0.2,0.2,0.2c0.9,0.6,1.9,1,2.8,1.4c0.3,0.1,0.4,0.4,0.4,0.6c0,0,0,0.1,0,0.1
		c0.2,0.7,0.2,1.3,0.2,1.9c0,0.7,0,1.4,0.3,2c0.1,0.1,0.1,0.2,0.2,0.4c0.1,0.2,0.3,0.5,0.4,0.7c0.1,0.2,0.2,0.5,0.4,0.7
		c0.3,0.5,0.5,1.1,0.6,1.7l0.1,0.1c0.2,0.4,0.2,0.8,0.2,1.3c0,0.5,0,0.9,0.3,1.3l0,0c0,0,0.1,0,0.1,0c0.1,0,0.2,0.1,0.3,0.2
		c0.2,0.2,0.4,0.4,0.6,0.5c0.2,0.1,0.3,0.3,0.5,0.4c0.8,0.8,1.3,1.7,1.6,2.9c0,0.1,0.1,0.3,0.2,0.3c0.6,0.4,1.3,0.9,1.5,1.8
		c0.1,0.4,0.3,0.9,0.4,1.3c0.2,0.6,0.4,1.2,0.5,1.8c0.1,0.4,0.4,0.7,0.8,1l0.2,0.1c0.1,0.1,0.2,0.1,0.3,0.2c0.3,0.2,0.6,0.4,0.8,0.8
		c0.3,0.6,0.6,1.3,0.9,2c0.7,1.6,1.4,3.1,2.7,4.3c0.2,0.1,0.7,0.6,0.6,1.2c-0.1,1.1,0.5,1.9,1.2,2.8c0.3,0.4,0.5,0.7,0.8,1.1
		l0.1,0.2c0.1,0.2,0.2,0.4,0.3,0.5c0.1,0.1,0.2,0.2,0.1,0.3C48.5,111.5,48.4,111.6,48.3,111.6z M33.2,85.5L33.2,85.5
		c0,0.1,0.1,0,0.1,0L33.2,85.5z"/>
	<path class="st0" d="M36,96.1C36,96.1,36,96.1,36,96.1c-0.1,0-0.2-0.1-0.2-0.2c0-0.1-0.1-1.2-0.2-1.6c-0.1-0.3-0.2-0.6-0.4-0.8
		c-0.2-0.2-0.3-0.5-0.4-0.7c0,0,0-0.1-0.1-0.2c-0.1-0.3-0.4-1.3-0.7-1.4L34,91.1c0-0.1-0.1-0.4-0.1-0.7c-0.3-1.5-0.4-2.3-0.4-2.4
		c0-0.2,0-0.5-0.1-0.7c0-0.1,0-0.2,0.1-0.2c0.1,0,0.2,0,0.2,0.1c0.1,0.3,0.1,0.6,0.1,0.9c0,0.2,0.3,1.6,0.4,2.3
		c0,0.3,0.1,0.5,0.1,0.6c0.3,0.2,0.6,0.9,0.8,1.5c0,0.1,0,0.1,0.1,0.2c0.1,0.2,0.2,0.4,0.4,0.7c0.2,0.3,0.4,0.6,0.5,0.9
		c0,0.2,0.2,1.5,0.2,1.7C36.2,96,36.1,96.1,36,96.1z"/>
	<path class="st0" d="M29.7,84.4L29.7,84.4c-0.1,0-0.2-0.1-0.2-0.2l0-0.3c0-0.7,0-1.3-0.1-2c0-0.2-0.1-0.4-0.2-0.6
		C29.1,81.2,29,81,29,80.8c-0.1-0.2-0.1-0.4-0.1-0.6c0-0.2,0-0.4-0.1-0.6c0-0.1-0.1-0.2-0.1-0.3c0-0.1-0.1-0.1-0.1-0.2
		c-0.1-0.2-0.1-0.4-0.1-0.6c0-0.1,0-0.3,0-0.4c0-0.1-0.1-0.1-0.1-0.2c-0.1-0.1-0.2-0.2-0.2-0.3c-0.1-0.3-0.2-0.6-0.1-0.8
		c0.1-0.2,0-0.3-0.2-0.5c-0.1-0.1-0.2-0.2-0.2-0.3c0-0.1,0-0.2,0.1-0.2c0.1,0,0.2,0,0.2,0.1c0,0.1,0.1,0.2,0.2,0.3
		c0.2,0.2,0.4,0.5,0.2,0.9c-0.1,0.2,0,0.4,0.1,0.6c0,0.1,0.1,0.1,0.1,0.2c0.1,0.1,0.2,0.2,0.2,0.3c0.1,0.2,0,0.4,0,0.5
		c0,0.2,0,0.3,0,0.4c0,0,0,0.1,0.1,0.1c0.1,0.1,0.1,0.2,0.2,0.4c0.1,0.2,0.1,0.4,0.1,0.6c0,0.2,0,0.4,0,0.6c0,0.2,0.1,0.3,0.2,0.5
		c0.1,0.2,0.2,0.4,0.3,0.7c0.1,0.7,0.1,1.4,0.1,2.1l0,0.3C29.9,84.3,29.8,84.4,29.7,84.4z"/>
	<path class="st0" d="M30.6,96.6C30.6,96.6,30.6,96.6,30.6,96.6c-0.1,0-0.2-0.1-0.2-0.1c0-0.2-0.6-1-0.9-1.7
		c-0.4-0.7-0.7-1.1-0.7-1.2c-0.2-0.5-0.3-1.1-0.3-1.9c-0.3-0.3-0.6-0.9-0.9-1.6c-0.1-0.2-0.2-0.4-0.2-0.5c-0.2-0.4-0.3-0.8-0.3-1.1
		c0-0.1,0-0.2,0-0.3c0-0.1,0.1-0.2,0.1-0.2c0.1,0,0.2,0.1,0.2,0.1c0,0.1,0,0.2,0,0.3c0,0.4,0.1,0.7,0.3,1c0.1,0.1,0.1,0.3,0.3,0.6
		c0.2,0.5,0.6,1.3,0.8,1.5l0.1,0.1c0,0.7,0.1,1.3,0.3,1.9c0,0.1,0.4,0.7,0.7,1.2c0.5,0.8,0.8,1.3,0.9,1.6c0,0,0.1,0.1,0.1,0.1
		c0,0.1,0,0.2,0,0.2C30.7,96.6,30.7,96.6,30.6,96.6z"/>
	<path class="st0" d="M38.6,113c-0.1,0-0.1,0-0.2,0c-0.2-0.1-0.2-0.3-0.2-0.4c0,0-0.1-0.1-0.2-0.3c-0.4-0.5-0.6-0.7-0.6-0.8
		c-0.1-0.2-0.1-0.4,0-0.6c0-0.1,0-0.2,0-0.3c0-0.1-0.1-0.2-0.3-0.4c-0.1-0.1-0.2-0.2-0.3-0.4c-0.1-0.2-0.2-0.4-0.3-0.5
		c-0.3-0.5-0.6-0.9-0.8-1.5c-0.1-0.2-0.5-1.1-0.8-1.5l-0.2-0.3c-0.1-0.2-0.4-0.6-0.7-0.9c-0.3-0.3-0.3-0.4-0.4-0.5
		c0-0.1-0.1-0.3-0.2-0.6c-0.2-0.5-0.4-1.5-0.6-1.7c-0.3-0.4-0.6-0.6-1.1-0.8c-0.1-0.1-0.2-0.1-0.3-0.2c-0.2-0.1-0.4-0.3-0.7-0.5
		c-0.3-0.2-0.8-0.6-0.9-0.6c-0.3-0.1-0.9-0.2-1.1-0.8c0-0.1,0-0.3,0.2-0.3c0.1,0,0.3,0,0.3,0.2c0.1,0.3,0.4,0.4,0.8,0.5
		c0.2,0,0.5,0.2,1.1,0.7c0.3,0.2,0.5,0.4,0.7,0.5c0.1,0.1,0.2,0.1,0.3,0.2c0.4,0.3,0.9,0.5,1.2,1c0.2,0.3,0.4,1,0.7,1.9
		c0.1,0.3,0.1,0.5,0.2,0.5c0,0,0.2,0.2,0.3,0.4c0.3,0.3,0.6,0.7,0.7,1l0.2,0.3c0.4,0.6,0.7,1.3,0.8,1.6c0.2,0.5,0.5,0.9,0.7,1.4
		c0.1,0.2,0.2,0.4,0.3,0.5c0.1,0.1,0.1,0.2,0.2,0.3c0.2,0.2,0.3,0.3,0.4,0.6c0,0.2,0,0.4,0,0.5c0,0.1,0,0.3,0,0.4
		c0,0.1,0.4,0.5,0.5,0.7c0.2,0.3,0.3,0.4,0.3,0.4c0,0.1,0,0.2,0,0.2l0,0c0.1,0.1,0.1,0.2,0,0.3C38.7,113,38.7,113,38.6,113z"/>
	<path class="st0" d="M45,112.9c0-0.1,0-0.1,0-0.1c0-0.1-0.1-0.2-0.1-0.3c-0.1-0.2-0.1-0.3-0.2-0.4c-0.2-0.4-0.8-1.4-0.9-1.5
		c-0.2,0-1.5-1.6-1.5-1.6c0-0.1-0.2-0.3-0.4-0.8c-0.3-0.6-0.8-1.7-1-1.8c-0.2-0.2-0.5-0.3-0.9-0.4c-0.1,0-0.1-0.1-0.1-0.2
		c0-0.1,0.1-0.2,0.2-0.1c0.3,0.1,0.7,0.2,1.1,0.5c0.2,0.2,0.6,0.9,1,1.9c0.2,0.3,0.4,0.7,0.4,0.8c0.4,0.5,1.2,1.4,1.4,1.5
		c0.4,0.1,1.1,1.6,1.1,1.6c0,0.1,0.1,0.3,0.2,0.5c0,0.1,0.1,0.2,0.1,0.2c0,0,0,0.1,0,0.1c0,0,0,0,0,0.1L45,112.9z"/>
	<path class="st0" d="M38.6,114.4c-0.1,0-0.1,0-0.2,0c0,0,0,0,0,0l-0.1-0.1l0,0c0,0-0.1,0-0.1,0c0,0-0.1,0-0.1,0
		c-0.1,0-0.2,0-0.2-0.1c-0.1,0-0.2-0.1-0.2-0.1c-0.1,0-0.3,0-0.4,0c-0.3,0-0.7,0-1-0.1c-0.3,0-0.6-0.1-1,0c-0.4,0.1-0.8,0.1-1.2,0
		c-0.3,0-0.6,0-1,0.1c-0.1,0-0.3,0-0.3-0.2c0-0.1,0-0.3,0.2-0.3c0.4-0.1,0.8-0.2,1.2-0.1c0.3,0,0.7,0,1,0c0.4-0.1,0.7-0.1,1.1,0
		c0.3,0.1,0.6,0.1,1,0.1c0.1,0,0.3,0,0.4,0c0.1,0,0.2,0,0.4,0.1c0.1,0,0.1,0,0.2,0c0,0,0.1,0,0.1,0l0,0l0,0c0,0,0,0,0,0v0l0,0
		c0,0,0,0,0,0l0.1,0.1c0-0.1,0-0.1-0.1-0.1c0.1,0,0.1,0,0.2,0c0,0,0,0,0,0c0,0,0.1-0.1,0.2-0.1c0,0,0,0,0.1,0c0,0,0,0,0-0.3
		c0,0,0-0.1,0-0.1c0-0.1-0.1-0.2-0.3-0.3c-0.1-0.1-0.2-0.2-0.1-0.4l0.2-0.2c0.3,0,0.7-0.1,1.1,0c0,0,0.1,0,0.2,0c0.1,0,0.2,0,0.2,0
		l0.1,0c0.2,0,0.4,0,0.6,0c0.1,0,0.1,0,0.2,0.1c0.2,0,0.3,0.1,0.5,0.1c0.1,0,0.1,0,0.2,0.1c0.3,0.1,0.6,0.2,0.9,0.1
		c0.3-0.1,0.5,0,0.7,0.1l0.1,0c0.2,0,0.3,0,0.5,0l0.2,0c0,0,0.1,0,0.1,0c0.1,0,0.3,0,0.4-0.1c0.1,0,0.3,0,0.5,0l0,0.1l0,0
		c0,0,0,0,0,0c0.2-0.2,0.8-0.1,1-0.1c0.3,0,0.6,0,1,0.1c0,0,0.1,0,0.1,0c0.1,0,0.2,0,0.2,0l0.2,0c0.3,0,0.7-0.1,1,0c0,0,0.1,0,0.1,0
		c0.3,0.1,0.6,0,0.9,0.1c0.1,0,0.1,0,0.2,0.1c0.2,0,0.3,0.1,0.4,0.1l0.1,0c0.1,0,0.3,0,0.4,0c0.2,0,0.3,0,0.5,0c0,0,0,0,0,0
		c-0.3-0.1-0.5-0.3-0.7-0.4l-0.1-0.1c-0.1-0.1-0.1-0.1-0.2-0.2c-0.1-0.1-0.3-0.3-0.4-0.3c0,0-0.1,0-0.1,0c-0.1,0-0.1-0.1-0.2-0.1
		c0,0-0.1,0-0.2,0l-0.1-0.1c-0.4-0.2-0.6-0.4-0.9-0.6c0,0-0.1,0-0.2-0.1c-0.1-0.1-0.1-0.2,0-0.4c0.1-0.1,0.2-0.1,0.3-0.1
		c0.1,0,0.1,0,0.2,0.1c0.2,0.2,0.5,0.4,0.8,0.6l0,0.1c0,0,0.1,0,0.1,0c0.1,0,0.1,0.1,0.2,0.1c0,0,0.1,0,0.1,0.1
		c0.2,0.1,0.4,0.3,0.5,0.4c0.1,0.1,0.1,0.1,0.2,0.2l0.1,0.1c0.2,0.1,0.3,0.3,0.5,0.3c0.1,0,0.2,0.1,0.3,0.2l0.1,0.1l0.1,0.1
		c0,0,0.1,0.1,0.2,0.2c0.1,0.1,0.1,0.4,0,0.5c-0.3,0.3-0.6,0.1-0.8,0c-0.1-0.1-0.2-0.1-0.3,0c-0.2,0.1-0.5,0.1-0.8,0l-0.1,0
		c-0.1,0-0.2-0.1-0.4-0.1c-0.1,0-0.2-0.1-0.3-0.1c-0.2-0.1-0.5,0-0.8-0.1l-0.1,0c-0.3-0.1-0.6,0-0.9,0l-0.2,0c-0.1,0-0.3,0-0.4-0.1
		c0,0-0.1,0-0.1,0c-0.2,0-0.3,0-0.5-0.1c-0.1,0-0.3,0-0.4,0c-0.2,0-0.3,0-0.5,0c0,0,0,0.1-0.1,0.1l-0.2,0.1c-0.1,0-0.2-0.1-0.3-0.1
		l0,0c-0.1,0-0.2,0-0.3,0c-0.1,0-0.1,0-0.2,0c0,0-0.1,0-0.1,0c-0.1,0-0.1,0-0.2,0l-0.2,0c-0.2,0-0.5,0-0.7,0l-0.1,0
		c-0.2-0.1-0.3-0.1-0.4-0.1c-0.5,0.1-0.9,0-1.2-0.1c-0.1,0-0.1,0-0.2-0.1c-0.1,0-0.2-0.1-0.4-0.1c-0.1,0-0.1,0-0.2-0.1
		c-0.2,0-0.3,0-0.5,0l-0.2,0c-0.1,0-0.1,0-0.2,0c-0.1,0-0.2,0-0.3,0c-0.2,0-0.3,0-0.5,0c0,0.1,0.1,0.1,0.1,0.2l0,0.1
		c0.1,0.2,0.2,0.6-0.1,0.9c0,0-0.1,0.1-0.1,0.1c0,0-0.1,0-0.1,0C38.8,114.4,38.7,114.4,38.6,114.4z M45,113.3
		C45,113.3,45.1,113.3,45,113.3L45,113.3z M38.8,112.6C38.8,112.6,38.8,112.7,38.8,112.6C38.8,112.7,38.8,112.6,38.8,112.6z
		 M49.3,112.1C49.3,112.1,49.3,112.1,49.3,112.1C49.3,112.1,49.3,112.1,49.3,112.1z M49.2,112C49.2,112,49.2,112,49.2,112L49.2,112z
		 M49.6,111.7l0.1,0.1C49.7,111.8,49.7,111.8,49.6,111.7z"/>
	<path class="st0" d="M140.2,79.1c0,0-0.1,0-0.1,0C123.6,68.7,104.6,63.2,85,63.2c-19,0-37.5,5.2-53.7,15c-0.1,0.1-0.3,0-0.3-0.1
		c-0.1-0.1,0-0.3,0.1-0.3C47.3,68,65.9,62.7,85,62.7c19.7,0,38.8,5.5,55.3,15.9c0.1,0.1,0.2,0.2,0.1,0.3
		C140.4,79.1,140.3,79.1,140.2,79.1z"/>
	<path class="st0" d="M52.5,94c-1.4,0-3.2-0.1-4.1-0.2c-0.1,0-0.2,0-0.3,0c-0.2,0-0.4-0.1-0.5-0.1c-2.2-0.1-4.4-0.1-6.6,0
		c0,0-0.1,0-0.1,0c-0.2,0-0.5,0-0.8,0c-0.5,0-1-0.1-1.4,0c0,0,0,0,0,0c-0.1,0-0.1,0-0.1-0.1c0-0.1,0-0.1,0.1-0.2c0.5-0.1,1,0,1.5,0
		c0.3,0,0.6,0,0.8,0c2.2,0,4.4,0,6.6,0c0.2,0,0.4,0,0.6,0.1c0.1,0,0.2,0,0.3,0c0.9,0.1,2.7,0.2,4.1,0.2c0.2,0,0.3,0,0.5,0l1.1,0
		c2.7,0,5.3-0.1,8-0.3c0.1,0,0.1,0,0.1,0.1c0,0.1,0,0.1-0.1,0.1c-2.7,0.3-5.3,0.3-8,0.3L53,94C52.8,94,52.7,94,52.5,94z"/>
	<path class="st0" d="M60.4,91.5c0,0-0.1,0-0.1-0.1c-0.2-0.3-0.6-0.4-0.9-0.6l-0.1-0.1c-0.7-0.3-1.4-0.3-2.1-0.4
		c-1.1-0.1-2.2-0.2-3.1-0.9c-2.2-1.8-4.8-2.7-7-3.4c-0.1,0-0.3-0.1-0.4-0.1c-0.2-0.1-0.4-0.1-0.7-0.2c-0.7-0.3-1.5-0.3-2.1,0
		c-0.2,0.1-0.4,0.3-0.7,0.5c-0.1,0.1-0.2,0.1-0.3,0.2c0,0.1-0.1,0-0.2,0c0-0.1,0-0.1,0-0.2c0.1-0.1,0.2-0.1,0.2-0.2
		c0.2-0.2,0.5-0.4,0.7-0.5c0.6-0.3,1.5-0.3,2.3,0c0.2,0.1,0.4,0.1,0.6,0.2c0.1,0,0.3,0.1,0.4,0.1c2.2,0.7,4.8,1.6,7.1,3.5
		c0.9,0.7,1.9,0.8,3,0.9c0.7,0.1,1.5,0.1,2.2,0.4l0.1,0.1c0.3,0.1,0.8,0.3,1,0.6C60.6,91.4,60.6,91.5,60.4,91.5
		C60.5,91.5,60.4,91.5,60.4,91.5z"/>
	<path class="st0" d="M40.8,93.7C40.7,93.7,40.7,93.7,40.8,93.7c-0.1-0.1-0.1-0.2-0.1-0.2c0.1-0.1,0.2-0.2,0.4-0.3
		c0.2-0.1,0.3-0.2,0.4-0.3c0.2-0.3,0.4-0.5,0.7-0.8c0.3-0.2,0.6-0.4,0.9-0.5c0.3-0.1,0.6-0.2,0.9-0.4c0.1,0,0.1,0,0.2,0
		c0,0.1,0,0.1,0,0.2c-0.3,0.2-0.6,0.4-1,0.5c-0.3,0.1-0.6,0.2-0.9,0.4c-0.3,0.2-0.5,0.4-0.7,0.7c-0.1,0.2-0.3,0.3-0.5,0.4
		C41.1,93.5,41,93.6,40.8,93.7C40.8,93.7,40.8,93.7,40.8,93.7z"/>
	<path class="st0" d="M71.6,93.8c-0.6,0-1.2,0-1.8,0l-0.8,0c-0.1,0-0.1-0.1-0.1-0.1c0-0.1,0.1-0.1,0.1-0.1l0,0l0.8,0
		c1.6,0,3.3,0,4.9-0.1c0.1,0,0.3,0,0.4,0c0.2,0,0.5,0,0.7-0.1c0.6,0,1.1,0,1.7,0c0.7,0,1.3,0,2,0c0.7-0.1,1.5,0,2.2,0
		c0.4,0,0.9,0,1.3,0c0,0,0,0,0,0c0.1,0,0.1,0.1,0.1,0.1c0,0.1-0.1,0.1-0.1,0.1c-0.4,0-0.9,0-1.3,0c-0.7,0-1.4,0-2.1,0
		c-0.7,0.1-1.4,0-2,0c-0.5,0-1.1,0-1.6,0c-0.2,0-0.5,0-0.7,0.1c-0.1,0-0.3,0-0.4,0C73.7,93.8,72.7,93.8,71.6,93.8z"/>
	<path class="st0" d="M87.3,90.5C87.3,90.5,87.3,90.5,87.3,90.5c-0.7-0.1-1.4-0.3-2-0.4l0,0c-1-0.4-2-0.9-3.1-1.2
		c-0.1,0-0.2,0-0.3,0c-0.1,0-0.3,0-0.4,0c-0.2,0-0.4-0.1-0.6-0.1c-0.1,0-0.2,0-0.3,0c-0.1,0-0.2-0.1-0.2-0.1c0,0-0.1,0-0.1,0
		c-0.1,0-0.1,0-0.2,0c-0.9,0-1.7-0.1-2.5-0.3c-0.2-0.1-0.5-0.2-0.7-0.3c-0.4-0.2-0.7-0.3-1-0.3c-0.2,0-0.5,0-0.7-0.1
		c-0.4,0-0.9-0.1-1.3-0.2c-1-0.2-1.8-0.6-2.7-0.9l-0.4-0.2c-0.1,0-0.3-0.1-0.4-0.2c0-0.1,0-0.1,0-0.2c0.1,0,0.2,0,0.2,0
		c0,0.1,0.1,0.1,0.2,0.1l0.5,0.2c0.9,0.3,1.7,0.7,2.7,0.9c0.4,0.1,0.8,0.1,1.3,0.2c0.2,0,0.5,0,0.7,0.1c0.4,0.1,0.8,0.2,1.1,0.4
		c0.2,0.1,0.4,0.2,0.7,0.3c0.8,0.2,1.5,0.3,2.4,0.3c0,0,0.1,0,0.2,0c0.1,0,0.2,0,0.2,0.1c0,0,0.1,0,0.1,0c0.1,0,0.2,0,0.2,0
		c0.2,0,0.4,0,0.6,0.1c0.1,0,0.2,0,0.3,0c0.1,0,0.3,0,0.4,0c1.1,0.3,2.1,0.8,3.1,1.2c0,0,0,0,0.1,0c0.6,0.1,1.2,0.3,1.9,0.4
		c0.1,0,0.1,0.1,0.1,0.2C87.4,90.4,87.4,90.5,87.3,90.5z"/>
	<path class="st0" d="M83.6,87.6C83.6,87.6,83.6,87.6,83.6,87.6c-0.2-0.1-0.2-0.1-0.3-0.2c-0.1-0.1-0.2-0.1-0.3-0.2
		c-0.2-0.1-0.4-0.2-0.6-0.2c-0.7-0.3-1.4-0.5-2.1-1c-0.5-0.3-0.8-0.7-1.2-1c-1.2-1.2-2.5-2.2-3.9-2.8c-0.2-0.1-0.4-0.2-0.5-0.3
		c-0.2-0.2-0.5-0.2-0.8-0.3c-0.2,0-0.4-0.1-0.6-0.2c-0.1,0-0.2-0.1-0.3-0.2c0,0-0.1,0-0.1-0.1c-0.1,0-0.1-0.1,0-0.2
		c0-0.1,0.1-0.1,0.2,0c0,0,0.1,0.1,0.1,0.1c0.1,0.1,0.2,0.1,0.2,0.1c0.2,0.1,0.4,0.1,0.6,0.2c0.3,0.1,0.6,0.1,0.9,0.3
		c0.2,0.1,0.3,0.2,0.5,0.3c1.5,0.7,2.8,1.7,4,2.9c0.4,0.4,0.7,0.7,1.1,1c0.7,0.4,1.3,0.7,2,1c0.2,0.1,0.4,0.2,0.6,0.2
		c0.1,0.1,0.2,0.1,0.3,0.2c0.1,0.1,0.1,0.1,0.2,0.2c0.1,0,0.1,0.1,0.1,0.2C83.7,87.6,83.7,87.6,83.6,87.6z"/>
	<path class="st0" d="M93.2,88.3C93.2,88.3,93.2,88.3,93.2,88.3c-0.2,0-0.4-0.1-0.6-0.2c-0.2-0.1-0.5-0.2-0.7-0.2l-0.1-0.1l0-0.1
		c-0.3-0.2-0.5-0.3-0.8-0.4c-0.2-0.1-0.3-0.1-0.5-0.2c-0.5-0.2-1-0.2-1.5-0.3c-0.2,0-0.5,0-0.8-0.1c-0.3,0-0.6-0.1-0.9-0.2
		c-0.1,0-0.2-0.1-0.2-0.1c-0.4-0.1-0.8-0.2-1.2-0.1l0,0c-0.1,0-0.2,0-0.3,0c-0.2,0-0.4,0-0.6,0c-0.3,0-0.7-0.1-1-0.2l-0.2,0
		c-0.3-0.1-0.6-0.3-0.8-0.4c-0.2-0.1-0.4-0.3-0.5-0.4c-0.1-0.1-0.3-0.3-0.4-0.4c-0.4-0.3-0.9-0.5-1.3-0.7c-0.2-0.1-0.4-0.2-0.6-0.2
		c-0.5-0.2-1-0.1-1.6,0c-0.1,0-0.3,0-0.4,0.1c0,0,0,0,0,0c-0.1,0-0.1,0-0.1-0.1c0-0.1,0-0.1,0.1-0.1c0.1,0,0.3,0,0.4-0.1
		c0.6-0.1,1.2-0.2,1.7,0.1c0.2,0.1,0.4,0.2,0.6,0.2c0.5,0.2,1,0.4,1.4,0.7c0.2,0.1,0.3,0.3,0.5,0.4c0.2,0.2,0.3,0.3,0.5,0.4
		c0.2,0.1,0.4,0.3,0.7,0.4l0.2,0c0.3,0.1,0.6,0.2,0.9,0.2c0.2,0,0.5,0,0.7,0c0.1,0,0.2,0,0.3,0l0,0c0.5-0.1,0.9,0,1.2,0.2
		c0.1,0,0.2,0.1,0.3,0.1c0.3,0.1,0.5,0.2,0.8,0.2c0.2,0,0.5,0,0.7,0.1c0.5,0,1.1,0,1.6,0.3c0.2,0.1,0.3,0.1,0.5,0.2
		c0.3,0.1,0.7,0.3,1,0.5c0,0,0.1,0.1,0.1,0.1c0.2,0,0.4,0.1,0.6,0.2c0.2,0.1,0.4,0.1,0.6,0.2c0.1,0,0.1,0.1,0.1,0.2
		C93.3,88.3,93.3,88.3,93.2,88.3z"/>
	<path class="st0" d="M133.6,74.7c-0.1,0-0.1,0-0.1-0.1c0-0.1,0-0.1,0.1-0.2c0.3-0.1,0.5-0.3,0.7-0.5c0.1-0.1,0.2-0.2,0.4-0.3
		c0.6-0.4,1.1-0.8,1.7-1.3c0.6-0.5,1.2-1,1.8-1.4c0.2-0.1,0.7-0.1,0.9,0.1c0.1,0,0.1,0.1,0,0.2c0,0.1-0.1,0.1-0.2,0
		c-0.2-0.2-0.6-0.1-0.6-0.1c-0.7,0.4-1.2,0.9-1.8,1.4c-0.5,0.4-1.1,0.9-1.7,1.3c-0.1,0.1-0.2,0.2-0.3,0.3
		C134.3,74.4,134,74.6,133.6,74.7C133.6,74.7,133.6,74.7,133.6,74.7z"/>
	<path class="st0" d="M128.9,71l-0.1-0.1l0,0l-0.1,0c0-0.1,0-0.1,0.7-0.5c0.4-0.2,0.9-0.5,1.2-0.6c0.2-0.1,0.3-0.3,0.5-0.5
		c0.1-0.2,0.2-0.4,0.4-0.5c0.4-0.3,0.9-0.7,1.4-0.9c0.2-0.1,0.4-0.1,0.7-0.2c0.4-0.1,0.7-0.2,1.1-0.4c0.4-0.3,0.6-0.5,0.9-0.5
		c0.5-0.2,1.8-0.4,2.1-0.3c1.3,0.3,4.2,1.5,4.6,1.8c0.1,0,0.1,0.1,0,0.2c0,0.1-0.1,0.1-0.2,0c-0.4-0.3-3.1-1.4-4.5-1.8
		c-0.3-0.1-1.5,0.1-2,0.3c-0.2,0.1-0.5,0.2-0.8,0.5c-0.4,0.3-0.8,0.4-1.2,0.5c-0.2,0-0.4,0.1-0.6,0.2c-0.5,0.2-1,0.5-1.3,0.9
		c-0.1,0.1-0.2,0.3-0.4,0.4c-0.2,0.2-0.3,0.5-0.6,0.6c-0.3,0.2-0.8,0.4-1.2,0.6C129.3,70.8,129,71,128.9,71z"/>
	<path class="st0" d="M125.1,71c0,0-0.1,0-0.1-0.1c0-0.1,0-0.1,0-0.2l0.1-0.1c0.2-0.1,0.4-0.3,0.6-0.4c0.1,0,0.2-0.1,0.3-0.2
		c0.1-0.1,0.2-0.1,0.3-0.2c0.5-0.3,1.1-0.4,1.6-0.6c0.5-0.1,0.9-0.2,1.4-0.5c0.5-0.2,0.9-0.1,1.4,0c0.3,0.1,0.5,0.1,0.8,0.1
		c0,0,0,0,0,0c0.1,0,0.1,0.1,0.1,0.1c0,0.1-0.1,0.1-0.1,0.1c0,0,0,0,0,0c-0.3,0-0.6-0.1-0.9-0.2c-0.4-0.1-0.8-0.2-1.2,0
		c-0.5,0.2-0.9,0.4-1.4,0.5c-0.5,0.1-1,0.3-1.5,0.6c-0.1,0-0.2,0.1-0.2,0.2c-0.1,0.1-0.3,0.2-0.4,0.3c-0.2,0.1-0.4,0.2-0.6,0.3
		L125.1,71C125.1,71,125.1,71,125.1,71z"/>
	<path class="st0" d="M73.6,99.7c0,0-0.1,0-0.1-0.1c0-0.1,0-0.2,0-0.2c0.3-0.3,0.5-0.6,0.6-0.9c0.2-0.4,0.4-0.8,0.9-1.1l0.1-0.1
		c0.6-0.4,1.2-0.8,1.9-1c1.1-0.3,4.5-2.4,5.2-2.8c0.6-0.4,1.1-0.6,1.6-0.9c0.4-0.2,0.9-0.4,1.3-0.7c0.6-0.4,1.2-0.6,1.8-0.8
		c0.4-0.1,0.9-0.3,1.3-0.5c0.6-0.3,1.2-0.7,1.7-1.1c0.5-0.4,1-0.7,1.6-1c0.7-0.4,1.5-0.6,2.2-0.8c0.8-0.3,1.6-0.7,2.3-1.2
		c0.3-0.2,0.6-0.4,1-0.6c0.3-0.2,0.6-0.3,0.8-0.5c0.5-0.3,1-0.6,1.5-0.8l0.1,0c0.3-0.1,0.6-0.3,1-0.3c0,0,0,0,0,0
		c0.1,0,0.1,0.1,0.1,0.1c0,0.1,0,0.2-0.1,0.2c-0.3,0.1-0.6,0.2-0.9,0.3l-0.1,0c-0.5,0.2-1,0.5-1.5,0.8c-0.3,0.2-0.5,0.3-0.8,0.5
		c-0.3,0.2-0.6,0.4-1,0.6c-0.7,0.4-1.5,0.9-2.4,1.2c-0.7,0.2-1.5,0.5-2.2,0.8c-0.6,0.3-1.1,0.6-1.6,1c-0.6,0.4-1.1,0.8-1.8,1.1
		c-0.4,0.2-0.9,0.4-1.3,0.5c-0.6,0.2-1.2,0.4-1.8,0.7c-0.4,0.3-0.9,0.5-1.3,0.7c-0.5,0.3-1.1,0.6-1.6,0.9c-0.7,0.4-4.1,2.5-5.3,2.9
		c-0.7,0.2-1.2,0.6-1.8,1l-0.1,0.1c-0.4,0.3-0.6,0.6-0.8,1C74.3,99.1,74.1,99.4,73.6,99.7C73.7,99.7,73.6,99.7,73.6,99.7z"/>
	<path class="st0" d="M110.3,90.3c-0.1,0-0.1,0-0.1-0.1c0-0.1,0-0.1,0.1-0.1c0.4-0.1,0.7-0.3,0.9-0.6l0.1-0.1
		c0.6-0.7,2.5-1.5,3.9-2.1l0.2-0.1c0.2-0.1,0.3-0.1,0.5-0.2c0.7-0.3,1.4-0.6,2-1c0.7-0.4,1.2-1.1,1.7-1.8l0.1-0.1
		c0.6-0.8,1.5-1,2.4-1.2l0.1,0c0.1,0,0.3-0.1,0.4-0.2c0.1,0,0.1,0,0.2,0c0,0.1,0,0.1,0,0.2c-0.1,0.1-0.3,0.2-0.5,0.2l-0.1,0
		c-0.9,0.2-1.7,0.4-2.3,1.1l-0.1,0.1c-0.5,0.7-1,1.4-1.8,1.9c-0.7,0.4-1.4,0.7-2,1c-0.2,0.1-0.3,0.1-0.5,0.2l-0.2,0.1
		c-0.8,0.3-3.1,1.3-3.8,2.1l-0.1,0.1C111.1,89.9,110.8,90.2,110.3,90.3C110.3,90.3,110.3,90.3,110.3,90.3z"/>
	<path class="st0" d="M90.5,99.5c0,0-0.1,0-0.1-0.1c0-0.1,0-0.1,0.1-0.2c0.4-0.2,0.6-0.5,0.9-0.8c0.3-0.3,0.7-0.7,1.1-0.9
		c0.7-0.3,1.3-0.8,1.8-1.3c0.5-0.4,0.9-0.8,1.5-1.1c0.4-0.2,0.8-0.3,1.2-0.5c0.6-0.2,1.2-0.3,1.7-0.8c0.6-0.7,1.5-0.5,2.3-0.4
		c0.2,0,0.5,0.1,0.8,0.1c0.1,0,0.1,0.1,0.1,0.1c0,0.1-0.1,0.1-0.1,0.1c0,0,0,0,0,0c-0.3,0-0.5-0.1-0.8-0.1c-0.8-0.1-1.5-0.2-2.1,0.3
		c-0.5,0.5-1.2,0.7-1.8,0.9c-0.4,0.1-0.8,0.2-1.1,0.4c-0.5,0.3-1,0.7-1.4,1.1c-0.6,0.5-1.2,1-1.9,1.3c-0.4,0.2-0.7,0.5-1,0.8
		C91.3,98.9,91,99.2,90.5,99.5C90.6,99.5,90.6,99.5,90.5,99.5z"/>
	<path class="st0" d="M118.9,93.2l-0.2-0.1V93c0-0.1,0.1-0.2,0.2-0.1c0.1,0,0.1-0.1,0.2-0.1c0.2-0.1,0.5-0.3,0.8-0.3
		c0.2,0,0.4-0.2,0.5-0.4c0.2-0.2,0.3-0.3,0.5-0.4c0.2-0.1,0.3-0.1,0.5-0.1c0.2,0,0.5-0.1,0.6-0.2c0.8-0.5,1.5-0.7,2.3-0.6
		c0.1,0,0.1,0.1,0.1,0.1c0,0.1-0.1,0.1-0.1,0.1c0,0,0,0,0,0c-0.1,0-0.3,0-0.4,0c-0.6,0-1.1,0.2-1.7,0.5c-0.2,0.1-0.5,0.2-0.7,0.2
		c-0.2,0-0.3,0.1-0.4,0.1c-0.2,0.1-0.3,0.2-0.4,0.3c-0.2,0.2-0.4,0.4-0.7,0.4c-0.3,0-0.5,0.2-0.8,0.3
		C119.2,93.1,119,93.1,118.9,93.2z"/>
	<path class="st0" d="M111.9,100.9c0,0-0.1,0-0.1-0.1c0-0.1,0-0.1,0-0.2c0.2-0.1,0.3-0.3,0.4-0.4c0.2-0.2,0.4-0.4,0.6-0.6
		c0.9-0.4,1.6-1,2.3-1.6c0.5-0.5,1.1-1,1.7-1.3c0.3-0.2,1-0.5,1.5-0.7c0.4-0.2,0.7-0.3,0.8-0.4c0.5-0.3,1.1-0.6,1.8-0.7
		c0.3-0.1,0.5-0.1,0.8-0.2c0.6-0.1,1.1-0.2,1.6-0.4c0.3-0.1,0.5-0.3,0.7-0.5c0.3-0.3,0.7-0.5,1.1-0.6c0.4-0.1,0.7-0.1,1-0.2
		c0.4-0.1,0.9-0.1,1.3-0.3c0.3-0.1,0.6,0,0.9,0c0.5,0.1,0.9,0.1,1.1-0.3c0-0.1,0.1-0.1,0.2-0.1c0.1,0,0.1,0.1,0.1,0.2
		c-0.3,0.6-0.9,0.5-1.4,0.4c-0.3,0-0.5-0.1-0.8,0c-0.5,0.1-0.9,0.2-1.3,0.3c-0.3,0.1-0.7,0.1-1,0.2c-0.4,0.1-0.7,0.3-1,0.6
		c-0.2,0.2-0.5,0.4-0.8,0.5c-0.5,0.2-1.1,0.3-1.7,0.5c-0.3,0.1-0.5,0.1-0.8,0.2c-0.7,0.2-1.2,0.4-1.7,0.7c-0.1,0.1-0.4,0.2-0.8,0.4
		c-0.5,0.2-1.2,0.6-1.5,0.7c-0.6,0.4-1.2,0.8-1.7,1.3c-0.7,0.6-1.4,1.3-2.4,1.7c-0.2,0.1-0.4,0.3-0.5,0.5
		C112.3,100.6,112.2,100.7,111.9,100.9C112,100.9,111.9,100.9,111.9,100.9z"/>
	<path class="st0" d="M112.6,101.1c-0.2,0-0.3,0-0.5-0.1c-0.1,0-0.1,0-0.2,0c-0.1,0-0.1-0.1-0.1-0.2c0-0.1,0.1-0.2,0.2-0.1
		c0.1,0,0.1,0,0.2,0c0.2,0,0.4,0.1,0.5,0.1c0.9-0.1,1.7-0.1,2.5-0.1c0.7,0,1.4,0,2.1,0c0,0,0,0,0,0c0.1,0,0.2,0.1,0.2,0.2
		s-0.1,0.2-0.2,0.2c-0.7,0.1-1.4,0.1-2.1,0c-0.8,0-1.6,0-2.5,0.1C112.7,101.1,112.6,101.1,112.6,101.1z"/>
	<path class="st0" d="M117.2,101.2L117.2,101.2c-0.1,0-0.2,0-0.3-0.1c0-0.1,0.1-0.2,0.1-0.2c0,0,0.1,0,0.1-0.1c0,0,0,0,0,0.1
		l0.1-0.2c0.1,0,0.1-0.1,0.2-0.2c0.1-0.1,0.1-0.2,0.3-0.3c0.4-0.3,1.3-0.9,1.8-1.3c0.2-0.1,0.3-0.2,0.4-0.3l0.1,0
		c0.5-0.4,0.9-0.7,1.4-1c0.4-0.3,0.8-0.2,1.2-0.2c0.2,0,0.5,0.1,0.7,0c0.2,0,0.5-0.2,0.9-0.3c0.7-0.3,1.3-0.5,1.6-0.5c0,0,0,0,0.1,0
		c0.1,0,0.1,0.1,0.1,0.1c0,0.1-0.1,0.1-0.1,0.1c0,0,0,0-0.1,0c-0.3,0-1,0.3-1.5,0.5c-0.4,0.2-0.8,0.3-1,0.3c-0.3,0-0.5,0-0.8,0
		c-0.4,0-0.7-0.1-1,0.1c-0.5,0.4-0.9,0.7-1.4,1.1l-0.1,0c-0.1,0-0.2,0.1-0.4,0.3c-0.5,0.4-1.4,1.1-1.8,1.4c-0.1,0-0.1,0.1-0.2,0.2
		c-0.1,0.1-0.1,0.2-0.3,0.3l0,0c0,0,0,0.1-0.1,0.1c0,0,0,0,0,0.1C117.4,101.1,117.3,101.2,117.2,101.2z"/>
	<path class="st0" d="M118.8,101.2c-0.5,0-1.1,0-1.6,0c-0.1,0-0.2-0.1-0.2-0.2c0-0.1,0.1-0.2,0.2-0.2h0c1.8,0.1,3.5,0,5.3-0.1l1.1,0
		h0c0.1,0,0.2,0.1,0.2,0.2s-0.1,0.2-0.2,0.2l-1.1,0C121.3,101.2,120.1,101.2,118.8,101.2z"/>
	<path class="st9" d="M123.8,101.3"/>
	<path class="st0" d="M119.4,112.8c-0.1,0-0.2-0.1-0.3-0.2c0-0.5,0.3-0.8,0.5-1c0.1-0.1,0.2-0.2,0.3-0.3c0,0,0-0.1,0-0.2
		c0-0.2,0-0.5,0.3-0.7c2.3-1.7,3.7-3.8,5-6c0.2-0.3,0.5-0.6,0.8-0.8c0.3-0.2,0.5-0.4,0.6-0.6c0.5-0.8,0.8-1.4,1.1-2
		c0.3-0.6,0.7-1.2,1.2-1.6c0.4-0.3,0.6-0.6,0.9-1c0.2-0.2,0.3-0.4,0.5-0.6c0.1-0.1,0.6-0.9,0.7-1.1c0.1-0.3,0.1-0.6,0.1-1
		c0-0.4,0.1-0.9,0.2-1.3c0.4-1.1,1.2-1.9,1.9-2.7c0.4-0.5,0.9-1,1.3-1.6c0.2-0.3,0.4-0.6,0.5-0.7l0.4-0.4c0.7-0.7,1.3-1.3,1.9-2.1
		c0.2-0.3,0.3-0.6,0.4-1c0.1-0.3,0.1-0.6,0.3-0.9l0.1-0.1c0.1-0.3,0.3-0.5,0.4-0.8c0.1-0.2,0.1-0.4,0.1-0.6c0-0.3,0-0.6,0.2-0.8
		c0-0.1,0.1-0.2,0.1-0.3c0.1-0.1,0.1-0.3,0.2-0.4c0-0.1,0.1-0.3,0.1-0.4c0-0.3,0.1-0.6,0.3-0.9c0.1-0.2,0.1-0.4,0.1-0.6
		c0-0.2,0-0.4,0-0.6c0,0,0-0.1,0-0.1c0-0.1,0.1-0.3,0.2-0.5c0.2-0.3,0.4-0.4,0.6-0.6c0.1-0.1,0.2-0.2,0.3-0.3
		c0.1-0.1,0.3-0.3,0.4-0.4c0.4-0.4,0.9-0.9,1.5-1.2c0.1-0.1,0.3-0.1,0.4-0.1c0.1,0,0.2,0,0.2-0.1c0.1-0.1,0.1-0.1,0.2-0.2
		c0,0,0.1,0,0.1-0.1c0.1-0.1,0.3-0.1,0.4,0c0.1,0.1,0.1,0.3,0,0.4c0,0-0.1,0.1-0.1,0.1c0,0-0.1,0.1-0.1,0.1
		c-0.1,0.1-0.3,0.2-0.5,0.2c-0.1,0-0.2,0-0.2,0.1c-0.5,0.3-0.9,0.7-1.4,1.2c-0.1,0.1-0.3,0.3-0.4,0.4c-0.1,0.1-0.3,0.2-0.4,0.3
		c-0.2,0.1-0.4,0.2-0.5,0.4c-0.1,0.1-0.1,0.2-0.1,0.3c0,0,0,0.1,0,0.1c0,0.1,0,0.3,0,0.5c0,0.3,0,0.6-0.2,0.9
		c-0.1,0.2-0.2,0.4-0.2,0.7c0,0.2,0,0.3-0.1,0.5c0,0.1-0.1,0.3-0.2,0.5c0,0.1-0.1,0.2-0.1,0.3c-0.1,0.2-0.1,0.4-0.1,0.7
		c0,0.2,0,0.5-0.1,0.7c-0.1,0.3-0.3,0.6-0.4,0.9l-0.1,0.1c-0.1,0.2-0.2,0.5-0.3,0.8c-0.1,0.4-0.2,0.8-0.5,1.1
		c-0.6,0.8-1.3,1.4-2,2.1l-0.4,0.4c-0.1,0.1-0.3,0.3-0.5,0.6c-0.4,0.6-0.9,1.2-1.3,1.7c-0.7,0.8-1.4,1.6-1.8,2.6
		c-0.1,0.4-0.2,0.7-0.2,1.2c0,0.3-0.1,0.7-0.1,1c-0.1,0.4-0.7,1.3-0.8,1.3c-0.2,0.2-0.3,0.4-0.4,0.6c-0.3,0.4-0.6,0.8-1,1.1
		c-0.4,0.4-0.8,0.8-1.1,1.4c-0.3,0.7-0.6,1.3-1.1,2.1c-0.2,0.3-0.5,0.5-0.8,0.8c-0.3,0.2-0.5,0.4-0.7,0.6c-1.3,2.1-2.8,4.4-5.1,6.1
		c-0.1,0-0.1,0.1-0.1,0.3c0,0.2,0,0.3-0.1,0.5c-0.1,0.1-0.2,0.3-0.3,0.4c-0.2,0.3-0.4,0.4-0.4,0.7
		C119.7,112.7,119.6,112.8,119.4,112.8L119.4,112.8z"/>
	<g>
		<path class="st0" d="M139.6,89.5l-0.3,0v-0.1c0,0,0-0.1,0.1-0.1c0-0.1,0.1-0.2,0.2-0.4c0.1-0.2,0.2-0.4,0.2-0.5
			c0.1-0.5,0.3-1.3,0.5-2.1c0.2-0.8,0.3-1.3,0.3-1.5c0.2-0.6,0.5-1.1,1.1-1.8c0.2-0.3,0.2-0.7,0.2-1.1c0-0.4,0-0.8,0.1-1.2l0,0
			c0,0,0-0.1,0-0.2c0.1-0.6,0.2-2.1,0.5-2.8c0-0.1,0-0.2,0-0.3c0-0.2,0-0.4,0.2-0.6c0.1-0.1,0.2,0,0.2,0c0.1,0.1,0,0.2,0,0.2
			c-0.1,0.1-0.1,0.1-0.1,0.3c0,0.1,0,0.3-0.1,0.4c-0.3,0.6-0.5,2.1-0.5,2.7c0,0.3,0,0.3,0,0.4c-0.2,0.3-0.1,0.6-0.1,1
			c0,0.5,0.1,0.9-0.3,1.3c-0.5,0.6-0.8,1.1-1,1.7c0,0.1-0.2,0.8-0.3,1.4c-0.2,0.8-0.4,1.6-0.5,2.1c0,0.1-0.1,0.3-0.2,0.5
			C139.7,89.2,139.6,89.4,139.6,89.5z"/>
	</g>
	<path class="st0" d="M138,96l-0.3-0.1v-0.1c0-0.1,0-0.1,0.1-0.1c0,0,0-0.1,0-0.1c0.2-0.6,0.7-2,1.1-2.6c0.2-0.3,0.5-0.5,0.8-0.7
		c0.3-0.2,0.6-0.4,0.7-0.7c0.2-0.4,0.7-1.3,1.2-2.2c0.5-0.8,1-1.8,1.1-1.9c0-0.1,0.1-0.2,0.2-0.2c0.1,0,0.2,0.1,0.2,0.2
		c0,0.1-0.2,0.5-1.1,2.1c-0.5,0.9-1,1.8-1.2,2.1c-0.2,0.4-0.5,0.6-0.9,0.9c-0.3,0.2-0.5,0.4-0.7,0.6c-0.4,0.6-0.9,1.9-1.1,2.5
		C138.1,95.8,138.1,95.9,138,96z"/>
	<path class="st0" d="M125.6,111.5C125.5,111.5,125.5,111.5,125.6,111.5l0-0.2l-0.2,0c0-0.1,0.3-1.5,0.4-2.2c0-0.2,0.4-0.7,1.1-1.7
		c0.4-0.5,0.7-1,0.8-1.1c0.2-0.4,0.6-0.8,1-1.1c0.4-0.3,0.8-0.7,0.9-1.1c0.2-0.7,0.6-1.2,1-1.7c0.1-0.2,0.3-0.4,0.4-0.6
		c0.1-0.1,0.3-0.6,0.4-1.1c0.5-1.4,0.8-2,1-2.2c0.1,0,0.2,0,0.2,0c0.1,0.1,0,0.2,0,0.2c-0.2,0.1-0.6,1.4-0.9,2
		c-0.2,0.6-0.4,1-0.5,1.1c-0.1,0.2-0.3,0.4-0.4,0.6c-0.4,0.5-0.7,1-1,1.6c-0.2,0.5-0.6,0.9-1,1.3c-0.3,0.3-0.7,0.6-0.9,1
		c-0.1,0.2-0.5,0.7-0.9,1.2c-0.4,0.5-1,1.3-1.1,1.5C125.7,111.4,125.7,111.5,125.6,111.5z"/>
	<path class="st0" d="M122.1,111.1l-0.3,0v-0.1c0-0.1,0-0.1,0.1-0.1c0.1-0.3,0.4-0.5,0.6-0.7c0.4-0.3,0.6-0.5,0.5-0.8
		c0-0.1,0-0.2,0.1-0.2c0,0,0,0,0,0c0.1,0,0.2,0.1,0.2,0.1c0.1,0.6-0.3,0.9-0.6,1.2C122.4,110.6,122.2,110.8,122.1,111.1z"/>
	<path class="st0" d="M128.9,111.9C128.9,111.9,128.8,111.9,128.9,111.9c-0.1,0-0.2-0.1-0.2-0.2c0.1-0.4,0.8-1.8,1-2.1
		c0.1-0.1,0.2-0.1,0.2,0c0.1,0,0.1,0.2,0,0.2c-0.2,0.3-0.8,1.6-1,2C129,111.9,128.9,111.9,128.9,111.9z"/>
	<path class="st0" d="M131.2,114.4c-0.1,0-0.2-0.1-0.2-0.2c-0.1-0.5,0-0.8,0.1-1.1c0.1-0.2,0.1-0.3,0.2-0.5c0-0.2,0-0.4,0-0.6
		c0-0.4-0.1-0.7,0.1-1.1c0.7-1.5,1.1-3.1,1.2-5.1l0-0.1c0.3-0.4,0.6-0.9,0.9-1.3c0.7-1,1.3-2,2.1-3c0.2-0.2,0.3-0.3,0.5-0.5
		c0.3-0.2,0.5-0.4,0.6-0.7c0-0.1,0-0.2,0-0.3c0-0.2,0-0.5,0.2-0.7c0.3-0.6,0.8-1.5,1.7-2c0.5-0.3,1-0.4,1.6-0.5l0.2,0
		c0.1,0,0.3,0.1,0.3,0.2c0,0.1-0.1,0.3-0.2,0.3l-0.2,0c-0.5,0.1-1,0.2-1.4,0.4c-0.7,0.4-1.2,1.2-1.5,1.8c-0.1,0.1-0.1,0.3-0.1,0.5
		c0,0.1,0,0.3,0,0.4c-0.1,0.5-0.4,0.7-0.7,1c-0.2,0.1-0.3,0.2-0.4,0.4c-0.8,1-1.4,2-2.1,2.9c-0.3,0.4-0.6,0.8-0.9,1.3
		c-0.1,2.1-0.5,3.7-1.2,5.2c-0.1,0.2-0.1,0.5-0.1,0.8c0,0.2,0,0.5,0,0.8c0,0.2-0.1,0.4-0.2,0.6c-0.1,0.3-0.2,0.5-0.1,0.8
		C131.4,114.2,131.4,114.3,131.2,114.4C131.2,114.4,131.2,114.4,131.2,114.4z"/>
	<path class="st0" d="M134.9,110.9l-0.3,0v-0.1c0,0,0,0,0-0.1c0.1-1,0.9-2.9,1-3.1c0.3-0.6,0.3-1,0.4-1.5c0-0.3,0.1-0.6,0.2-1
		c0.1-0.2,0.1-0.5,0.1-0.8c0-0.5,0.1-1.1,0.3-1.5c0.2-0.4,0.5-0.8,0.4-1.4c0-0.1,0.1-0.2,0.2-0.2c0.1,0,0.2,0.1,0.2,0.2
		c0,0.6-0.2,1.1-0.5,1.5c-0.2,0.4-0.2,0.9-0.3,1.4c0,0.3,0,0.6-0.1,0.9c-0.1,0.4-0.1,0.7-0.2,1c-0.1,0.5-0.1,1-0.4,1.6
		C135.7,108.1,134.9,110.1,134.9,110.9z"/>
	<path class="st0" d="M133.9,114.8c-0.1,0-0.2-0.1-0.2-0.2c0-0.1,0-0.1,0.1-0.2v0c0-0.1,0-0.1,0-0.2c0.2-0.4,0.4-0.7,0.3-1.1
		c0-0.1,0-0.2,0.1-0.2c0.1,0,0.2,0,0.2,0.1c0.1,0.5-0.1,0.9-0.4,1.4l0,0c0,0,0,0,0,0C134.2,114.7,134.1,114.8,133.9,114.8z"/>
	<path class="st0" d="M139.7,104.9l-0.3-0.1v-0.1c0-0.1,0-0.1,0.1-0.1c0.1-0.4,0.3-1.6,0.4-2.4c0.1-0.7,0.2-1.3,0.3-1.8
		c0.1-0.3,0.3-0.5,0.4-0.7c0.2-0.2,0.3-0.3,0.4-0.6c0-0.1,0.1-0.2,0.2-0.1c0.1,0,0.2,0.1,0.1,0.2c0,0.3-0.3,0.6-0.5,0.8
		c-0.2,0.2-0.3,0.3-0.4,0.5c-0.1,0.5-0.2,1.1-0.3,1.8C139.9,104,139.8,104.8,139.7,104.9z"/>
	<path class="st0" d="M121.6,113.4c-0.1,0-0.2,0-0.3,0c-0.2,0-0.3,0-0.5-0.1c-0.3,0-0.5-0.1-0.8-0.1c0,0-0.1,0-0.1,0
		c-0.1,0-0.2,0-0.4,0c0,0-0.1,0-0.1,0c-0.2,0-0.5,0-0.5-0.3c-0.1-0.2,0.1-0.4,0.4-0.6c0.1-0.1,0.3-0.1,0.4,0c0.1,0.1,0.1,0.3,0,0.4
		c0,0,0,0,0,0c0.1,0,0.1,0,0.2,0c0,0,0,0,0.1,0c0.1,0,0.1,0,0.2,0c0.3,0,0.6,0,0.9,0.1c0.2,0,0.3,0,0.5,0c0.2,0,0.5,0,0.8,0
		c0.1,0,0.3,0,0.4,0h0.1c0.1,0,0.3,0,0.4,0c0.4-0.1,0.8-0.1,1.1-0.1c0.3,0,0.5,0,0.8-0.1c0.3,0,0.5-0.1,0.8-0.1c0.4,0,0.7,0,1,0
		c0.4,0,0.8,0,1.2,0c0.4-0.1,0.8-0.1,1.1-0.1c0.1,0,0.1,0,0.2,0.1c0,0,0.1,0,0.1,0c0.5,0,0.9,0.1,1.3,0c0,0,0.1,0,0.1,0
		c0.1,0,0.1,0,0.2-0.1c0.1,0,0.1-0.1,0.2-0.1c0.1,0,0.3,0.1,0.3,0.2c0,0.1-0.1,0.3-0.2,0.3c-0.1,0-0.1,0-0.2,0.1s-0.1,0-0.1,0
		c-0.1,0-0.1,0-0.2,0.1c-0.4,0-0.8,0-1.3,0c-0.1,0-0.2,0-0.2-0.1c0,0,0,0,0,0c0,0,0,0,0,0l0,0c0,0,0,0,0,0l0,0l-0.1-0.2h-0.2
		c0,0,0,0.1,0.1,0.1c-0.2,0-0.5,0-0.9,0.1c-0.4,0.1-0.9,0.1-1.3,0.1c-0.3,0-0.6,0-0.9,0c-0.3,0-0.5,0.1-0.8,0.1
		c-0.3,0-0.6,0.1-0.9,0.1c-0.4,0-0.7,0-1.1,0.1c-0.2,0-0.4,0-0.5,0l-0.1,0c-0.1,0-0.2,0-0.4,0C122,113.4,121.8,113.4,121.6,113.4z"
		/>
	<path class="st0" d="M131.1,115c-0.2,0-0.3,0.1-0.5-0.2l0,0c0,0,0,0,0,0l-0.1-0.2c0-0.1,0-0.2,0.1-0.3c0.1-0.1,0.2-0.3,0.4-0.4
		c0-0.1,0.1-0.1,0.2-0.2c0,0,0,0,0,0c0.1,0,0.2,0.1,0.2,0.2c0,0.1,0,0.3-0.2,0.3c-0.1,0-0.1,0.1-0.1,0.1c0.4,0,0.8,0,1.2,0l0.5,0
		c0.1,0,0.2-0.1,0.3-0.1l0.2,0c0.2,0,0.5,0,0.7,0c0.1,0,0.1,0,0.2,0c0.1,0,0.2,0,0.2,0c0.2,0,0.4,0,0.6-0.1c0,0,0.1,0,0.1-0.1
		c0.1,0,0.2-0.1,0.3-0.1l0.1,0c0.2-0.1,0.4-0.1,0.7-0.1c0.2,0,0.3,0,0.5,0c0.1,0,0.2,0,0.3,0c0.1,0,0.2,0.1,0.2,0.3
		c0,0.1-0.1,0.2-0.2,0.2c0,0,0,0,0,0c-0.1,0-0.2,0-0.3,0c-0.2,0-0.4,0-0.6-0.1c-0.1,0-0.3,0-0.4,0l-0.1,0c0,0-0.1,0-0.1,0.1
		c-0.1,0.1-0.2,0.1-0.3,0.2c-0.3,0-0.6,0.1-0.9,0.1c-0.1,0-0.1,0-0.2,0c0,0-0.1,0-0.1,0c-0.2,0-0.4,0-0.6,0l-0.2,0
		c-0.1,0-0.2,0.1-0.3,0.1l-0.4,0C131.9,115,131.5,115,131.1,115z M131,114.7C131,114.7,131,114.7,131,114.7
		C131,114.7,131,114.7,131,114.7z M130.9,114.2L130.9,114.2L130.9,114.2z M131,114C131,114,131,114,131,114C131,114,131,114,131,114
		z"/>
	<path class="st0" d="M62.2,99.3C62.2,99.3,62.2,99.3,62.2,99.3c-8.2-1.9-16.1-2.7-22.7-2.2c0,0,0,0,0,0c-0.1,0-0.2-0.1-0.2-0.2
		c0-0.1,0.1-0.2,0.1-0.2c6.7-0.5,14.6,0.3,22.8,2.2c0.1,0,0.1,0.1,0.1,0.2C62.4,99.2,62.3,99.3,62.2,99.3z"/>
	<path class="st0" d="M130.5,123.3C130.5,123.3,130.5,123.3,130.5,123.3c-14.5-1.5-27-6.7-42.5-14.5c-6-3.1-12.4-5.6-19.1-7.6
		c-0.1,0-0.2-0.1-0.1-0.2c0-0.1,0.1-0.1,0.2-0.1c6.7,2,13.2,4.6,19.2,7.7c15.4,7.9,27.9,13,42.3,14.5c0.1,0,0.2,0.1,0.2,0.2
		C130.7,123.2,130.6,123.3,130.5,123.3z"/>
	<path class="st0" d="M62.3,106.2C62.2,106.2,62.2,106.2,62.3,106.2c-6.7-2.8-12.8-4.2-17.4-4.2c-0.6,0-1.2,0-1.7,0.1c0,0,0,0,0,0
		c-0.1,0-0.2-0.1-0.2-0.2c0-0.1,0.1-0.2,0.2-0.2c4.8-0.4,11.6,1,19.2,4.2c0.1,0,0.1,0.1,0.1,0.2C62.4,106.2,62.3,106.2,62.3,106.2z"
		/>
	<path class="st0" d="M111.8,138.3C111.8,138.3,111.7,138.3,111.8,138.3c-1.1-0.6-2.1-1.1-3.1-1.6c-6.5-3.3-11.1-5.8-25.6-17.5
		c-5-4.1-9.9-7.4-14.3-9.8c-0.1,0-0.1-0.2-0.1-0.3c0-0.1,0.2-0.1,0.3-0.1c4.4,2.4,9.3,5.7,14.3,9.9c14.4,11.7,19.1,14.1,25.5,17.5
		c1,0.5,1.9,1,3,1.6c0.1,0,0.1,0.2,0.1,0.3C111.9,138.3,111.9,138.3,111.8,138.3z"/>
	<path class="st0" d="M59.9,100.5C59.9,100.5,59.8,100.5,59.9,100.5c-4.2-1.5-9.7-2.4-14.5-2.4c-0.8,0-1.5,0-2.2,0.1c0,0,0,0,0,0
		c-0.1,0-0.1,0-0.1-0.1c0-0.1,0-0.1,0.1-0.1c5.3-0.3,11.9,0.6,16.7,2.3c0.1,0,0.1,0.1,0.1,0.1C60,100.5,59.9,100.5,59.9,100.5z"/>
	<path class="st0" d="M62.2,103.5C62.1,103.5,62.1,103.5,62.2,103.5c-0.5-0.2-1-0.4-1.5-0.5c-3.1-1.2-5-1.9-8.9-2.3
		c-0.1,0-0.1-0.1-0.1-0.1c0-0.1,0.1-0.1,0.1-0.1c0,0,0,0,0,0c3.9,0.5,5.8,1.2,8.9,2.3c0.4,0.2,0.9,0.3,1.4,0.5
		c0.1,0,0.1,0.1,0.1,0.1C62.2,103.4,62.2,103.5,62.2,103.5z"/>
	<path class="st0" d="M80.1,113.2C80.1,113.2,80,113.2,80.1,113.2c-3.7-2.6-7.4-4.8-11.1-6.7c-0.1,0-0.1-0.1,0-0.1
		c0-0.1,0.1-0.1,0.1,0c3.7,1.9,7.4,4.1,11,6.7C80.2,113,80.2,113.1,80.1,113.2C80.1,113.2,80.1,113.2,80.1,113.2z"/>
	<path class="st0" d="M95.9,116C95.9,116,95.9,116,95.9,116c-4.1-1.6-8-3.9-11.4-5.8c-3.2-1.9-6.2-3.6-8.9-4.5
		c-0.1,0-0.1-0.1-0.1-0.1c0,0,0.1-0.1,0.1-0.1c0,0,0,0,0,0c2.7,0.9,5.7,2.7,8.9,4.5c3.4,2,7.2,4.2,11.3,5.8c0.1,0,0.1,0.1,0.1,0.1
		C96,116,96,116,95.9,116z"/>
	<path class="st0" d="M118.5,130.5C118.5,130.5,118.5,130.5,118.5,130.5c-6.3-2.3-15.5-7.3-23.6-11.9c-0.1,0-0.1-0.1,0-0.1
		c0-0.1,0.1-0.1,0.1,0c8.1,4.6,17.3,9.5,23.5,11.8c0.1,0,0.1,0.1,0.1,0.1C118.6,130.5,118.5,130.5,118.5,130.5z"/>
	<path class="st0" d="M125.8,128C125.8,128,125.8,128,125.8,128c-1.8-0.5-9.9-2.8-12.4-3.9c-0.1,0-0.1-0.1-0.1-0.1
		c0-0.1,0.1-0.1,0.1-0.1c2.5,1,10.6,3.4,12.3,3.8c0.1,0,0.1,0.1,0.1,0.1C125.9,128,125.9,128,125.8,128z"/>
	<path class="st0" d="M115.8,135.2C115.8,135.2,115.8,135.2,115.8,135.2c-3.8-1.6-14.6-7.1-18.6-10.2c0,0-0.1-0.1,0-0.2
		c0,0,0.1-0.1,0.2,0c4,3.1,14.7,8.6,18.5,10.2c0.1,0,0.1,0.1,0.1,0.1C115.9,135.2,115.8,135.2,115.8,135.2z"/>
	<path class="st0" d="M112.5,99.6c-0.4,0-0.9,0-1.3,0c-0.7,0-1.4,0-2,0c0,0,0,0,0,0c-0.1,0-0.2-0.1-0.2-0.2c0-0.1,0.1-0.2,0.2-0.2
		c0.6,0,1.3,0,2,0c0.7,0,1.5,0,2.3,0c0,0,0,0,0,0c0.1,0,0.2,0.1,0.2,0.2s-0.1,0.2-0.2,0.2C113.2,99.6,112.9,99.6,112.5,99.6z"/>
	<path class="st0" d="M84.6,99.8c-1.5,0-3,0-4.4-0.1c-2.1-0.1-4.4-0.1-6.5,0h0c-0.1,0-0.2-0.1-0.2-0.2c0-0.1,0.1-0.2,0.2-0.2
		c2.1-0.1,4.4,0,6.5,0c2.3,0.1,4.7,0.1,6.9,0c2.7-0.1,5.4-0.1,8-0.1c2.4,0,4.8,0,7.2-0.1h0c0.1,0,0.2,0.1,0.2,0.2
		c0,0.1-0.1,0.2-0.2,0.2c-2.4,0.1-4.9,0.1-7.2,0.1c-2.6,0-5.3,0-8,0.1C86.3,99.8,85.5,99.8,84.6,99.8z"/>
	<path class="st0" d="M134.6,93.9C134.5,93.9,134.5,93.9,134.6,93.9c-0.1,0-0.2-0.1-0.2-0.2c0.1-0.2,0.1-0.3,0.2-0.5
		c0.2-0.6,0.4-1.2,0.8-1.7c0.1-0.1,0.2-0.1,0.2,0c0.1,0.1,0.1,0.2,0,0.2c-0.4,0.4-0.6,1-0.7,1.5c0,0.2-0.1,0.3-0.2,0.5
		C134.7,93.8,134.6,93.9,134.6,93.9z"/>
	<rect x="102.6" y="112.8" class="st0" width="5.3" height="0.5"/>
	<rect x="62.2" y="112.8" class="st0" width="5.3" height="0.5"/>
	<path class="st0" d="M123.7,101.2C123.7,101.2,123.7,101.2,123.7,101.2c-0.1,0-0.1-0.1-0.1-0.2c0.1-0.4,0.2-0.8,0.4-1.1
		c0.7-0.9,1.5-1.5,2.4-2c0.1,0,0.1,0,0.2,0.1c0,0.1,0,0.1-0.1,0.2c-0.9,0.4-1.6,1.1-2.3,1.9c-0.2,0.2-0.3,0.6-0.4,1
		C123.8,101.1,123.7,101.2,123.7,101.2z"/>
	<path class="st0" d="M125.6,101.3c-0.6,0-1.9,0-2-0.1l0.1-0.1l0-0.2c0.1,0,1.7,0.1,2.1,0c0.7-0.1,1.4-0.1,2.1-0.1h0
		c0.1,0,0.2,0.1,0.2,0.2c0,0.1-0.1,0.2-0.2,0.2c-0.7,0-1.4,0-2.1,0.1C125.9,101.3,125.8,101.3,125.6,101.3z"/>
</g>
</svg>
