<?xml version="1.0" encoding="utf-8"?>
<svg version="1.1" xmlns="http://www.w3.org/2000/svg" xmlns:xlink="http://www.w3.org/1999/xlink" x="0px" y="0px" viewBox="0 0 188 82" enable-background="new 0 0 188 82" xml:space="preserve">
<defs>
	<style>
	    svg * {
        	transition: fill .4s ease-out, opacity .4s ease-out;
    	}
		.LogoFull {
			width: 100%;
			height: 82px;
			display:block;
		}
		.LogoSmall {opacity:0;}
		.Logo {opacity:0;}

		@media (max-width: 230px) {
			.LogoFull {opacity:0;}
			.LogoSmall {opacity:0;}
			.Logo {
				width: 100%;
				height: 78px;
				display:block;
				opacity:100;
			}
		}
		@media (max-width: 229px) {
			.LogoFull {opacity:0;}
			.Logo {opacity:0;}
			.LogoSmall {
				width:150px;
				height:64px;
				display:block;
				opacity:100;
			}
			}
		}
	</style>
</defs>
<g class="LogoSmall">
	<g>
		<path fill="#FFFFFF" d="M75.1,68.2c-1.1,0.1-1.5,0.4-1.5,1.5v1.8c0,1.1,0.4,1.5,1.5,1.5c10,0,10-7.8,10-15.1V13.6
			c0-1.1-0.4-1.5-1.5-1.5h-2.1c-1.1,0-1.5,0.4-1.5,1.5v46.7C80,64.9,80,67.9,75.1,68.2L75.1,68.2z"/>
		<path fill="#FFFFFF" d="M47.4,54.5c0.5,6.2,5.6,11.3,12.2,11.3c7.8,0,12.8-6.9,12.1-13.8c-1.4-12.5-16.9-18.3-18.1-27.6
			c-0.6-4.8,2.4-7.6,5.9-7.6c3.3,0,5.5,2.5,5.9,5.9c0.1,0.9,0.5,1.1,1.5,1.1h1.7c1.1,0,1.5-0.2,1.6-1.1c-0.3-6.8-5.5-10.7-10.6-10.7
			c-6.6,0-11.2,5.3-10.9,12c0.7,12.5,17,18.2,18.2,28.3c0.5,4-2,8.6-7.1,8.6c-4.1,0-6.8-3.3-7-6.8c0-1.4-0.5-1.7-1.5-1.7h-2.4
			C47.4,52.5,47.4,53.5,47.4,54.5L47.4,54.5z"/>
		<path fill="#FFFFFF" d="M117.9,53.9c0-1.1-0.4-1.5-1.5-1.5h-2.1c-1,0-1.4,0.3-1.5,1.2h0c-0.4,5.4-2.4,7.5-6.2,7.5
			c-4.2,0-6.2-2.5-6.2-9.3V26.3c0-6.8,2.1-9.3,6.2-9.3c3.3,0,5.2,1.6,5.9,5.5c0,0.1,0,0.1,0,0.2c0.1,1,0.6,1.2,1.7,1.2h1.9
			c1.2,0,1.7-0.2,1.8-1.2c0,0,0-0.1,0-0.1h0c0,0,0,0,0-0.1c0-0.1,0-0.1,0-0.2h0c0-0.1,0-0.2,0-0.3c-1-7.1-5.6-9.9-11.2-9.9
			c-6.3,0-11.4,3.6-11.4,12.9v28c0,9.3,5.1,12.9,11.4,12.9c6,0,10.9-3.3,11.4-11.7c0,0,0,0,0,0h0V53.9z"/>
		<path fill="#BFD22B" d="M45.4,30.8c-1-2.9-3.9-8.3-11.1-12.1c-9.3-5-18.8-6.5-18.8-6.5c-0.3,16.7,3,26.6,7.2,32.5
			C34.2,44,38.1,50.3,39.3,53c0.1,0,0.1,0,0.1,0s-1.1-3.6-6.4-14.7c-4.5-9.4-14.3-22-14.3-22s8.7,6.4,14,14.7
			c5,7.9,8.3,21.4,8.3,21.4C43,47.1,49,41.5,45.4,30.8L45.4,30.8z M4.6,51.3c0,0,3.8,5.9,9.8,10.6c4.7,3.7,9.1,4.1,11.3,3.9
			c8.2-0.7,10.2-6.4,13-9.2c0,0-9.8,1.5-16.5,0.4c-7-1.1-14-4.8-14-4.8s11.3,2.6,18.8,2.8c8.9,0.3,11.7,0.3,11.7,0.3
			S33.9,37.9,4.6,51.3L4.6,51.3z"/>
	</g>
</g>
<g class="Logo">
	<g>
		<g>
			<polygon fill="#F7F9F9" points="4.7,60.1 4.7,60.8 39.7,60.8 39.7,60.1 4.7,60.1 			"/>
			<polygon fill="#F7F9F9" points="148.3,60.1 148.3,60.8 183.3,60.8 183.3,60.1 148.3,60.1 			"/>
		</g>
		<path id="Y_1_" fill="#FFFFFF" d="M49.6,67.1c1.9,0,4.4-0.5,5.4-1.1v-1c-0.5,0.4-3.1,1.2-5.3,1.2c-3.3,0-6.6-1.5-6.6-5.5
			c0-4,3.9-5.6,6.6-5.6c2.5,0,4.5,0.7,5.1,1v-1c-0.5-0.3-2.5-0.9-5.1-0.9c-3.1,0-7.6,1.6-7.6,6.5C42.2,64.9,45.4,67.1,49.6,67.1
			L49.6,67.1z"/>
		<path id="T_1_" fill="#FFFFFF" d="M68.3,54.3c-3.5,0-7.6,1.9-7.6,6.4c0,4.1,3.3,6.4,7.4,6.4c4.1,0,7.6-2.4,7.6-6.4
			C75.7,56.3,71.8,54.3,68.3,54.3z M68.1,66.2c-3.1,0-6.5-1.4-6.5-5.5c0-3.8,3.5-5.5,6.7-5.5c3.2,0,6.6,1.7,6.6,5.5
			C74.8,64.8,71.2,66.2,68.1,66.2z"/>
		<path id="N_4_" fill="#FFFFFF" d="M87,67.1c2.5,0,5.4-1,5.9-3.6c0.1-0.5,0.1-1.2,0.1-1.8v-7.3h-0.9v7.3c0,0.5,0,1.1-0.1,1.5
			c-0.6,2.1-2.7,2.9-5.1,2.9c-2.3,0-4.6-1-5.1-2.9c-0.1-0.4-0.1-1-0.1-1.5v-7.3h-0.9v7.2c0,0.6,0,1.2,0.1,1.8
			C81.6,66.1,84.5,67.1,87,67.1L87,67.1z"/>
		<path id="U_4_" fill="#FFFFFF" d="M100.3,66.9h0.9V56c0,0,2.6,2.6,11.2,10.9h0.5V54.5H112v10.8c0,0-2.6-2.5-11-10.8h-0.7V66.9
			L100.3,66.9z"/>
		<polygon id="O_4_" fill="#FFFFFF" points="123.3,66.9 124.2,66.9 124.2,55.4 129.3,55.4 129.3,54.5 118.1,54.5 118.1,55.4
			123.3,55.4 123.3,66.9 		"/>
		<path id="C_1_" fill="#FFFFFF" d="M139.1,66.9h0.9v-5.2l5.7-7.2h-1.2c-3.5,4.4-3.9,4.9-5,6.3c-0.8-1.1-1.5-1.9-5-6.3h-1.2l5.7,7.2
			V66.9L139.1,66.9z"/>
		<path id="Leaf_1_" fill="#BFD22B" d="M72.3,35.8c-0.3-0.9-1.2-2.5-3.4-3.7c-2.8-1.5-5.7-2-5.7-2C63,35.2,64,38.2,65.3,40
			c3.5-0.2,4.7,1.7,5,2.6c0,0,0,0,0,0s-0.3-1.1-2-4.5c-1.4-2.9-4.4-6.7-4.4-6.7s2.7,2,4.3,4.5c1.5,2.4,2.5,6.5,2.5,6.5
			C71.5,40.8,73.4,39.1,72.3,35.8L72.3,35.8z M59.8,42.1c0,0,1.2,1.8,3,3.2c1.4,1.1,2.8,1.2,3.4,1.2c2.5-0.2,3.1-1.9,4-2.8
			c0,0-3,0.5-5,0.1c-2.1-0.3-4.3-1.5-4.3-1.5s3.4,0.8,5.7,0.9c2.7,0.1,3.6,0.1,3.6,0.1S68.7,38,59.8,42.1L59.8,42.1z"/>
		<path id="N2_1_" fill="#FFFFFF" d="M182.5,45c0.6,0,0.9-0.2,0.9-0.9V15.9c0-0.6-0.2-0.9-0.9-0.9h-1.2c-0.6,0-0.9,0.2-0.9,0.9v19.6
			c0,0.2-0.3,0.3-0.3,0l-7.6-19.9c-0.2-0.5-0.4-0.6-0.9-0.6h-0.9c-0.6,0-0.9,0.2-0.9,0.9v28.2c0,0.6,0.2,0.9,0.9,0.9h1.2
			c0.6,0,0.9-0.2,0.9-0.9V24.6c0-0.2,0.3-0.3,0.3,0l7.6,19.9c0.2,0.4,0.5,0.5,0.9,0.5H182.5L182.5,45z"/>
		<path id="I_1_" fill="#FFFFFF" d="M163.1,44.2V15.9c0-0.6-0.2-0.9-0.9-0.9H161c-0.6,0-0.9,0.2-0.9,0.9v28.2c0,0.6,0.2,0.9,0.9,0.9
			h1.2C162.9,45,163.1,44.8,163.1,44.2L163.1,44.2z"/>
		<path id="U_1_" fill="#FFFFFF" d="M153.6,37.9v-22c0-0.6-0.2-0.9-0.9-0.9h-1.2c-0.6,0-0.9,0.2-0.9,0.9v21.3c0,3.9-1.2,5.3-3.5,5.3
			c-2.4,0-3.5-1.4-3.5-5.3V15.9c0-0.6-0.2-0.9-0.9-0.9h-1.2c-0.6,0-0.9,0.2-0.9,0.9v22c0,5.3,2.9,7.3,6.4,7.3
			C150.7,45.2,153.6,43.2,153.6,37.9L153.6,37.9z"/>
		<path id="Q_1_" fill="#FFFFFF" d="M128.5,14.9c-3.6,0-6.4,2-6.4,7.3v15.7c0,5.3,2.9,7.3,6.4,7.3c0.1,0,0.3,0,0.5,0l0.6,2.5
			c0.1,0.6,0.4,0.8,1,0.6l1.2-0.3c0.6-0.2,0.8-0.4,0.6-1.1l-0.6-2.5c1.9-1,3.2-3,3.2-6.5V22.2C134.9,16.9,132.1,14.9,128.5,14.9z
			 M132,37.2c0,3.9-1.2,5.3-3.5,5.3c-2.4,0-3.5-1.4-3.5-5.3V22.9c0-3.9,1.2-5.3,3.5-5.3c2.4,0,3.5,1.4,3.5,5.3V37.2z"/>
		<path id="A2_1_" fill="#FFFFFF" d="M117.4,44.3L112,15.8c-0.1-0.6-0.3-0.8-0.9-0.8h-1.5c-0.7,0-0.8,0.1-0.9,0.8l-5.4,28.5
			c-0.1,0.7,0.3,0.7,0.7,0.7h1.3c0.6,0,0.8,0,0.9-0.6l0.5-3c0.2-0.9,0.1-0.9,1-0.9h5.3c0.8,0,0.8,0,0.9,0.9l0.5,3
			c0.1,0.6,0.4,0.6,0.9,0.6h1.3C117.1,45,117.5,45,117.4,44.3z M112.3,37.8h-4.1c-0.9,0-0.9,0-0.7-0.9l2.6-15.2c0-0.2,0.3-0.2,0.3,0
			l2.6,15.2C113.2,37.8,113.2,37.8,112.3,37.8z"/>
		<path id="O_1_" fill="#FFFFFF" d="M92.1,14.9c-3.6,0-6.4,2-6.4,7.3v15.7c0,5.3,2.9,7.3,6.4,7.3c3.6,0,6.4-2,6.4-7.3V22.2
			C98.5,16.9,95.6,14.9,92.1,14.9z M95.6,37.2c0,3.9-1.2,5.3-3.5,5.3s-3.5-1.4-3.5-5.3V22.9c0-3.9,1.2-5.3,3.5-5.3s3.5,1.4,3.5,5.3
			V37.2z"/>
		<path id="J_1_" fill="#FFFFFF" d="M73.8,42.3c-0.6,0-0.9,0.2-0.9,0.9v1c0,0.6,0.2,0.9,0.9,0.9c5.6,0,5.6-4.4,5.6-8.5V15.9
			c0-0.6-0.2-0.9-0.9-0.9h-1.2c-0.6,0-0.9,0.2-0.9,0.9v21.9C76.5,40.4,76.5,42.1,73.8,42.3L73.8,42.3z"/>
		<path id="N_1_" fill="#FFFFFF" d="M55.2,45c0.6,0,0.9-0.2,0.9-0.9V15.9c0-0.6-0.2-0.9-0.9-0.9H54c-0.6,0-0.9,0.2-0.9,0.9v19.6
			c0,0.2-0.3,0.3-0.3,0l-7.6-19.9c-0.2-0.5-0.4-0.6-0.9-0.6h-0.9c-0.6,0-0.9,0.2-0.9,0.9v28.2c0,0.6,0.2,0.9,0.9,0.9h1.2
			c0.6,0,0.9-0.2,0.9-0.9V24.6c0-0.2,0.3-0.3,0.3,0l7.6,19.9c0.2,0.4,0.5,0.5,0.9,0.5H55.2L55.2,45z"/>
		<path id="A_1_" fill="#FFFFFF" d="M37,44.3l-5.3-28.5c-0.1-0.6-0.3-0.8-0.9-0.8h-1.5c-0.7,0-0.8,0.1-0.9,0.8l-5.3,28.5
			C22.8,45,23.2,45,23.6,45h1.3c0.6,0,0.8,0,0.9-0.6l0.5-3c0.2-0.9,0.1-0.9,1-0.9h5.3c0.8,0,0.8,0,0.9,0.9l0.5,3
			C34.2,45,34.5,45,35,45h1.3C36.7,45,37.2,45,37,44.3z M32,37.8h-4.1c-0.9,0-0.9,0-0.7-0.9l2.6-15.2c0-0.2,0.3-0.2,0.3,0L32.7,37
			C32.9,37.8,32.9,37.8,32,37.8z"/>
		<path id="S_1_" fill="#FFFFFF" d="M4.7,38.8c0.3,3.5,3.2,6.4,6.8,6.4c4.4,0,7.2-3.9,6.8-7.7c-0.8-7-9.5-10.3-10.2-15.5
			c-0.3-2.7,1.4-4.3,3.3-4.3c1.9,0,3.1,1.4,3.3,3.3c0,0.5,0.3,0.6,0.9,0.6h0.9c0.6,0,0.9-0.1,0.9-0.6c-0.2-3.8-3.1-6-6-6
			c-3.7,0-6.3,3-6.1,6.8c0.4,7.1,9.6,10.3,10.2,16c0.3,2.2-1.1,4.8-4,4.8c-2.3,0-3.8-1.9-3.9-3.8c0-0.8-0.3-1-0.9-1H5.4
			C4.6,37.7,4.6,38.2,4.7,38.8L4.7,38.8z"/>
	</g>
</g>
<g class="LogoFull">
	<g class="Grows">
		<path class="svg-grows" fill="#D9E8AC" d="M4.7,69.2c0,3.2,2.3,5.9,5.2,5.9c2.5,0,4.4-1.2,4.4-1.2c0.1-0.1,0.2-0.2,0.2-0.3l0.6-4.4
			c0-0.2-0.1-0.3-0.3-0.3h-3c-0.2,0-0.4,0.2-0.4,0.4l-0.1,0.6c0,0.2,0.1,0.3,0.3,0.3h1.9l-0.4,2.7c-0.1,0-1.3,0.8-3,0.8
			c-2.3,0-3.9-2.2-3.9-4.7c0-3.3,2.5-6.1,5.4-6.1c1.1,0,2.2,0.7,2.8,1.4c0.2,0.2,0.3,0.2,0.5,0.1l0.7-0.5c0.2-0.1,0.2-0.4,0.1-0.5
			c-1-1.1-2.2-1.8-3.9-1.8C7.7,61.5,4.7,65,4.7,69.2L4.7,69.2z M18.1,74.5c0,0.2,0.1,0.4,0.3,0.4H19c0.2,0,0.4-0.2,0.4-0.4l0.7-5
			c0,0,0.8-1.1,1.8-1.1c0.4,0,0.6,0.1,0.7,0.2c0.2,0.1,0.3,0.1,0.4-0.2l0.3-0.6c0.3-0.5-0.6-0.6-1.1-0.6c-1.4,0-2.1,1-2.2,1L20,67.6
			c0-0.2-0.1-0.3-0.2-0.3h-0.4c-0.2,0-0.4,0.2-0.4,0.4L18.1,74.5L18.1,74.5z M25.3,71.7c0,1.8,1.2,3.3,2.8,3.3c1.1,0,2-0.5,2.5-0.9
			c0.2-0.2,0.2-0.3,0.1-0.5l-0.2-0.3c-0.1-0.2-0.3-0.2-0.5-0.1c-0.4,0.3-1.1,0.6-1.7,0.6c-1.2,0-1.9-1.2-1.8-2.5
			c3.3,0.3,5.1-0.7,5.1-2.3c0-1.1-0.8-2-2.3-2C26.9,67.1,25.3,69.3,25.3,71.7L25.3,71.7z M26.7,70.4c0.3-1.2,1.4-2.2,2.4-2.2
			c0.8,0,1.2,0.4,1.2,0.9C30.3,70.1,28.9,70.6,26.7,70.4L26.7,70.4z M40.6,67.6c0-0.2,0-0.3-0.2-0.3h-0.4c-0.1,0-0.2,0.1-0.3,0.2
			L39.4,68c0,0-0.6-0.8-1.8-0.8c-2,0-3.8,1.7-3.8,4.6c0,1.8,1.1,3.3,2.6,3.3c1.3,0,2.2-1,2.2-1l0.1,0.5c0,0.2,0.1,0.3,0.2,0.3h0.4
			c0.2,0,0.3-0.1,0.3-0.3L40.6,67.6L40.6,67.6z M38.7,72.6c0,0-0.7,1.2-1.9,1.2c-1.1,0-1.6-1.1-1.6-2.2c0-2.4,1.2-3.3,2.3-3.3
			c1.2,0,1.6,0.9,1.6,0.9L38.7,72.6L38.7,72.6z M44.1,73c-0.2,1.2,0.2,2.1,1.4,2.1c0.8,0,1.8-0.5,2-0.6c0.2-0.1,0.3-0.2,0.2-0.5
			l-0.2-0.5c-0.1-0.2-0.1-0.3-0.4-0.1c-0.2,0.1-0.8,0.4-1.2,0.4c-0.4,0-0.5-0.2-0.4-0.9l0.6-4.4h1.9c0.2,0,0.4-0.2,0.4-0.4l0.1-0.4
			c0-0.2-0.1-0.4-0.3-0.4h-1.9l0.3-2.1c0-0.2-0.1-0.4-0.3-0.4l-0.7,0c-0.2,0-0.3,0.2-0.4,0.4l-0.3,2.1H44c-0.2,0-0.3,0.2-0.4,0.4
			l-0.1,0.4c0,0.2,0.1,0.4,0.3,0.4h0.8L44.1,73L44.1,73z M50.8,74.5c0,0.2,0.1,0.4,0.3,0.4h0.6c0.2,0,0.4-0.2,0.4-0.4l0.7-5
			c0,0,1-1.1,2.2-1.1c0.9,0,1.4,0.7,1.2,2.1l-0.5,4c0,0.2,0.1,0.4,0.3,0.4h0.7c0.2,0,0.4-0.2,0.4-0.4l0.6-4c0.3-2-0.4-3.4-2.2-3.4
			c-1.4,0-2.5,1-2.5,1l-0.1-0.6c0-0.2-0.1-0.2-0.2-0.2h-0.4c-0.2,0-0.4,0.2-0.4,0.4L50.8,74.5L50.8,74.5z M60.8,71.7
			c0,1.8,1.2,3.3,2.8,3.3c1.1,0,2-0.5,2.5-0.9c0.2-0.2,0.2-0.3,0.1-0.5L66,73.4c-0.1-0.2-0.3-0.2-0.5-0.1c-0.4,0.3-1.1,0.6-1.7,0.6
			c-1.2,0-1.9-1.2-1.8-2.5c3.3,0.3,5.1-0.7,5.1-2.3c0-1.1-0.8-2-2.3-2C62.4,67.1,60.8,69.3,60.8,71.7L60.8,71.7z M62.2,70.4
			c0.3-1.2,1.4-2.2,2.4-2.2c0.8,0,1.2,0.4,1.2,0.9C65.8,70.1,64.5,70.6,62.2,70.4L62.2,70.4z M69.5,74.2c0.3,0.3,1.1,0.8,2.1,0.8
			c1.8,0,2.7-1.1,2.7-2.4c0-1.2-0.9-1.7-1.9-2.3c-0.6-0.3-1-0.6-1-1.2c0-0.4,0.2-0.8,1-0.8c0.6,0,1.3,0.4,1.3,0.4
			c0.2,0.1,0.3,0.1,0.5-0.1l0.3-0.4c0.1-0.2,0.1-0.4-0.1-0.5c-0.3-0.2-0.9-0.6-1.8-0.6c-2,0-2.5,1.3-2.5,2.2c0,1.1,0.8,1.7,1.6,2.2
			c0.8,0.5,1.2,0.8,1.2,1.4c0,0.6-0.5,1-1.2,1c-0.8,0-1.5-0.6-1.5-0.6c-0.2-0.1-0.3-0.1-0.5,0.1l-0.3,0.4
			C69.4,73.9,69.4,74.1,69.5,74.2L69.5,74.2z M77.2,74.2c0.3,0.3,1.1,0.8,2.1,0.8c1.8,0,2.7-1.1,2.7-2.4c0-1.2-0.9-1.7-1.9-2.3
			c-0.6-0.3-1-0.6-1-1.2c0-0.4,0.2-0.8,1-0.8c0.6,0,1.3,0.4,1.3,0.4c0.2,0.1,0.3,0.1,0.5-0.1l0.3-0.4c0.1-0.2,0.1-0.4-0.1-0.5
			c-0.3-0.2-0.9-0.6-1.8-0.6c-2,0-2.5,1.3-2.5,2.2c0,1.1,0.8,1.7,1.6,2.2c0.8,0.5,1.2,0.8,1.2,1.4c0,0.6-0.5,1-1.2,1
			c-0.8,0-1.5-0.6-1.5-0.6c-0.2-0.1-0.3-0.1-0.5,0.1l-0.3,0.4C77,73.9,77.1,74.1,77.2,74.2L77.2,74.2z M93.2,72c0,1.9,1.1,3,2.4,3
			c1,0,1.7-0.5,2-1h0.1l-0.3,1.8c-0.4,2.5-1.4,2.8-2,2.8c-1,0-1.7-0.9-1.7-1c-0.1-0.1-0.1-0.1-0.2-0.1c-0.1,0-0.2,0.1-0.2,0.1
			l-0.4,0.3c-0.1,0.1-0.1,0.1-0.1,0.2c0,0.1,0.1,0.2,0.1,0.3c0,0.1,0.8,1.3,2.5,1.3c1.6,0,3-1.1,3.4-3.8l1.2-8.3
			c0-0.2-0.1-0.4-0.2-0.4h-0.5c-0.2,0-0.2,0.1-0.3,0.2l-0.2,0.6c0,0-0.4-1-1.8-1C95.2,67.1,93.2,68.9,93.2,72L93.2,72L93.2,72z
			 M95.9,73.9c-0.8,0-1.4-0.7-1.4-2c0-2.3,1.2-3.5,2.4-3.5c1.2,0,1.5,1.1,1.5,1.1l-0.3,2.3C97.9,72.5,97,73.9,95.9,73.9L95.9,73.9z
			 M102.9,74.5c0,0.2,0.1,0.4,0.3,0.4h0.6c0.2,0,0.4-0.2,0.4-0.4l0.7-5c0,0,0.8-1.1,1.8-1.1c0.4,0,0.6,0.1,0.7,0.2
			c0.2,0.1,0.3,0.1,0.4-0.2l0.3-0.6c0.3-0.5-0.6-0.6-1.1-0.6c-1.4,0-2.1,1-2.2,1l-0.1-0.5c0-0.2-0.1-0.3-0.2-0.3h-0.4
			c-0.2,0-0.4,0.2-0.4,0.4L102.9,74.5L102.9,74.5z M109.9,71.6c0,1.9,1.3,3.4,2.9,3.4c2.2,0,4-2.1,4-4.5c0-1.8-1.3-3.4-2.9-3.4
			C111.6,67.1,109.9,69.2,109.9,71.6L109.9,71.6z M112.9,73.9c-1.1,0-1.8-1.1-1.8-2.4c0-1.7,1.2-3.1,2.5-3.1c1,0,1.8,1,1.8,2.3
			C115.5,72.4,114.3,73.9,112.9,73.9L112.9,73.9z M120.7,74.9c0,0.1,0.1,0.2,0.3,0.2h0.1c0.2,0,0.3-0.1,0.3-0.2l2.8-5.4h0l1.2,5.4
			c0,0.1,0.1,0.2,0.3,0.2h0.1c0.2,0,0.2-0.1,0.3-0.2l2.9-7.2c0.1-0.3,0-0.4-0.3-0.4h-0.5c-0.2,0-0.3,0.2-0.4,0.3l-1.9,4.6h0
			l-1.1-4.8c0-0.1-0.1-0.2-0.2-0.2h-0.1c-0.2,0-0.2,0.1-0.3,0.2l-2.6,4.8h0l-0.6-4.6c0-0.2-0.1-0.3-0.3-0.3H120
			c-0.2,0-0.3,0.1-0.3,0.3L120.7,74.9L120.7,74.9z M131.1,74.2c0.3,0.3,1.1,0.8,2.1,0.8c1.8,0,2.7-1.1,2.7-2.4
			c0-1.2-0.9-1.7-1.9-2.3c-0.6-0.3-1-0.6-1-1.2c0-0.4,0.2-0.8,1-0.8c0.6,0,1.3,0.4,1.3,0.4c0.2,0.1,0.3,0.1,0.5-0.1l0.3-0.4
			c0.1-0.2,0.1-0.4-0.1-0.5c-0.3-0.2-0.9-0.6-1.8-0.6c-2,0-2.5,1.3-2.5,2.2c0,1.1,0.8,1.7,1.6,2.2c0.8,0.5,1.2,0.8,1.2,1.4
			c0,0.6-0.5,1-1.2,1c-0.8,0-1.5-0.6-1.5-0.6c-0.2-0.1-0.3-0.1-0.5,0.1l-0.3,0.4C130.9,73.9,131,74.1,131.1,74.2L131.1,74.2z
			 M147.2,74.5c0,0.2,0.1,0.4,0.3,0.4h0.7c0.2,0,0.4-0.2,0.4-0.4l0.7-5.1c0,0,1-1.1,2.2-1.1c0.9,0,1.4,0.7,1.2,2.1l-0.6,4
			c0,0.2,0.1,0.4,0.3,0.4h0.7c0.2,0,0.4-0.2,0.4-0.4l0.6-4c0.3-2.2-0.6-3.4-2.2-3.4c-1.3,0-2.3,1-2.3,1l0.8-6.1
			c0-0.2-0.1-0.4-0.3-0.4h-0.7c-0.2,0-0.3,0.2-0.4,0.4L147.2,74.5L147.2,74.5z M157.2,71.7c0,1.8,1.1,3.3,2.8,3.3
			c1.1,0,2-0.5,2.5-0.9c0.2-0.2,0.2-0.3,0.1-0.5l-0.2-0.3c-0.1-0.2-0.3-0.2-0.5-0.1c-0.4,0.3-1.1,0.6-1.7,0.6
			c-1.2,0-1.9-1.2-1.8-2.5c3.3,0.3,5.1-0.7,5.1-2.3c0-1.1-0.8-2-2.3-2C158.9,67.1,157.2,69.3,157.2,71.7L157.2,71.7z M158.7,70.4
			c0.3-1.2,1.4-2.2,2.4-2.2c0.8,0,1.2,0.4,1.2,0.9C162.2,70.1,160.9,70.6,158.7,70.4L158.7,70.4z M166.2,74.5c0,0.2,0.1,0.4,0.3,0.4
			h0.6c0.2,0,0.4-0.2,0.4-0.4l0.7-5c0,0,0.8-1.1,1.8-1.1c0.4,0,0.6,0.1,0.7,0.2c0.2,0.1,0.3,0.1,0.4-0.2l0.3-0.6
			c0.3-0.5-0.6-0.6-1.1-0.6c-1.4,0-2.1,1-2.2,1l-0.1-0.5c0-0.2-0.1-0.3-0.2-0.3h-0.4c-0.2,0-0.4,0.2-0.4,0.4L166.2,74.5L166.2,74.5z
			 M173.2,71.7c0,1.8,1.2,3.3,2.8,3.3c1.1,0,2-0.5,2.5-0.9c0.2-0.2,0.2-0.3,0.1-0.5l-0.2-0.3c-0.1-0.2-0.3-0.2-0.5-0.1
			c-0.4,0.3-1.1,0.6-1.7,0.6c-1.1,0-1.9-1.2-1.8-2.5c3.3,0.3,5.1-0.7,5.1-2.3c0-1.1-0.8-2-2.3-2C174.8,67.1,173.2,69.3,173.2,71.7
			L173.2,71.7z M174.6,70.4c0.3-1.2,1.4-2.2,2.4-2.2c0.8,0,1.2,0.4,1.2,0.9C178.2,70.1,176.8,70.6,174.6,70.4L174.6,70.4z
			 M181.2,74.1c0,0.5,0.4,0.9,0.9,0.9c0.6,0,1.2-0.5,1.2-1.2c0-0.5-0.4-0.9-0.9-0.9C181.8,72.9,181.2,73.4,181.2,74.1L181.2,74.1z"
			/>
	</g>
	<g class="Line">
		<g>
			<polygon fill="#F7F9F9" points="4.7,48.1 4.7,48.8 39.7,48.8 39.7,48.1 4.7,48.1 			"/>
			<polygon fill="#F7F9F9" points="148.3,48.1 148.3,48.8 183.3,48.8 183.3,48.1 148.3,48.1 			"/>
		</g>
	</g>
	<g class="County">
		<path id="Y_2_" fill="#FFFFFF" d="M49.6,55.1c1.9,0,4.4-0.5,5.4-1.1v-1c-0.5,0.4-3.1,1.2-5.3,1.2c-3.3,0-6.6-1.5-6.6-5.5
			c0-4,3.9-5.6,6.6-5.6c2.5,0,4.5,0.7,5.1,1v-1c-0.5-0.3-2.5-0.9-5.1-0.9c-3.1,0-7.6,1.6-7.6,6.5C42.2,52.9,45.4,55.1,49.6,55.1
			L49.6,55.1z"/>
		<path id="T_2_" fill="#FFFFFF" d="M68.3,42.3c-3.5,0-7.6,1.9-7.6,6.4c0,4.1,3.3,6.4,7.4,6.4c4.1,0,7.6-2.4,7.6-6.4
			C75.7,44.3,71.8,42.3,68.3,42.3z M68.1,54.2c-3.1,0-6.5-1.4-6.5-5.5c0-3.8,3.5-5.5,6.7-5.5c3.2,0,6.6,1.7,6.6,5.5
			C74.8,52.8,71.2,54.2,68.1,54.2z"/>
		<path id="N_2_" fill="#FFFFFF" d="M87,55.1c2.5,0,5.4-1,5.9-3.6c0.1-0.5,0.1-1.2,0.1-1.8v-7.3h-0.9v7.3c0,0.5,0,1.1-0.1,1.5
			c-0.6,2.1-2.7,2.9-5.1,2.9c-2.3,0-4.6-1-5.1-2.9c-0.1-0.4-0.1-1-0.1-1.5v-7.3h-0.9v7.2c0,0.6,0,1.2,0.1,1.8
			C81.6,54.2,84.5,55.1,87,55.1L87,55.1z"/>
		<path id="U_2_" fill="#FFFFFF" d="M100.3,54.9h0.9V44c0,0,2.6,2.6,11.2,10.9h0.5V42.5H112v10.8c0,0-2.6-2.5-11-10.8h-0.7V54.9
			L100.3,54.9z"/>
		<polygon id="O_2_" fill="#FFFFFF" points="123.3,54.9 124.2,54.9 124.2,43.4 129.3,43.4 129.3,42.5 118.1,42.5 118.1,43.4
			123.3,43.4 123.3,54.9 		"/>
		<path id="C_2_" fill="#FFFFFF" d="M139.1,54.9h0.9v-5.2l5.7-7.2h-1.2c-3.5,4.4-3.9,4.9-5,6.3c-0.8-1.1-1.5-1.9-5-6.3h-1.2l5.7,7.2
			V54.9L139.1,54.9z"/>
	</g>
	<g class="San_Joaquin">
		<path id="Leaf_2_" fill="#BFD22B" d="M72.3,23.8c-0.3-0.9-1.2-2.5-3.4-3.7c-2.8-1.5-5.7-2-5.7-2C63,23.2,64,26.2,65.3,28
			c3.5-0.2,4.7,1.7,5,2.6c0,0,0,0,0,0s-0.3-1.1-2-4.5c-1.4-2.9-4.4-6.7-4.4-6.7s2.7,2,4.3,4.5c1.5,2.4,2.5,6.5,2.5,6.5
			C71.5,28.8,73.4,27.1,72.3,23.8L72.3,23.8z M59.8,30.1c0,0,1.2,1.8,3,3.2c1.4,1.1,2.8,1.2,3.4,1.2c2.5-0.2,3.1-1.9,4-2.8
			c0,0-3,0.5-5,0.1c-2.1-0.3-4.3-1.5-4.3-1.5s3.4,0.8,5.7,0.9c2.7,0.1,3.6,0.1,3.6,0.1S68.7,26,59.8,30.1L59.8,30.1z"/>
		<path id="N2_2_" fill="#FFFFFF" d="M182.5,33c0.6,0,0.9-0.2,0.9-0.9V3.9c0-0.6-0.2-0.9-0.9-0.9h-1.2c-0.6,0-0.9,0.2-0.9,0.9v19.6
			c0,0.2-0.3,0.3-0.3,0l-7.6-19.9c-0.2-0.5-0.4-0.6-0.9-0.6h-0.9c-0.6,0-0.9,0.2-0.9,0.9v28.2c0,0.6,0.2,0.9,0.9,0.9h1.2
			c0.6,0,0.9-0.2,0.9-0.9V12.6c0-0.2,0.3-0.3,0.3,0l7.6,19.9c0.2,0.4,0.5,0.5,0.9,0.5H182.5L182.5,33z"/>
		<path id="I_2_" fill="#FFFFFF" d="M163.1,32.2V3.9c0-0.6-0.2-0.9-0.9-0.9H161c-0.6,0-0.9,0.2-0.9,0.9v28.2c0,0.6,0.2,0.9,0.9,0.9
			h1.2C162.9,33,163.1,32.8,163.1,32.2L163.1,32.2z"/>
		<path id="U_3_" fill="#FFFFFF" d="M153.6,25.9v-22c0-0.6-0.2-0.9-0.9-0.9h-1.2c-0.6,0-0.9,0.2-0.9,0.9v21.3c0,3.9-1.2,5.3-3.5,5.3
			c-2.4,0-3.5-1.4-3.5-5.3V3.9c0-0.6-0.2-0.9-0.9-0.9h-1.2c-0.6,0-0.9,0.2-0.9,0.9v22c0,5.3,2.9,7.3,6.4,7.3
			C150.7,33.2,153.6,31.2,153.6,25.9L153.6,25.9z"/>
		<path id="Q_2_" fill="#FFFFFF" d="M128.5,2.9c-3.6,0-6.4,2-6.4,7.3v15.7c0,5.3,2.9,7.3,6.4,7.3c0.1,0,0.3,0,0.5,0l0.6,2.5
			c0.1,0.6,0.4,0.8,1,0.6l1.2-0.3c0.6-0.2,0.8-0.4,0.6-1.1l-0.6-2.5c1.9-1,3.2-3,3.2-6.5V10.2C134.9,4.9,132.1,2.9,128.5,2.9z
			 M132,25.2c0,3.9-1.2,5.3-3.5,5.3c-2.4,0-3.5-1.4-3.5-5.3V10.9c0-3.9,1.2-5.3,3.5-5.3c2.4,0,3.5,1.4,3.5,5.3V25.2z"/>
		<path id="A2_2_" fill="#FFFFFF" d="M117.4,32.3L112,3.8c-0.1-0.6-0.3-0.8-0.9-0.8h-1.5c-0.7,0-0.8,0.1-0.9,0.8l-5.4,28.5
			c-0.1,0.7,0.3,0.7,0.7,0.7h1.3c0.6,0,0.8,0,0.9-0.6l0.5-3c0.2-0.9,0.1-0.9,1-0.9h5.3c0.8,0,0.8,0,0.9,0.9l0.5,3
			c0.1,0.6,0.4,0.6,0.9,0.6h1.3C117.1,33,117.5,33,117.4,32.3z M112.3,25.8h-4.1c-0.9,0-0.9,0-0.7-0.9l2.6-15.2c0-0.2,0.3-0.2,0.3,0
			l2.6,15.2C113.2,25.8,113.2,25.8,112.3,25.8z"/>
		<path id="O_3_" fill="#FFFFFF" d="M92.1,2.9c-3.6,0-6.4,2-6.4,7.3v15.7c0,5.3,2.9,7.3,6.4,7.3c3.6,0,6.4-2,6.4-7.3V10.2
			C98.5,4.9,95.6,2.9,92.1,2.9z M95.6,25.2c0,3.9-1.2,5.3-3.5,5.3s-3.5-1.4-3.5-5.3V10.9c0-3.9,1.2-5.3,3.5-5.3s3.5,1.4,3.5,5.3
			V25.2z"/>
		<path id="J_2_" fill="#FFFFFF" d="M73.8,30.3c-0.6,0-0.9,0.2-0.9,0.9v1c0,0.6,0.2,0.9,0.9,0.9c5.6,0,5.6-4.4,5.6-8.5V3.9
			c0-0.6-0.2-0.9-0.9-0.9h-1.2c-0.6,0-0.9,0.2-0.9,0.9v21.9C76.5,28.4,76.5,30.1,73.8,30.3L73.8,30.3z"/>
		<path id="N_3_" fill="#FFFFFF" d="M55.2,33c0.6,0,0.9-0.2,0.9-0.9V3.9c0-0.6-0.2-0.9-0.9-0.9H54c-0.6,0-0.9,0.2-0.9,0.9v19.6
			c0,0.2-0.3,0.3-0.3,0L45.2,3.6c-0.2-0.5-0.4-0.6-0.9-0.6h-0.9c-0.6,0-0.9,0.2-0.9,0.9v28.2c0,0.6,0.2,0.9,0.9,0.9h1.2
			c0.6,0,0.9-0.2,0.9-0.9V12.6c0-0.2,0.3-0.3,0.3,0l7.6,19.9c0.2,0.4,0.5,0.5,0.9,0.5H55.2L55.2,33z"/>
		<path id="A_2_" fill="#FFFFFF" d="M37,32.3L31.7,3.8c-0.1-0.6-0.3-0.8-0.9-0.8h-1.5c-0.7,0-0.8,0.1-0.9,0.8l-5.3,28.5
			C22.8,33,23.2,33,23.6,33h1.3c0.6,0,0.8,0,0.9-0.6l0.5-3c0.2-0.9,0.1-0.9,1-0.9h5.3c0.8,0,0.8,0,0.9,0.9l0.5,3
			C34.2,33,34.5,33,35,33h1.3C36.7,33,37.2,33,37,32.3z M32,25.8h-4.1c-0.9,0-0.9,0-0.7-0.9l2.6-15.2c0-0.2,0.3-0.2,0.3,0L32.7,25
			C32.9,25.8,32.9,25.8,32,25.8z"/>
		<path id="S_2_" fill="#FFFFFF" d="M4.7,26.8c0.3,3.5,3.2,6.4,6.8,6.4c4.4,0,7.2-3.9,6.8-7.7c-0.8-7-9.5-10.3-10.2-15.5
			c-0.3-2.7,1.4-4.3,3.3-4.3c1.9,0,3.1,1.4,3.3,3.3c0,0.5,0.3,0.6,0.9,0.6h0.9c0.6,0,0.9-0.1,0.9-0.6c-0.2-3.8-3.1-6-6-6
			c-3.7,0-6.3,3-6.1,6.8c0.4,7.1,9.6,10.3,10.2,16c0.3,2.2-1.1,4.8-4,4.8c-2.3,0-3.8-1.9-3.9-3.8c0-0.8-0.3-1-0.9-1H5.4
			C4.6,25.7,4.6,26.2,4.7,26.8L4.7,26.8z"/>
	</g>
</g>
</svg>
