<?xml version="1.0" encoding="utf-8"?>
<!-- Generator: Adobe Illustrator 19.2.1, SVG Export Plug-In . SVG Version: 6.00 Build 0)  -->
<svg version="1.1" id="Layer_2" xmlns="http://www.w3.org/2000/svg" xmlns:xlink="http://www.w3.org/1999/xlink" x="0px" y="0px"
	 viewBox="0 0 298 99" style="enable-background:new 0 0 298 99;" xml:space="preserve">
<style type="text/css">
	.st0{fill:#646569;}
	.st1{fill:#7BB03E;}
</style>
<g>
	<path class="st0" d="M145.1,76.1V59H142v11.3c0,2-0.3,3.6-0.9,4.7c-0.6,1.1-1.3,2-2.1,2.5c-0.8,0.6-1.6,0.9-2.3,1
		c-0.7,0.1-1.2,0.2-1.3,0.2c-1.2,0-2.1-0.2-2.9-0.5c-0.8-0.3-1.4-0.8-1.8-1.5c-0.5-0.6-0.8-1.4-1-2.4c-0.2-0.9-0.3-2-0.3-3.2V59
		h-3.1v13.9c0,2.8,0.7,4.9,2,6.4c1.3,1.5,3.4,2.2,6.2,2.2c0.7,0,1.4-0.1,2.2-0.3c0.7-0.2,1.4-0.5,2.1-0.8c0.7-0.4,1.3-0.8,1.8-1.3
		c0.5-0.5,1-1,1.3-1.6h0.1c0,0.6,0,1.2,0,1.8c0,0.6,0.1,1.2,0.1,1.8h3.2c-0.1-0.8-0.1-1.7-0.2-2.6C145.1,77.5,145.1,76.7,145.1,76.1
		z M184.7,58.4c-0.7,0-1.4,0.1-2.2,0.3c-0.7,0.2-1.4,0.5-2.1,0.8c-0.7,0.4-1.3,0.8-1.8,1.3c-0.5,0.5-1,1-1.3,1.6h-0.1
		c0-0.6,0-1.2,0-1.8c0-0.6-0.1-1.2-0.1-1.8h-3.2c0.1,0.8,0.1,1.7,0.2,2.6c0,0.9,0.1,1.7,0.1,2.3V81h3.1V69.7c0-2,0.3-3.6,0.9-4.7
		c0.6-1.1,1.3-2,2.1-2.5c0.8-0.6,1.6-0.9,2.3-1c0.7-0.1,1.2-0.2,1.3-0.2c2.3,0,3.8,0.6,4.7,1.9c0.8,1.3,1.3,3.2,1.3,5.6V81h3.1V67
		c0-2.8-0.7-4.9-2-6.4C189.6,59.2,187.5,58.4,184.7,58.4z M160.8,58.4c-0.7,0-1.4,0.1-2.2,0.3c-0.7,0.2-1.4,0.5-2.1,0.8
		c-0.7,0.4-1.3,0.8-1.8,1.3c-0.5,0.5-1,1-1.3,1.6h-0.1c0-0.6,0-1.2,0-1.8c0-0.6-0.1-1.2-0.1-1.8H150c0.1,0.8,0.1,1.7,0.2,2.6
		c0,0.9,0.1,1.7,0.1,2.3V81h3.1V69.7c0-2,0.3-3.6,0.9-4.7c0.6-1.1,1.3-2,2.1-2.5c0.8-0.6,1.6-0.9,2.3-1c0.7-0.1,1.2-0.2,1.3-0.2
		c2.3,0,3.8,0.6,4.7,1.9c0.8,1.3,1.3,3.2,1.3,5.6V81h3.1V67c0-2.8-0.7-4.9-2-6.4C165.7,59.2,163.6,58.4,160.8,58.4z M118.1,64.8
		c-1.3-0.7-2.6-1.2-4.1-1.6c-1.5-0.4-2.8-0.8-4.1-1.3c-1.2-0.5-2.3-1.2-3.1-2.1c-0.8-0.9-1.2-2.1-1.2-3.7c0-1,0.2-1.9,0.6-2.7
		c0.4-0.8,0.9-1.4,1.6-1.9c0.7-0.5,1.4-0.9,2.3-1.1c0.9-0.3,1.8-0.4,2.8-0.4c1.4,0,2.6,0.3,3.7,0.8c1,0.5,1.9,1.3,2.7,2.4l0.1,0.1
		l2.8-2l-0.1-0.1c-1.1-1.5-2.5-2.6-4-3.2c-1.5-0.6-3.2-1-5.1-1c-1.4,0-2.8,0.2-4,0.6c-1.3,0.4-2.4,1-3.4,1.7c-1,0.8-1.8,1.7-2.4,2.9
		c-0.6,1.1-0.9,2.5-0.9,3.9c0,1.6,0.2,2.9,0.7,4c0.5,1.1,1.1,2,2,2.7c0.8,0.7,1.7,1.3,2.8,1.7c1,0.4,2.1,0.8,3.1,1.2
		c1.1,0.3,2.1,0.7,3.1,1c1,0.3,1.9,0.8,2.7,1.2c0.8,0.5,1.4,1.1,1.9,1.8c0.5,0.7,0.7,1.7,0.7,2.8c0,1-0.2,1.9-0.6,2.6
		c-0.4,0.8-0.9,1.5-1.6,2c-0.7,0.6-1.4,1-2.3,1.3c-0.9,0.3-1.9,0.5-2.9,0.5c-1.6,0-3.1-0.3-4.4-1c-1.3-0.7-2.3-1.7-3.1-3.1l-0.1-0.1
		l-3.1,2.1l0.1,0.1c1.3,1.8,2.9,3.1,4.8,3.9c1.8,0.8,3.9,1.2,6.1,1.2c1.3,0,2.7-0.2,3.9-0.6c1.3-0.4,2.4-1,3.3-1.8
		c1-0.8,1.7-1.8,2.3-3c0.6-1.2,0.9-2.5,0.9-4c0-2.1-0.4-3.7-1.3-4.9C120.4,66.3,119.3,65.4,118.1,64.8z M257.2,76v-9.8
		c0-1.3-0.2-2.5-0.7-3.5c-0.4-1-1-1.8-1.7-2.4c-0.7-0.6-1.6-1.1-2.6-1.4c-1-0.3-2-0.5-3.1-0.5c-4.1,0-7.2,1.1-9.3,3.2l1.9,2.2
		c1.9-1.7,4.1-2.6,6.7-2.6c3.8,0,5.6,1.9,5.6,5.7v0.6h-1.5c-1.3,0-2.8,0.1-4.3,0.2c-1.6,0.1-3.1,0.4-4.5,0.9
		c-1.4,0.5-2.6,1.3-3.5,2.3c-0.9,1-1.4,2.4-1.4,4.2c0,1.1,0.2,2,0.6,2.8c0.4,0.8,1,1.5,1.7,2c0.7,0.5,1.5,1,2.4,1.2
		c0.9,0.3,1.8,0.4,2.8,0.4c1.8,0,3.3-0.3,4.5-1c1.2-0.6,2.3-1.7,3.2-3.2h0.1c0,0.6,0,1.2,0.1,1.8c0,0.6,0.1,1.2,0.2,1.7h3
		c-0.1-0.6-0.2-1.4-0.3-2.3C257.2,77.8,257.2,76.9,257.2,76z M254.1,71.6c0,1-0.1,1.9-0.4,2.7c-0.3,0.9-0.7,1.6-1.2,2.3
		c-0.6,0.6-1.3,1.1-2.1,1.5c-0.8,0.4-1.8,0.6-2.9,0.6c-0.6,0-1.2-0.1-1.9-0.2c-0.6-0.1-1.2-0.4-1.7-0.7c-0.5-0.3-0.9-0.8-1.2-1.3
		c-0.3-0.5-0.4-1.1-0.4-1.9c0-1.1,0.4-2,1.1-2.6c0.8-0.6,1.7-1.1,2.8-1.4c1.1-0.3,2.2-0.5,3.4-0.6c1.2-0.1,2.2-0.1,2.9-0.1h1.6V71.6
		z M291.5,69.4c0-1.5-0.2-2.9-0.7-4.2c-0.5-1.3-1.1-2.5-2-3.5s-2-1.8-3.3-2.4c-1.3-0.6-2.8-0.9-4.5-0.9c-1.6,0-3,0.3-4.4,0.9
		c-1.3,0.6-2.5,1.4-3.5,2.4c-1,1-1.8,2.3-2.3,3.7c-0.6,1.4-0.8,2.9-0.8,4.6c0,1.7,0.3,3.2,0.9,4.6c0.6,1.4,1.4,2.6,2.4,3.7
		c1,1,2.2,1.8,3.6,2.4c1.4,0.6,2.9,0.9,4.5,0.9c1.8,0,3.5-0.4,5.1-1.1c1.6-0.7,3-1.9,4.3-3.6l-2.4-2c-0.6,1-1.5,1.9-2.7,2.7
		c-1.2,0.8-2.6,1.1-4.3,1.1c-1.1,0-2.1-0.2-3-0.6c-0.9-0.4-1.8-1-2.5-1.7c-0.7-0.7-1.3-1.5-1.7-2.5c-0.4-1-0.7-2-0.8-3.1h18.3V69.4z
		 M273.3,68.3c0-0.9,0.2-1.8,0.6-2.6c0.4-0.8,1-1.6,1.7-2.3c0.7-0.7,1.5-1.2,2.5-1.6c0.9-0.4,1.9-0.6,2.9-0.6c2.3,0,4,0.6,5.3,1.9
		c1.3,1.3,1.9,3,1.9,5.1H273.3z M206,77.2L199.1,59h-3.9l9,22.2l-1.6,4.2c-0.5,1.3-1,2.2-1.6,2.9c-0.6,0.7-1.5,1-2.6,1
		c-0.9,0-1.7-0.2-2.3-0.5l-0.3,3c0.5,0.2,0.9,0.3,1.4,0.3c0.5,0,1,0,1.4,0c1.9,0,3.3-0.5,4.3-1.5c1-1,1.9-2.3,2.5-4l11-27.7h-3.8
		L206,77.2z M262.4,81h3.1V46.9h-3.1V81z M227.4,77.5L227.4,77.5L220.2,59c0,0-3,1.1-1.3,6c1.1,3.3,6.5,15.9,6.5,15.9h3.5l8.9-22
		h-3.5L227.4,77.5z"/>
	<path class="st1" d="M69.9,15.6c-1.4-1.1-2.9-2-4.5-2.9L54.9,36.4L69.9,15.6z M38.2,9c-1.6,0.4-3.2,0.8-4.8,1.4l9,24.4L38.2,9z
		 M49,8.1c-0.5,0-1.6-0.1-2.1-0.1c-0.6,0-1.6,0.1-2.1,0.1l2.1,26.1L49,8.1z M83.3,33.3c-0.8-2.2-1.8-4.3-3-6.3L60.4,42.2L83.3,33.3z
		 M77.4,22.9c-1.2-1.5-2.5-2.9-3.9-4.2L58,38.9L77.4,22.9z M55.4,9l-4.2,25.8l9-24.4C58.7,9.8,57.1,9.4,55.4,9z M9,37.9
		c-0.6,2.5-0.9,5.1-1,7.8l23.8,0.2L9,37.9z M28.3,12.8c-1.6,0.9-3.1,1.8-4.5,2.9l15,20.8L28.3,12.8z M85.7,45.7
		c-0.1-2.7-0.4-5.3-1-7.8l-22.8,8L85.7,45.7z M46.8,59.6c0,0-13.4-10.1-31.1-10.1H8c1.4,20.2,18.2,36.2,38.8,36.2h0
		c20.6,0,37.4-16,38.8-36.2h-7.7C60.2,49.5,46.8,59.6,46.8,59.6z M20.1,18.7c-1.4,1.3-2.7,2.7-3.9,4.2l19.4,16L20.1,18.7z M13.5,27
		c-1.2,2-2.2,4.1-3,6.3l22.8,8.9L13.5,27z"/>
</g>
</svg>
