<svg id="Layer_1" data-name="Layer 1" xmlns="http://www.w3.org/2000/svg" viewBox="0 0 276.55 82.6"><defs><style>.cls-1{fill:#fff;}.cls-2{fill:#e64b38;}.cls-3{fill:#ffa400;}</style></defs><title>glendale-full-logo</title><path class="cls-1" d="M72.2,8.5V50.9H59.4V8.5Z"/><path class="cls-1" d="M109.6,38.1H89.2a5.13,5.13,0,0,0,5.2,3.7,9.28,9.28,0,0,0,6.3-2.8l6.7,6.6c-3.3,3.7-8.1,5.7-14.2,5.7-10.7,0-17-6.3-17-15.9,0-9.9,6.6-16.2,16.7-16.2C103.9,19.2,110.2,26.6,109.6,38.1ZM93.1,27.7c-2.2,0-3.6,1.8-4.1,4.5h7.8C96.9,29.6,95.3,27.7,93.1,27.7Z"/><path class="cls-1" d="M146.9,30.9V50.8H134.1V34.6c0-2.6-1.5-4.3-3.7-4.3-2.5,0-4.1,2-4.1,5V50.8H113.5V19.6h12.8v4.5a10.91,10.91,0,0,1,9.5-5C142.3,19.1,146.9,23.7,146.9,30.9Z"/><path class="cls-1" d="M184.9,8.5V50.9H172.1V47.8a10.18,10.18,0,0,1-7.9,3.6c-8.7,0-14.3-6.4-14.3-16.3,0-9.6,5.5-15.9,14-15.9a10.62,10.62,0,0,1,8.3,3.7V8.5ZM172.1,35.4c0-3.7-1.8-6.1-4.6-6.1s-4.7,2.4-4.7,6.1,1.8,6.1,4.7,6.1S172.1,39,172.1,35.4Z"/><path class="cls-1" d="M220.8,30.6V50.8H208.2V47.4c-1.8,2.5-4.8,3.9-8.8,3.9-6.6,0-10.4-3.9-10.4-9.8,0-6.2,4.2-9.4,12.1-9.5h7.1c-.1-2.2-1.7-3.4-4.9-3.4a31,31,0,0,0-9.5,2L190.9,22a47.61,47.61,0,0,1,15.4-3C215.5,19.1,220.8,23.3,220.8,30.6ZM208.2,40.9V38h-4.5c-1.8,0-2.7.9-2.7,2.5s1,2.7,2.9,2.7A5,5,0,0,0,208.2,40.9Z"/><path class="cls-1" d="M239.2,8.5V50.9H226.4V8.5Z"/><path class="cls-1" d="M276.5,38.1H256.2a5.13,5.13,0,0,0,5.2,3.7,9.28,9.28,0,0,0,6.3-2.8l6.7,6.6c-3.3,3.7-8.1,5.7-14.2,5.7-10.7,0-17-6.3-17-15.9,0-9.9,6.6-16.2,16.7-16.2C270.8,19.2,277.2,26.6,276.5,38.1ZM260,27.7c-2.2,0-3.6,1.8-4.1,4.5h7.8C263.8,29.6,262.2,27.7,260,27.7Z"/><path class="cls-2" d="M34.5,16.6a19.13,19.13,0,0,0-16-8.5A18.78,18.78,0,0,0,0,26.6,25.94,25.94,0,0,0,47,42,20.5,20.5,0,0,1,12.7,26.9,13.29,13.29,0,0,1,34.5,16.6"/><path class="cls-1" d="M52.2,22H22.7V32.2H38.6A14.06,14.06,0,0,1,17.4,37c6.1,9.3,18.5,10.5,25.3,5.9,7-4.6,10.6-11.7,9.5-20.9"/><path class="cls-3" d="M51.5,18.6A26.79,26.79,0,0,0,1.6,15.7a20.48,20.48,0,0,1,36.1,3.2v-.3Z"/><path class="cls-1" d="M82.7,77.8H73.1l-2.2,4.7h-.5l7.3-15.7h.4l7.3,15.7h-.5Zm-.2-.4-4.6-9.9-4.6,9.9Z"/><path class="cls-1" d="M105.4,82.5l-4-5.5a9,9,0,0,1-1.8.2H94.7v5.4h-.4V66.8h5.3a6.91,6.91,0,0,1,4.5,1.4,4.64,4.64,0,0,1,1.6,3.8,4.9,4.9,0,0,1-1,3.2,5.25,5.25,0,0,1-2.9,1.7l4.1,5.7h-.5Zm-5.8-5.8a6.56,6.56,0,0,0,4.2-1.2,4.83,4.83,0,0,0,0-7,6.56,6.56,0,0,0-4.2-1.2H94.7v9.5h4.9Z"/><path class="cls-1" d="M115.9,66.8h.4V82.5h-.4Z"/><path class="cls-1" d="M138.4,82.1v.4H126v-.3l11.5-15H126.1v-.4h12v.3l-11.5,15Z"/><path class="cls-1" d="M149.9,81.6a7.79,7.79,0,0,1-2.9-2.8,8.11,8.11,0,0,1-1.1-4.1,8.39,8.39,0,0,1,1.1-4.1,7.1,7.1,0,0,1,2.9-2.8,8.9,8.9,0,0,1,8.2,0,7.79,7.79,0,0,1,2.9,2.8,8.11,8.11,0,0,1,1.1,4.1,8.39,8.39,0,0,1-1.1,4.1,7.1,7.1,0,0,1-2.9,2.8,8.91,8.91,0,0,1-8.2,0Zm8-.4a6.39,6.39,0,0,0,2.7-2.7,8.27,8.27,0,0,0,1-3.8,7,7,0,0,0-1-3.8,8.7,8.7,0,0,0-2.7-2.7,7.32,7.32,0,0,0-3.9-1,7.56,7.56,0,0,0-3.9,1,6.39,6.39,0,0,0-2.7,2.7,8.27,8.27,0,0,0-1,3.8,7,7,0,0,0,1,3.8,8.7,8.7,0,0,0,2.7,2.7,7.56,7.56,0,0,0,3.9,1A8.68,8.68,0,0,0,157.9,81.2Z"/><path class="cls-1" d="M184.3,66.8V82.5H184L172.5,67.6V82.5H172V66.8h.4l11.5,14.9V66.8Z"/><path class="cls-1" d="M205.5,77.8h-9.6l-2.2,4.7h-.5l7.3-15.7h.4l7.3,15.7h-.5Zm-.2-.4-4.6-9.9-4.6,9.9Z"/></svg>