<svg xmlns="http://www.w3.org/2000/svg" viewBox="0 0 56 85" x="0px" y="0px"><g fill="#000000" fill-rule="evenodd"><path d="M21.4319153,67.2414059 C21.8112557,67.7205727 22.3888606,68 23.000007,68 L48.000007,68 C48.8296112,68 49.573088,67.4878371 49.8687146,66.7126932 C49.9066889,66.6131233 50.3898398,65.2658414 50.5722466,64.7254892 C51.0919303,63.1860065 51.6111248,61.5066231 52.0960088,59.7402075 C52.9186019,56.7435295 53.5572897,53.8064377 53.9405525,51.0331586 C54.6913819,45.6001774 54.4264645,41.1879011 52.7663727,38.0619424 C50.8473603,34.4484351 46.9139493,31.9322297 41.6020869,30.2085594 C39.0822349,29.3908813 38.4024814,28.8050004 35.725672,28.4086784 C34.7905377,28.2702246 34.000007,28.1800003 34.000007,28.1800003 L34.000007,5.99349475 C34.000007,2.683379 31.3069727,-1.28162152e-14 28.000007,-7.10542736e-15 L28.000007,-7.10542736e-15 C24.6862985,-1.38299552e-15 21.9998551,2.68709392 21.9996679,6.00035599 L21.9974737,44.8367237 L15.5021299,39.4404486 C11.114402,35.9302663 7.04055882,34.9615246 4.06340273,39.7249743 L3.30401035,40.9400021 C2.85585965,41.6570432 2.90706811,42.578441 3.43191531,43.2414059 L21.4319153,67.2414059 Z"/><path d="M12.5826019,8.52493645 C13.1223351,8.52493645 13.3168252,8.15929245 12.9946504,7.70824772 L9.16134854,2.34162518 C8.83282421,1.88169111 8.31682516,1.89058045 7.99465036,2.34162518 L4.16134854,7.70824772 C3.83282421,8.16818179 4.02365412,8.52493645 4.57339702,8.52493645 L6.57799945,8.52493645 L6.57799945,16.5249763 C6.57799945,17.077239 7.02135263,17.5249365 7.58736835,17.5249365 L9.56863055,17.5249365 C10.1260896,17.5249365 10.5779994,17.0702275 10.5779994,16.5249763 L10.5779994,8.52493645 L12.5826019,8.52493645 Z" transform="matrix(0 1 1 0 -1.187 1.187)"/><path d="M51.5826019,8.52493645 C52.1223351,8.52493645 52.3168252,8.15929245 51.9946504,7.70824772 L48.1613485,2.34162518 C47.8328242,1.88169111 47.3168252,1.89058045 46.9946504,2.34162518 L43.1613485,7.70824772 C42.8328242,8.16818179 43.0236541,8.52493645 43.573397,8.52493645 L45.5779994,8.52493645 L45.5779994,16.5249763 C45.5779994,17.077239 46.0213526,17.5249365 46.5873683,17.5249365 L48.5686306,17.5249365 C49.1260896,17.5249365 49.5779994,17.0702275 49.5779994,16.5249763 L49.5779994,8.52493645 L51.5826019,8.52493645 Z" transform="rotate(90 47.575 9.762)"/></g>
</svg>
