<svg id="Layer_1" data-name="Layer 1" xmlns="http://www.w3.org/2000/svg" width="300" height="182" viewBox="0 0 300 182"><defs><style>.cls-1{fill:#fff;}.cls-2{fill:#231f20;}.cls-3{fill:#d0ae00;}</style></defs><title>La Mirada Flag</title><rect class="cls-1" width="300" height="182"/><path class="cls-2" d="M152.31377,36.99042h-6.14983v4.236c-1.108.07892-2.265.21368-3.652.4247-.1021-.53636-.80446-4.05364-.80446-4.05364l-6.38395,1.285s.74186,3.62885.84667,4.15434c-1.10393.2926-2.27457.66422-3.49281,1.09981-.2001-.5023-1.55991-3.83448-1.55991-3.83448l-6.04095,2.47462s1.44833,3.44791,1.65387,3.93933c-1.044.53761-2.12618,1.13246-3.192,1.78173-.29813-.45328-2.31539-3.47507-2.31539-3.47507l-5.39709,3.61531s2.0758,3.1307,2.36845,3.57036c-.94874.735-1.87433,1.52585-2.77135,2.314-.38113-.37843-2.9456-2.94286-2.9456-2.94286l-4.60354,4.59806s2.62711,2.67061,3.00143,3.04223c-.7827.94329-1.5327,1.88118-2.2405,2.8081-.44378-.30083-3.48463-2.32217-3.48463-2.32217l-3.60987,5.39846s3.09669,2.07309,3.5282,2.36844c-.62206,1.11211-1.17333,2.1983-1.66882,3.23007-.49819-.20554-3.83855-1.56531-3.83855-1.56531l-2.46781,5.99057s3.3907,1.4102,3.88208,1.61158c-.39471,1.21422-.72824,2.38623-.99094,3.49285-.53083-.10892-4.04952-.80446-4.04952-.80446L94.64864,85.812s3.63571.74589,4.15566.85074c-.166,1.29314-.26407,2.48276-.30353,3.60442H94.35051v6.48739h4.24825c.0776,1.1107.21373,2.31261.41927,3.652-.5404.10343-4.059.80039-4.059.80039l1.24,6.34449s3.64256-.70917,4.15433-.80588c.339,1.12441.716,2.265,1.1475,3.45746-.5023.20687-3.83447,1.60345-3.83447,1.60345l2.47329,5.947s3.44649-1.41153,3.93242-1.61034c.52544,1.0277,1.1203,2.08132,1.78452,3.14981-.45461.3049-3.47507,2.31536-3.47507,2.31536l3.61527,5.39845s3.13074-2.07168,3.5731-2.36711c.70922.92426,1.50143,1.86481,2.31677,2.77-.38387.38109-2.94834,2.94153-2.94834,2.94153l4.61032,4.60346s2.65295-2.623,3.03138-2.99187c.98.84808,1.9179,1.58442,2.84624,2.23917-.30358.45736-2.3154,3.47241-2.3154,3.47241l5.39845,3.61664s2.06766-3.08443,2.36575-3.52409c1.03995.60026,2.11937,1.16246,3.22874,1.66742-.21373.50363-1.61167,3.83173-1.61167,3.83173l6.045,2.47736s1.40339-3.39755,1.60482-3.88482c1.21691.39472,2.38888.72554,3.49144.9855-.10344.53495-.79491,4.055-.79491,4.055l6.38665,1.28907s.69965-3.63575.80176-4.15849c1.32986.15926,2.52771.26,3.652.3049v4.09992h6.48194v-4.19247c1.10123-.07759,2.26231-.21235,3.64934-.422.11161.539.80176,4.05638.80176,4.05638l6.39072-1.29181s-.74045-3.59487-.85074-4.10939q1.83354-.539,3.49962-1.14069c.2001.50364,1.55584,3.83307,1.55584,3.83307l5.99327-2.47728s-1.44148-3.43976-1.647-3.9311c1.025-.51044,2.07991-1.09582,3.1879-1.78456.30216.456,2.31673,3.47516,2.31673,3.47516l5.39434-3.61806s-2.069-3.08991-2.363-3.52815c1.01545-.82765,1.94515-1.61167,2.76864-2.35217.3825.37976,2.9456,2.94012,2.9456,2.94012l4.60488-4.60487s-2.62845-2.62566-2.99321-2.99454c.78129-.95558,1.52315-1.90976,2.23232-2.84624.45191.30075,3.47918,2.3181,3.47918,2.3181l3.61531-5.4434s-3.09124-2.03089-3.5282-2.32358c.62206-1.11751,1.16653-2.20237,1.66883-3.22459.49819.20006,3.83988,1.55717,3.83988,1.55717l2.47055-5.94429s-3.39752-1.40471-3.88615-1.60751c.33618-1.05221.6901-2.25413.98549-3.53639.54172.11573,4.05493.84941,4.05493.84941l1.2877-6.38943s-3.63845-.74323-4.15571-.848c.1579-1.29721.26407-2.48417.29814-3.60442h4.157V88.76031h-4.24007c-.08167-1.10671-.2151-2.26235-.42334-3.64937.54447-.10892,4.04679-.799,4.04679-.799L204.085,77.91978s-3.66429.73775-4.19106.84667c-.28587-1.04805-.64519-2.16839-1.108-3.4533.505-.21235,3.83173-1.60345,3.83173-1.60345l-2.47869-5.992s-3.44791,1.41428-3.93247,1.61034c-.55946-1.04273-1.14476-2.10715-1.7804-3.14707.45191-.30357,3.47507-2.31951,3.47507-2.31951l-3.61531-5.39571s-3.13341,2.07309-3.57581,2.36437c-.76089-.99363-1.55447-1.91923-2.35212-2.77138.38657-.38923,2.98507-2.98506,2.98507-2.98506l-4.60762-4.55719s-2.66384,2.62566-3.03541,2.996c-.97461-.84119-1.96555-1.594-2.84354-2.24192.29813-.45461,2.3154-3.4764,2.3154-3.4764l-5.39846-3.614s-2.07446,3.08991-2.36574,3.52816c-1.06991-.59751-2.133-1.14335-3.18791-1.66874.20284-.49275,1.564-3.83581,1.564-3.83581l-5.996-2.476s-1.40476,3.39756-1.60756,3.88756c-1.21554-.39612-2.38751-.72828-3.49281-.98824.10618-.535.8004-4.055.8004-4.055l-6.38395-1.28633s-.70647,3.63433-.80177,4.15707c-1.22642-.1429-2.45418-.2273-3.648-.3049V36.99042Z"/><path class="cls-3" d="M151.97621,37.66827v4.10257l.31442.02451c1.38976.08582,2.8258.1743,4.23874.34985l.31579.04088s.67922-3.53506.78947-4.104c.56083.11565,4.51232.91064,5.0609,1.02222-.10892.55672-.799,4.02772-.799,4.02772l.31715.07352c1.27408.28721,2.63252.67112,4.05767,1.14476l.29946.098s1.37074-3.3104,1.58986-3.8358c.51589.215,4.221,1.74368,4.73964,1.96011-.21643.524-1.54629,3.79085-1.54629,3.79085l.28314.13883c1.21961.60981,2.47325,1.24,3.70786,1.94648l.27495.15387s2.02271-3.00958,2.33987-3.4833c.47235.31446,3.80585,2.54815,4.27276,2.85986-.31716.4778-2.30177,3.44924-2.30177,3.44924l.26137.19191c1.00863.73235,2.1833,1.613,3.30359,2.59991l.23819.20413s2.59849-2.55762,3.00139-2.95782c.39613.39471,3.24643,3.211,3.65207,3.60983-.41245.40559-2.97011,2.96462-2.97011,2.96462l.226.24094a35.2339,35.2339,0,0,1,2.72507,3.2083l.196.25322s3.05855-2.02682,3.53634-2.33986c.309.46143,2.54,3.80174,2.8585,4.26865-.47917.32127-3.44924,2.30447-3.44924,2.30447l.17285.27633c.75412,1.20192,1.42516,2.45418,2.07173,3.66432l.14564.2681s3.34442-1.36932,3.87393-1.58574c.21373.52132,1.74776,4.22511,1.95874,4.74644-.5254.21916-3.799,1.594-3.799,1.594l.11025.29942c.55809,1.53.961,2.80271,1.27407,4.0033l.08167.313s3.57991-.72412,4.15159-.83853c.11024.55946.86843,4.50419.97461,5.05683-.55672.11158-4.02228.79633-4.02228.79633l.05309.32118c.25726,1.65521.4029,2.95516.48593,4.22786l.01633.31853h4.19517v5.1316h-4.1135l-.015.33083c-.03813,1.28358-.15789,2.65158-.34848,4.17743l-.0422.31578s3.54315.72147,4.10124.83446c-.113.554-.90245,4.50277-1.01677,5.05816-.55809-.11847-4.03457-.84127-4.03457-.84127l-.07216.32941a42.44236,42.44236,0,0,1-1.14609,4.09036l-.09122.30084s3.30227,1.36666,3.83585,1.58716c-.21917.51858-1.7505,4.18017-1.96011,4.69875-.52407-.215-3.79771-1.54628-3.79771-1.54628l-.1402.28721c-.5676,1.18015-1.19922,2.45285-1.94241,3.75006l-.15519.27358s3.00413,1.98055,3.48329,2.29634c-.31171.471-2.54677,3.84128-2.86123,4.31359-.475-.31853-3.437-2.29492-3.437-2.29492l-.19873.25448c-.82353,1.08486-1.67971,2.20926-2.60393,3.31182l-.20147.23544s2.54677,2.55089,2.95241,2.95375c-.39745.40161-3.2505,3.24917-3.64526,3.64937-.40564-.40568-2.917-2.92251-2.917-2.92251l-.23956.22191c-.93648.85207-2.01864,1.77093-3.22055,2.73458l-.24231.19333s2.0132,3.0109,2.33173,3.48329c-.46824.31579-3.79772,2.54807-4.27,2.85978-.32122-.47505-2.30314-3.44923-2.30314-3.44923l-.28039.17563a37.65087,37.65087,0,0,1-3.6888,2.06487l-.29265.143s1.41427,3.358,1.64021,3.88341c-.535.21642-4.221,1.74235-4.74507,1.956-.21506-.52673-1.545-3.79909-1.545-3.79909l-.31172.11166c-1.2577.46417-2.63114.9079-4.05629,1.32438l-.30221.08441s.7201,3.49285.83849,4.055c-.55535.11166-4.49733.90524-5.05268,1.01682-.10892-.55946-.79495-4.01958-.79495-4.01958l-.32534.05309c-1.65383.2573-2.95919.40568-4.22508.48186l-.32127.019V147.758h-5.13164v-4.07125l-.32667-.01089c-1.27138-.03954-2.657-.15245-4.22649-.35259l-.31309-.04079s-.68466,3.5363-.79353,4.10257c-.56084-.11025-4.50689-.90515-5.05546-1.02089.10347-.554.78813-4.02913.78813-4.02913l-.31578-.07078a41.13173,41.13173,0,0,1-4.04546-1.14476l-.30079-.098s-1.37211,3.31306-1.58853,3.83854c-.524-.21235-4.26458-1.74509-4.78591-1.95877.22461-.53354,1.59393-3.80449,1.59393-3.80449l-.30623-.13616a37.74962,37.74962,0,0,1-3.73237-1.9356l-.27632-.16334s-2.02819,3.0178-2.34124,3.49011c-.46417-.31446-3.80722-2.55089-4.27139-2.86393.313-.47505,2.30584-3.45472,2.30584-3.45472l-.27632-.18784a37.59906,37.59906,0,0,1-3.29952-2.59575l-.23275-.20687s-2.59987,2.55761-3.00006,2.95648c-.4002-.39612-3.24914-3.24643-3.64933-3.648.40019-.40427,2.91432-2.91428,2.91432-2.91428l-.22054-.23827c-.946-1.04266-1.87162-2.14928-2.687-3.21919l-.18647-.24907s-3.06,2.02134-3.535,2.33854c-.31034-.46966-2.54677-3.8059-2.86119-4.27414.475-.31986,3.44923-2.29907,3.44923-2.29907l-.17152-.2804a41.28086,41.28086,0,0,1-2.06761-3.65344l-.1402-.279s-3.358,1.37481-3.88482,1.58849c-.21916-.52-1.74912-4.18566-1.9601-4.7015.52814-.22191,3.80315-1.59123,3.80315-1.59123l-.11162-.3049c-.51044-1.39658-.94329-2.70883-1.32035-4.01418l-.08985-.29809s-3.53634.6874-4.0985.79225c-.10618-.55132-.86981-4.462-.976-5.01056.55809-.113,4.01957-.799,4.01957-.799l-.04627-.31853c-.25049-1.58308-.407-2.96736-.48187-4.23325l-.02176-.31579H95.0284V90.94631h4.1135l.01358-.32941c.03951-1.28492.15657-2.65291.34985-4.18291l.04221-.31031s-3.53909-.7242-4.10262-.83852c.11162-.54858.9079-4.51091,1.01545-5.0609.55942.11166,4.0359.79632,4.0359.79632l.07078-.32127c.2804-1.26448.67652-2.6284,1.142-4.04949l.10074-.29942s-3.309-1.36392-3.83718-1.58857c.21372-.52133,1.74776-4.22238,1.96011-4.741.5227.21509,3.79771,1.54354,3.79771,1.54354l.13883-.28579c.569-1.18148,1.19921-2.45427,1.941-3.75007l.15656-.27358s-3.01231-2.01727-3.48737-2.3358c.31853-.471,2.54678-3.80722,2.868-4.27546.46824.31845,3.43972,2.29766,3.43972,2.29766l.19465-.25456c.81261-1.07123,1.68512-2.171,2.59987-3.27094l.20824-.23412s-2.55766-2.59168-2.95649-2.99727c.39609-.39613,3.24644-3.25051,3.64389-3.64664.40564.40294,2.91428,2.91021,2.91428,2.91021l.23956-.20828c1.044-.90922,2.11668-1.85526,3.22056-2.6883l.25319-.19333s-2.02271-3.06125-2.34124-3.5309c.46147-.31711,3.80315-2.54947,4.27413-2.86526.31172.47779,2.30311,3.4533,2.30311,3.4533l.28039-.177c1.21829-.76907,2.49643-1.44825,3.697-2.069l.28176-.14423s-1.41153-3.34447-1.63476-3.87668c.52677-.21509,4.26051-1.74368,4.78728-1.96285.20961.53221,1.545,3.80457,1.545,3.80457l.30353-.10892c1.41565-.52,2.77683-.94877,4.04953-1.27677l.31442-.08715s-.72957-3.54312-.84256-4.10258c.554-.11024,4.49733-.90789,5.05816-1.02088.113.56212.79491,4.02223.79491,4.02223l.32123-.04627c1.65387-.25863,2.95241-.41108,4.22512-.4886l.32127-.01636V37.66827Z"/><path class="cls-2" d="M193.48494,113.86144a14.21678,14.21678,0,0,1-2.34942-5.23512A44.44659,44.44659,0,0,1,190.293,98.246c.7051-11.17808-5.68429-29.501-15.704-35.30908-6.8767-4.03869-11.13854-4.56949-15.30375-4.16929-4.16933.39745-4.43473,1.10795-4.70291.04353-.26677-1.06583-1.19918-7.27282.08441-10.379,1.24819-3.10619,1.828-4.03453,1.42378-3.81677a16.33916,16.33916,0,0,0-5.09625,3.90251c-1.873,2.26368-5.50189,6.8345-6.21788,9.22745-.74867,2.39569-.7922,2.08531-.7922,2.08531-8.56593-2.92791-18.32288,1.06309-23.9133,7.80644-7.6294,9.23019-9.8073,20.31971-9.13759,32.02859.66152,12.33373-6.78959,14.81782-3.23281,14.59325,13.34232-.7527,24.47815-6.34041,32.28589-17.38773,1.7328-2.48284,2.08667-3.63574,2.08667-2.574,0,11.3999-3.505,23.15913-7.35989,33.80359,0,0,8.86809,3.28457,15.83189,3.10487,6.96385-.22324,15.21262-2.70467,15.03836-3.192-3.59487-8.34265-8.38489-24.17454-7.36808-33.27271.53766-4.47826.13883-3.54727,1.46873-2.08124,1.32716,1.50682,7.40754,10.9983,14.76884,15.03557,7.49739,4.07948,20.23123,7.36405,19.03206,6.1662M182.52332,75.80008c2.85031,1.24271,5.19291,12.02193,5.37939,14.8164.26,4.12443.52269,7.3191-.0953,5.36855-.61657-1.952-3.85757-13.84055-4.3013-15.43851-.44647-1.55176-1.60078-5.01055-.98279-4.74644M113.10707,89.73035c.17426-2.79722,1.81991-12.60041,4.65933-13.83913.62069-.27084,0,2.2174-.4478,3.76643-.441,1.6007-3.501,13.488-4.12168,15.43851-.62206,1.95471-.35662-1.23864-.08985-5.36581m-2.31262,22.35883c-.66019.08574,6.12665-23.95679,6.21513-24.26717a17.53581,17.53581,0,0,1,.75682-2.48277c.70917-1.73147.70917.132.62069,2.883-.09255,2.70467-2.35075,22.48943-2.48413,22.891-.17833.35118-4.3912.88613-5.10851.97594m12.9108-3.77184c-.083.39879-3.991,1.99409-5.49782,2.171-1.46329.181,3.814-25.10428,4.16929-26.21365,0,0,.44514-1.46462,1.01956-3.10753.52946-1.63891.40289,1.06443.8902,5.103.48456,4.07947-.4451,21.64824-.58123,22.0471m6.746-4.21423a51.74252,51.74252,0,0,1-4.52728,3.01506c-.8875.40152.4002-12.72985.48731-13.79427.09255-1.02089,2.09212-11.75649,2.8857-14.81649.799-2.887,1.11074,9.0941,1.32853,12.28878.2232,3.14981-.17426,13.30692-.17426,13.30692M132.67,102.2383c-.931.40019.13205-11.75383.26407-13.79286,0,0,.795-7.40891,1.59667-10.46883.80035-3.06,1.285,4.69876,1.55584,7.98465.26407,3.2383.26407,12.37452.26407,12.37452s-2.74825,3.50365-3.68065,3.90252m6.256-7.3191c-1.55859,2.1752-.8031-10.24559-.22461-12.7311.17833-.75412,1.19922-3.23688,1.82128-4.79006.61795-1.55168.75,1.01956.53084,2.43923-.22187,1.42108.40157,5.721.62206,8.38493.22054,2.65973-1.19785,4.56541-2.74957,6.697m3.10212-28.25543s-21.95726,6.92165-23.51305,7.14214c-1.5055.22191,2.12888-5.68159,9.40847-10.46883,7.315-4.79139,15.30243-1.81995,15.30243-1.81995Zm-4.92066,60.329c-.31035-.39745.30627-.7527.92966-2.039,2.574-5.45694,3.45742-11.13447,5.01189-16.85826.31171-1.10937.44373,1.0645.31171,4.83633-.17289,3.81263-2.52908,14.37-2.74957,14.90223-.226.53221-3.19742-.44107-3.50369-.84127m4.78865,1.28633c.48456-.26544,3.85894-13.30692,4.39115-16.50434.17833-.92967.26407.53362.39882,1.68652.57579,4.6593-.84255,10.73427-1.598,15.35-.08578.44381-3.67795-.26677-3.192-.53221m7.84719,1.06309s-2.61619,0-3.14707-.08707c-.53221-.04361-.309-.57715.31039-3.1076.62339-2.48011,1.64295-10.24427,1.82124-11.08819.22186-.83986.35529-5.36855.92833-.66431.57579,4.79006.22324,10.11366.08711,14.94717m.58123-28.3017c-6.34037-.93241-7.67572-13.53016-7.94386-23.06384-.35255-12.24525,2.39569-19.87465,9.8073-28.4338.66564-.93515.66564.75138.26,2.61345-.39338,1.8649-.39338,4.9234,1.73687,12.20171,2.79315,8.60534,2.79315,22.75354,2.6611,24.08747-.13746,1.32853-1.59393,12.72844-6.52141,12.595m1.5504,28.39292c-.88069-.13342-.80177-11.80143-.70784-12.33231.08715-.53088.40156-6.61267.9324-1.64432a103.89258,103.89258,0,0,0,2.79589,13.53149,18.83167,18.83167,0,0,1-3.02045.44514m4.61983-.6221c-1.73006-.754-3.50776-24.39777-2.04448-16.37091.21643,1.20059.97732,3.28589,1.90839,6.78821a88.93916,88.93916,0,0,0,3.10483,8.91715c.17559.35525-2.53041.84251-2.96874.66555m4.03046-9.44927c.84122,2.35075,2.9252,7.49739,2.97011,7.76549.04764.26544-1.99276.70651-2.43653.75279-.39883.04079-.44236-.61937-1.19648-2.88163-.80035-2.31129-2.48687-11.40132-2.48687-11.40132a19.22782,19.22782,0,0,1-.39746-3.2859c0-1.37472.618.49009.92834,1.55177.309,1.02363,1.7777,5.10443,2.61889,7.4988m-3.81674-52.47773L155.38,61.51713s9.09543-2.84075,16.41179,1.95064c7.23332,4.75051,11.453,10.56005,9.89308,10.33814-1.50682-.22049-24.97634-6.92164-24.97634-6.92164m3.908,22.93456c-.04628,1.19785-2.04177-3.28174-2.04177-3.28174s-.04491-4.168-.13339-5.76733c.08848-.045-.35392-3.55134-.35392-3.81678-.0422-1.594.48731.13609,1.11074,2.04178a71.26969,71.26969,0,0,1,1.41834,10.82407m1.7355,3.595c-.49682-1.153-.67108-22.04985,1.368-14.46257.31034,1.23864,1.157,5.54675,1.51226,7.09578.35118,1.50957,1.64025,11.13447,1.76956,12.28878.17285,2.039-4.432-4.47826-4.64982-4.922m6.25327,7.50279a13.862,13.862,0,0,0-.31579-1.73687c-.88339-7.01279-.2205-14.28287.26814-21.2031.61936-1.598,1.94922,5.8544,2.56858,9.04907.62339,3.237,2.44193,16.54522,2.48551,17.16724.1375,1.54089-4.68792-2.9687-5.00644-3.27634m13.48118,8.0664c-.08715.84252-4.34762-1.643-6.60856-2.88437a42.74908,42.74908,0,0,1-.80039-5.01188,165.2465,165.2465,0,0,1-.39608-24.31071c.70643-1.81721,1.99819,4.52454,3.54585,10.24966,1.594,5.76193,4.30409,21.29166,4.25918,21.9573m8.02823,2.97144c-.6629-.09122-5.54135-1.42108-5.67611-1.775-.13476-.39879-2.97418-22.57791-3.01639-25.28258-.08985-2.70874-.08985-4.61443.57712-2.88437a10.31891,10.31891,0,0,1,.75412,2.4855c.13068.309,8.07043,27.5436,7.36126,27.45645"/><path class="cls-2" d="M83.33747,99.61014a8.5556,8.5556,0,0,1,.12794-3.10079l-.39339.049-.11568-.90524,1.77363-.2205.11162.9025-.76637.09936a6.77252,6.77252,0,0,0-.20962,2.95923c.20962,1.70962.75412,2.657,1.38977,2.57673a.59931.59931,0,0,0,.50637-.37569c.40564-1.15431-.09529-2.88986.08985-4.26732.04216-.30632.196-1.62388,1.13113-1.74368.82486-.10078,1.922.80853,2.21193,3.16069a6.31452,6.31452,0,0,1-.11569,2.41879l.29809-.03813.11025.8848-1.8281.22864-.10887-.88746.87795-.11025a4.87956,4.87956,0,0,0,.23279-2.38074c-.18648-1.4755-.80721-2.48276-1.43878-2.40384-.47368.05857-.6779.50089-.77315,1.21554-.15382,1.16927.17422,2.65973.00952,3.83307-.09937.69421-.4628,1.29447-.99775,1.35852-1.1529.14564-1.8907-1.41568-2.12344-3.25325"/><polygon class="cls-2" points="90.433 113.058 91.822 112.63 90.964 109.861 86.585 111.217 87.183 113.163 86.663 113.324 85.193 108.565 85.711 108.402 86.314 110.348 90.696 108.992 89.838 106.224 88.454 106.653 88.186 105.784 90.09 105.198 92.615 113.336 90.701 113.925 90.433 113.058"/><path class="cls-2" d="M91.06042,123.12228l.48186-.25048.74726,1.44011.6602-1.17741-2.19016-4.25237-1.33393-.11432.69555,1.33942-.49.25048-1.60482-3.12123.48187-.24907.471.91471,6.12258.6329.60437,1.2074-2.98507,5.41067.41108.79358-.49005.25182ZM95.03916,119.3,91.413,118.9584l1.85663,3.603Z"/><polygon class="cls-2" points="101.618 132.154 102.765 131.279 101.016 128.974 97.365 131.75 98.599 133.37 98.164 133.703 95.151 129.739 95.585 129.409 96.818 131.026 100.465 128.246 98.71 125.944 97.559 126.822 97.003 126.098 98.599 124.887 103.756 131.672 102.168 132.88 101.618 132.154"/><polygon class="cls-2" points="101.543 137.612 101.915 137.211 102.879 138.097 105.992 134.731 105.012 133.822 105.378 133.418 111.194 138.804 109.906 140.192 109.244 139.576 110.158 138.585 106.646 135.34 105.276 136.822 107.214 138.624 107.712 138.084 108.376 138.703 107.021 140.173 106.354 139.557 106.845 139.024 104.9 137.226 103.529 138.703 107.116 142.019 108.036 141.027 108.702 141.645 107.417 143.037 101.543 137.612"/><path class="cls-2" d="M121.22382,151.82593c-2.35619-1.12574-3.3485-3.0831-2.64614-4.55179.603-1.26323,2.57128-2.05133,5.21875-.79358,3.07766,1.46736,2.96467,3.65884,2.56177,4.5-.69691,1.47143-2.70741,1.99824-5.13438.84534m2.30584-4.86625c-2.28545-1.08893-3.75825-.07485-4.14208.7228-.54313,1.13662.14564,2.73051,2.08942,3.6561,1.95737.93382,3.50914.40975,4.04953-.73094.33074-.68873.49545-2.45692-1.99687-3.648"/><polygon class="cls-2" points="136.429 153.023 136.787 151.731 132.144 150.453 131.604 152.405 134.173 153.111 134.371 152.405 135.253 152.643 134.712 154.581 133.839 154.337 134.028 153.635 131.459 152.931 130.928 154.872 133.016 155.45 132.874 155.976 128.691 154.825 128.839 154.299 130.048 154.631 131.271 150.209 130.037 149.873 130.185 149.346 137.812 151.445 137.314 153.265 136.429 153.023"/><path class="cls-2" d="M152.29786,158.30974c-3.03.06671-4.564-1.34074-4.60355-2.97958-.02858-1.51771,1.66065-2.88437,4.25781-2.94153a6.66043,6.66043,0,0,1,2.39021.3648l.49956.177-.01088-.603.89431-.02177.04084,2.11663-.893.02036-.01632-.80713a5.16209,5.16209,0,0,0-2.7809-.71191c-1.23054.02584-3.49011.60025-3.45334,2.43649.03676,1.56946,1.66064,2.446,3.74869,2.40383a7.938,7.938,0,0,0,3.08854-.72138l.41108.45461a9.09469,9.09469,0,0,1-3.5731.81261"/><path class="cls-2" d="M164.82292,156.62031l-.11025-.5323,1.58986-.31844-.9501-.96373-4.692.93241-.47775,1.24678,1.4755-.29261.11025.53628-3.44105.682-.11162-.53637,1.01-.2,2.21192-5.70478,1.41565-.24766,4.37345,4.36528.87662-.17148.10751.53354Zm-2.57536-4.8812-1.334,3.392,3.9733-.78943Z"/><polygon class="cls-2" points="170.738 155.129 170.544 154.618 172.174 153.983 170.51 149.709 168.878 150.35 168.675 149.838 173.082 148.119 173.275 148.628 171.354 149.379 173.022 153.655 177.432 151.931 176.705 150.064 177.552 149.736 178.476 152.11 170.738 155.129"/><polygon class="cls-2" points="181.006 150.763 180.738 150.29 182.395 149.36 180.156 145.357 178.502 146.284 178.235 145.81 182.09 143.647 182.358 144.123 180.714 145.045 182.953 149.048 184.596 148.127 184.864 148.603 181.006 150.763"/><polygon class="cls-2" points="191.169 139.479 190.36 138.411 186.53 141.329 187.752 142.945 189.874 141.326 189.428 140.741 190.153 140.188 191.366 141.782 190.645 142.335 190.206 141.761 188.082 143.376 189.305 144.98 191.031 143.663 191.363 144.1 187.911 146.727 187.582 146.292 188.584 145.53 185.8 141.883 184.789 142.652 184.453 142.219 190.748 137.428 191.893 138.924 191.169 139.479"/><path class="cls-2" d="M199.15668,137.17c-1.7954,1.90162-3.961,2.24466-5.148,1.12848-1.01818-.95966-1.16652-3.0777.84667-5.20795,2.34124-2.4787,4.3939-1.70555,5.07037-1.06168,1.18153,1.11751,1.07265,3.19193-.76907,5.14115m-3.927-3.68194c-1.73824,1.84305-1.22373,3.554-.58123,4.16248.91741.86569,2.64751.69829,4.11894-.86844,1.49187-1.57627,1.46736-3.21511.55128-4.07947-.55672-.52407-2.19016-1.22236-4.089.78543"/><path class="cls-2" d="M207.7003,125.82529a27.97082,27.97082,0,0,0-3.49007.91338l-1.0277,1.55991,1.56128,1.02629.72006-1.08893.45735.29809-1.937,2.92791-.45461-.29676.71735-1.093-3.82629-2.52364-.72005,1.09441-.456-.2995,2.66658-4.05223c1.08079-1.64432,2.09756-1.90428,2.81218-1.436.96917.64113.52,2.08672.02043,3.04364a23.76227,23.76227,0,0,1,2.75776-.7596l.91334-1.39658.45873.30084Zm-4.05634-2.3181c-.55672.07079-1.044.72687-1.44148,1.33535l-1.29584,1.96011,1.82128,1.19776.90515-1.38295c.54995-.829,1.52589-2.40242.61392-3.0055a.86435.86435,0,0,0-.603-.10477"/><polygon class="cls-2" points="208.565 112.36 213.275 114.393 212.798 115.503 206.416 117.92 210.416 119.646 211.123 118.007 211.625 118.224 210.034 121.915 209.533 121.698 210.057 120.482 205.848 118.668 205.309 119.898 204.81 119.683 205.836 117.312 212.236 114.933 208.2 113.196 207.502 114.824 207.002 114.609 208.557 110.991 209.065 111.207 208.565 112.36"/><polygon class="cls-2" points="214.637 110.136 214.109 109.996 214.594 108.16 210.149 107.001 209.674 108.84 209.148 108.7 210.264 104.419 210.788 104.559 210.314 106.386 214.749 107.542 215.229 105.716 215.76 105.854 214.637 110.136"/><path class="cls-2" d="M217.11069,97.13893l-.54854-.06131.19055-1.61159-1.21144.60981-.539,4.75325,1.03991.83571.177-1.49727.539.06123-.39472,3.48736-.54583-.06264.11162-1.01814-4.72742-3.88615.1647-1.38437,5.48831-2.83535.10618-.88879.539.06123Zm-5.43518.96364,2.8258,2.30315.4601-4.02772Z"/><path class="cls-2" d="M88.23187,75.45106l1.35575-2.736A3.803,3.803,0,0,1,90.908,74.00273a4.05705,4.05705,0,0,1,.56079,1.7804,7.65877,7.65877,0,0,1-.2477,2.4325,9.03934,9.03934,0,0,1-1.06583,2.74546A4.4458,4.4458,0,0,1,88.34486,82.536a3.88818,3.88818,0,0,1-2.6829.20147,3.7759,3.7759,0,0,1-2.75639-2.15335,6.5917,6.5917,0,0,1-.12387-4.24282,7.02062,7.02062,0,0,1,1.37614-3.01912,3.91981,3.91981,0,0,1,2.314-1.25368l-.20961,3.03408a1.79318,1.79318,0,0,0-.618.19059,1.891,1.891,0,0,0-.60843.57034,2.42961,2.42961,0,0,0-.37162.85755,2.21179,2.21179,0,0,0,.27225,1.88384,2.47915,2.47915,0,0,0,1.49864.83579,2.56655,2.56655,0,0,0,1.98325-.09123A2.18381,2.18381,0,0,0,89.28,77.957a2.22724,2.22724,0,0,0-.05309-1.52319,2.3373,2.3373,0,0,0-.995-.98275"/><rect class="cls-2" x="88.35365" y="64.33436" width="2.9762" height="8.35596" transform="translate(-7.34793 126.12873) rotate(-67.98924)"/><polygon class="cls-2" points="87.432 63.26 91.619 55.698 93.429 56.697 92.017 59.237 97.526 62.283 96.155 64.763 90.648 61.718 89.243 64.258 87.432 63.26"/><polygon class="cls-2" points="91.986 54.946 94.189 52.113 97.718 52.167 96.785 48.774 98.973 45.962 100.315 52.147 103.079 54.29 101.085 56.851 98.326 54.702 91.986 54.946"/><path class="cls-2" d="M107.21437,43.76825a3.84615,3.84615,0,0,1-.74727-3.40836,6.15863,6.15863,0,0,1,2.50321-3.27368,6.34318,6.34318,0,0,1,3.89433-1.47824,3.77807,3.77807,0,0,1,2.99736,1.68926,4.22843,4.22843,0,0,1,.931,2.29766,3.99683,3.99683,0,0,1-.56084,2.22962,7.05682,7.05682,0,0,1-2.02,2.14388,8.14278,8.14278,0,0,1-2.61893,1.36933,4.1602,4.1602,0,0,1-2.35486-.03133,3.986,3.986,0,0,1-2.02408-1.53814m2.593-1.9002a2.44563,2.44563,0,0,0,1.55858,1.12166,2.62611,2.62611,0,0,0,2.59442-1.89755,2.667,2.667,0,0,0-.7024-1.91242,2.00462,2.00462,0,0,0-3.13207-.52132,2.17908,2.17908,0,0,0-.93241,1.37746,2.44525,2.44525,0,0,0,.61388,1.83217"/><polygon class="cls-2" points="116.528 32.265 124.094 28.615 124.883 30.235 120.379 32.406 121.013 33.723 124.866 31.869 125.599 33.385 121.748 35.24 123.228 38.31 120.159 39.791 116.528 32.265"/><polygon class="cls-2" points="133.669 25.573 136.714 24.997 137.882 31.181 142.649 30.281 143.027 32.312 135.22 33.783 133.669 25.573"/><path class="cls-2" d="M152.27389,30.69669l-3.3907-.02309-.49138,1.36658-3.06266-.02451,3.68742-8.32769,3.30359.0231,3.56767,8.38219-3.13208-.02177Zm-.62206-1.80624-1.04-3.01639-1.08623,3.00409Z"/><polygon class="cls-2" points="166.255 25.276 170.691 26.777 170.759 32.169 174.098 27.929 178.511 29.429 175.83 37.343 173.078 36.409 175.123 30.376 170.94 35.684 168.456 34.842 168.368 28.087 166.323 34.12 163.571 33.189 166.255 25.276"/><rect class="cls-2" x="177.7924" y="34.69631" width="8.35464" height="2.97642" transform="translate(61.07516 176.92117) rotate(-60.58352)"/><path class="cls-2" d="M184.2987,42.32831l5.18747-6.55,4.21968,3.34032a9.41692,9.41692,0,0,1,1.66334,1.58441,2.43563,2.43563,0,0,1,.53088,1.38844,2.12733,2.12733,0,0,1-1.49731,2.07442,2.71866,2.71866,0,0,1-1.31216.00549,4.42862,4.42862,0,0,1-1.09575-.44648,3.85712,3.85712,0,0,1,.4628.76085,2.97462,2.97462,0,0,1,.12932.66564,3.18067,3.18067,0,0,1,.02995.68873l-.26545,2.86809L189.493,46.44044l.23005-3.06815a2.04962,2.04962,0,0,0-.0599-.867,1.58008,1.58008,0,0,0-.50363-.64113l-.21917-.177L186.84,44.33876Zm5.62443-1.88392,1.06986.848a5.73747,5.73747,0,0,0,.74731.44108.88814.88814,0,0,0,.57441.12113.69468.69468,0,0,0,.46417-.25456.72459.72459,0,0,0,.132-.69006,2.34884,2.34884,0,0,0-.814-.91887l-1.11888-.88065Z"/><path class="cls-2" d="M198.78673,54.07424,196.602,51.48248l-1.35437.51593-1.98187-2.34668,8.72793-2.61079,2.13021,2.521L200.0812,57.7276l-2.02408-2.39976Zm.96917-1.64573,1.62251-2.755L198.38653,50.806Z"/><path class="cls-2" d="M208.7017,55.7022l2.40114,4.41977a7.49531,7.49531,0,0,1,.87662,2.25953,3.93667,3.93667,0,0,1-.049,1.74642,3.43622,3.43622,0,0,1-.76226,1.402,4.89517,4.89517,0,0,1-1.29584,1.01,4.50539,4.50539,0,0,1-2.01863.6452,3.59922,3.59922,0,0,1-1.61574-.39064,3.95581,3.95581,0,0,1-1.3108-1.02222,10.04769,10.04769,0,0,1-1.16653-1.66343l-2.40113-4.41969Zm-.0476,3.87659-4.00462,2.18069.392.72686a4.33208,4.33208,0,0,0,.87932,1.23731,1.38162,1.38162,0,0,0,.87936.31712,3.062,3.062,0,0,0,1.39657-.47231c.7704-.41922,1.22095-.87392,1.32579-1.36251a2.927,2.927,0,0,0-.46554-1.88667Z"/><path class="cls-2" d="M210.10958,76.159l-1.00182-3.23963-1.45237-.05716-.90245-2.93064,9.0573,1.01.96642,3.15388-6.908,5.93067-.92834-2.99869Zm1.53133-1.13928,2.56721-1.89481-3.19472-.132Z"/><path class="cls-2" d="M139.598,132.51116l-1.69874,5.81767-1.68378-.49,1.11207-3.81271c-1.074-.43418-.88069-.20413-.5404-1.04814a8.99079,8.99079,0,0,1,1.43064-.86428Z"/><path class="cls-2" d="M140.7855,137.741l2.41339.08707a.7652.7652,0,0,0,.25319.52,1.03937,1.03937,0,0,0,.53221.20687,1.08556,1.08556,0,0,0,.946-.28579,2.73814,2.73814,0,0,0,.51177-1.19785,3.15533,3.15533,0,0,1-.94054.33623,3.54408,3.54408,0,0,1-1.06717.01628,3.35775,3.35775,0,0,1-1.89476-.80854,1.69671,1.69671,0,0,1-.61936-1.52725,1.61154,1.61154,0,0,1,.53632-1.02355,2.5908,2.5908,0,0,1,1.20873-.59892,5.81668,5.81668,0,0,1,1.82942-.02858,6.15392,6.15392,0,0,1,2.04315.56212,2.71712,2.71712,0,0,1,1.1325,1.12432,2.95334,2.95334,0,0,1,.25319,1.80358,2.74573,2.74573,0,0,1-1.27,2.21874,4.47968,4.47968,0,0,1-2.819.407,6.39179,6.39179,0,0,1-1.60482-.3648,2.75869,2.75869,0,0,1-.9324-.59211,2.15782,2.15782,0,0,1-.51182-.85481m4.741-2.09212a.90083.90083,0,0,0-.26269-.795,1.38022,1.38022,0,0,0-.82354-.37976,1.24044,1.24044,0,0,0-.81941.14971.854.854,0,0,0-.4029.69563.89445.89445,0,0,0,.23275.799,1.25166,1.25166,0,0,0,.77858.36073,1.37177,1.37177,0,0,0,.87251-.14705.85377.85377,0,0,0,.4247-.68325"/><path class="cls-2" d="M156.32462,134.87254l-2.33168.36613a.79126.79126,0,0,0-.34574-.46009.93281.93281,0,0,0-.54721-.1007,1.06963,1.06963,0,0,0-.863.46691,2.74279,2.74279,0,0,0-.25181,1.27129,3.25957,3.25957,0,0,1,.83711-.50637,3.403,3.403,0,0,1,1.01956-.21642,3.26414,3.26414,0,0,1,1.96555.43018,1.705,1.705,0,0,1,.88609,1.38295,1.63222,1.63222,0,0,1-.31986,1.10256,2.42758,2.42758,0,0,1-1.04947.80986,5.30426,5.30426,0,0,1-1.74775.37436,5.73025,5.73025,0,0,1-2.07036-.15793,2.66534,2.66534,0,0,1-1.30265-.882,3.04783,3.04783,0,0,1-.58534-1.73554,2.79363,2.79363,0,0,1,.80313-2.42154,4.27411,4.27411,0,0,1,2.62845-.93921,6.31175,6.31175,0,0,1,1.61707.049,2.66639,2.66639,0,0,1,1.01137.41374,1.98392,1.98392,0,0,1,.64653.75279m-4.15433,2.95241a.88269.88269,0,0,0,.39612.72953,1.32637,1.32637,0,0,0,.86981.21376,1.21009,1.21009,0,0,0,.76089-.30216.90259.90259,0,0,0,.26407-.7596.94742.94742,0,0,0-.3825-.73642,1.21192,1.21192,0,0,0-.82216-.2082,1.283,1.283,0,0,0-.80991.313.842.842,0,0,0-.27632.75"/><path class="cls-2" d="M157.92212,136.26513a2.72753,2.72753,0,0,1,.27089-2.52771,4.767,4.767,0,0,1,2.53859-1.38569,6.19315,6.19315,0,0,1,1.47687-.24094,3.1117,3.1117,0,0,1,1.01956.12388,2.38653,2.38653,0,0,1,.686.33215,1.93759,1.93759,0,0,1,.48731.49956,3.84551,3.84551,0,0,1,.60436,1.27677,3.05712,3.05712,0,0,1-.18377,2.49639,4.248,4.248,0,0,1-2.56177,1.46877,5.70585,5.70585,0,0,1-1.83349.24226,2.8763,2.8763,0,0,1-1.2877-.377,2.14725,2.14725,0,0,1-.72006-.73642,3.96243,3.96243,0,0,1-.49682-1.172m2.38207-.63291a2.79879,2.79879,0,0,0,.69966,1.4156,1.02571,1.02571,0,0,0,.95692.17015,1.18305,1.18305,0,0,0,.59888-.34437,1.03192,1.03192,0,0,0,.2573-.64387,3.83042,3.83042,0,0,0-.18107-1.17874,2.89015,2.89015,0,0,0-.70373-1.45373,1.09815,1.09815,0,0,0-.995-.16068,1.02271,1.02271,0,0,0-.765.64113,2.98139,2.98139,0,0,0,.132,1.55451"/></svg>