<svg xmlns="http://www.w3.org/2000/svg" xmlns:xlink="http://www.w3.org/1999/xlink" viewBox="0 0 100 100"><defs><style>.cls-1,.cls-3{fill:none;}.cls-2{clip-path:url(#clip-path);}.cls-3{stroke:#514031;stroke-miterlimit:10;stroke-width:1.5px;}.cls-4{clip-path:url(#clip-path-2);}.cls-5{fill:url(#New_Pattern_49);}</style><clipPath id="clip-path"><rect id="SVGID" class="cls-1" width="100" height="100"/></clipPath><clipPath id="clip-path-2"><polygon id="SVGID-2" data-name="SVGID" class="cls-1" points="100 0 100 100 0 100 0 0 100 0"/></clipPath><pattern id="New_Pattern_49" data-name="New Pattern 49" width="100" height="100" patternTransform="translate(86.72 20.22)" patternUnits="userSpaceOnUse" viewBox="0 0 100 100"><rect class="cls-1" width="100" height="100"/><g class="cls-2"><line class="cls-3" x2="100"/><line class="cls-3" y1="4.35" x2="100" y2="4.35"/><line class="cls-3" y1="8.7" x2="100" y2="8.7"/><line class="cls-3" y1="13.04" x2="100" y2="13.04"/><line class="cls-3" y1="17.39" x2="100" y2="17.39"/><line class="cls-3" y1="21.74" x2="100" y2="21.74"/><line class="cls-3" y1="26.09" x2="100" y2="26.09"/><line class="cls-3" y1="30.43" x2="100" y2="30.43"/><line class="cls-3" y1="34.78" x2="100" y2="34.78"/><line class="cls-3" y1="39.13" x2="100" y2="39.13"/><line class="cls-3" y1="43.48" x2="100" y2="43.48"/><line class="cls-3" y1="47.83" x2="100" y2="47.83"/><line class="cls-3" y1="52.17" x2="100" y2="52.17"/><line class="cls-3" y1="56.52" x2="100" y2="56.52"/><line class="cls-3" y1="60.87" x2="100" y2="60.87"/><line class="cls-3" y1="65.22" x2="100" y2="65.22"/><line class="cls-3" y1="69.57" x2="100" y2="69.57"/><line class="cls-3" y1="73.91" x2="100" y2="73.91"/><line class="cls-3" y1="78.26" x2="100" y2="78.26"/><line class="cls-3" y1="82.61" x2="100" y2="82.61"/><line class="cls-3" y1="86.96" x2="100" y2="86.96"/><line class="cls-3" y1="91.3" x2="100" y2="91.3"/><line class="cls-3" y1="95.65" x2="100" y2="95.65"/><line class="cls-3" y1="100" x2="100" y2="100"/></g><g class="cls-4"><line class="cls-3" y1="100"/><line class="cls-3" x1="4.35" y1="100" x2="4.35"/><line class="cls-3" x1="8.7" y1="100" x2="8.7"/><line class="cls-3" x1="13.04" y1="100" x2="13.04"/><line class="cls-3" x1="17.39" y1="100" x2="17.39"/><line class="cls-3" x1="21.74" y1="100" x2="21.74"/><line class="cls-3" x1="26.09" y1="100" x2="26.09"/><line class="cls-3" x1="30.43" y1="100" x2="30.43"/><line class="cls-3" x1="34.78" y1="100" x2="34.78"/><line class="cls-3" x1="39.13" y1="100" x2="39.13"/><line class="cls-3" x1="43.48" y1="100" x2="43.48"/><line class="cls-3" x1="47.83" y1="100" x2="47.83"/><line class="cls-3" x1="52.17" y1="100" x2="52.17"/><line class="cls-3" x1="56.52" y1="100" x2="56.52"/><line class="cls-3" x1="60.87" y1="100" x2="60.87"/><line class="cls-3" x1="65.22" y1="100" x2="65.22"/><line class="cls-3" x1="69.57" y1="100" x2="69.57"/><line class="cls-3" x1="73.91" y1="100" x2="73.91"/><line class="cls-3" x1="78.26" y1="100" x2="78.26"/><line class="cls-3" x1="82.61" y1="100" x2="82.61"/><line class="cls-3" x1="86.96" y1="100" x2="86.96"/><line class="cls-3" x1="91.3" y1="100" x2="91.3"/><line class="cls-3" x1="95.65" y1="100" x2="95.65"/><line class="cls-3" x1="100" y1="100" x2="100"/></g></pattern></defs><title>Asset 8</title><g id="Layer_2" data-name="Layer 2"><g id="Layer_1-2" data-name="Layer 1"><rect class="cls-5" width="100" height="100"/></g></g></svg>