<svg xmlns="http://www.w3.org/2000/svg" xmlns:xlink="http://www.w3.org/1999/xlink" viewBox="0 0 100 100"><defs><style>.cls-1,.cls-3,.cls-4{fill:none;}.cls-2{clip-path:url(#clip-path);}.cls-3,.cls-4{stroke:#265d8e;stroke-miterlimit:10;stroke-width:2.25px;}.cls-3{stroke-dasharray:10 10;}.cls-5{clip-path:url(#clip-path-2);}.cls-6{clip-path:url(#clip-path-3);}.cls-7{fill:url(#New_Pattern_32);}</style><clipPath id="clip-path"><rect id="SVGID" class="cls-1" y="150" width="260" height="100"/></clipPath><clipPath id="clip-path-2"><rect id="SVGID-2" data-name="SVGID" class="cls-1" y="50" width="260" height="100"/></clipPath><clipPath id="clip-path-3"><rect id="SVGID-3" data-name="SVGID" class="cls-1" y="-50" width="260" height="100"/></clipPath><pattern id="New_Pattern_32" data-name="New Pattern 32" width="260" height="200" patternTransform="translate(-240.69 121.99)" patternUnits="userSpaceOnUse" viewBox="0 0 260 200"><rect class="cls-1" width="260" height="200"/><g class="cls-2"><line class="cls-3" y1="235" y2="160"/><line class="cls-4" y1="155" y2="150"/><line class="cls-3" x1="10.83" y1="235" x2="10.83" y2="160"/><line class="cls-4" x1="10.83" y1="155" x2="10.83" y2="150"/><line class="cls-3" x1="21.67" y1="235" x2="21.67" y2="160"/><line class="cls-4" x1="21.67" y1="155" x2="21.67" y2="150"/><line class="cls-3" x1="32.5" y1="235" x2="32.5" y2="160"/><line class="cls-4" x1="32.5" y1="155" x2="32.5" y2="150"/><line class="cls-3" x1="43.33" y1="235" x2="43.33" y2="160"/><line class="cls-4" x1="43.33" y1="155" x2="43.33" y2="150"/><line class="cls-3" x1="54.17" y1="235" x2="54.17" y2="160"/><line class="cls-4" x1="54.17" y1="155" x2="54.17" y2="150"/><line class="cls-3" x1="65" y1="235" x2="65" y2="160"/><line class="cls-4" x1="65" y1="155" x2="65" y2="150"/><line class="cls-3" x1="75.83" y1="235" x2="75.83" y2="160"/><line class="cls-4" x1="75.83" y1="155" x2="75.83" y2="150"/><line class="cls-3" x1="86.67" y1="235" x2="86.67" y2="160"/><line class="cls-4" x1="86.67" y1="155" x2="86.67" y2="150"/><line class="cls-3" x1="97.5" y1="235" x2="97.5" y2="160"/><line class="cls-4" x1="97.5" y1="155" x2="97.5" y2="150"/><line class="cls-3" x1="108.33" y1="235" x2="108.33" y2="160"/><line class="cls-4" x1="108.33" y1="155" x2="108.33" y2="150"/><line class="cls-3" x1="119.17" y1="235" x2="119.17" y2="160"/><line class="cls-4" x1="119.17" y1="155" x2="119.17" y2="150"/><line class="cls-3" x1="130" y1="235" x2="130" y2="160"/><line class="cls-4" x1="130" y1="155" x2="130" y2="150"/><line class="cls-3" x1="140.83" y1="235" x2="140.83" y2="160"/><line class="cls-4" x1="140.83" y1="155" x2="140.83" y2="150"/><line class="cls-3" x1="151.67" y1="235" x2="151.67" y2="160"/><line class="cls-4" x1="151.67" y1="155" x2="151.67" y2="150"/><line class="cls-3" x1="162.5" y1="235" x2="162.5" y2="160"/><line class="cls-4" x1="162.5" y1="155" x2="162.5" y2="150"/><line class="cls-3" x1="173.33" y1="235" x2="173.33" y2="160"/><line class="cls-4" x1="173.33" y1="155" x2="173.33" y2="150"/><line class="cls-3" x1="184.17" y1="235" x2="184.17" y2="160"/><line class="cls-4" x1="184.17" y1="155" x2="184.17" y2="150"/><line class="cls-3" x1="195" y1="235" x2="195" y2="160"/><line class="cls-4" x1="195" y1="155" x2="195" y2="150"/><line class="cls-3" x1="205.83" y1="235" x2="205.83" y2="160"/><line class="cls-4" x1="205.83" y1="155" x2="205.83" y2="150"/><line class="cls-3" x1="216.67" y1="235" x2="216.67" y2="160"/><line class="cls-4" x1="216.67" y1="155" x2="216.67" y2="150"/><line class="cls-3" x1="227.5" y1="235" x2="227.5" y2="160"/><line class="cls-4" x1="227.5" y1="155" x2="227.5" y2="150"/><line class="cls-3" x1="238.33" y1="235" x2="238.33" y2="160"/><line class="cls-4" x1="238.33" y1="155" x2="238.33" y2="150"/><line class="cls-3" x1="249.17" y1="235" x2="249.17" y2="160"/><line class="cls-4" x1="249.17" y1="155" x2="249.17" y2="150"/><line class="cls-3" x1="260" y1="235" x2="260" y2="160"/><line class="cls-4" x1="260" y1="155" x2="260" y2="150"/></g><g class="cls-5"><line class="cls-4" y1="150" y2="145"/><line class="cls-3" y1="135" y2="60"/><line class="cls-4" y1="55" y2="50"/><line class="cls-4" x1="10.83" y1="150" x2="10.83" y2="145"/><line class="cls-3" x1="10.83" y1="135" x2="10.83" y2="60"/><line class="cls-4" x1="10.83" y1="55" x2="10.83" y2="50"/><line class="cls-4" x1="21.67" y1="150" x2="21.67" y2="145"/><line class="cls-3" x1="21.67" y1="135" x2="21.67" y2="60"/><line class="cls-4" x1="21.67" y1="55" x2="21.67" y2="50"/><line class="cls-4" x1="32.5" y1="150" x2="32.5" y2="145"/><line class="cls-3" x1="32.5" y1="135" x2="32.5" y2="60"/><line class="cls-4" x1="32.5" y1="55" x2="32.5" y2="50"/><line class="cls-4" x1="43.33" y1="150" x2="43.33" y2="145"/><line class="cls-3" x1="43.33" y1="135" x2="43.33" y2="60"/><line class="cls-4" x1="43.33" y1="55" x2="43.33" y2="50"/><line class="cls-4" x1="54.17" y1="150" x2="54.17" y2="145"/><line class="cls-3" x1="54.17" y1="135" x2="54.17" y2="60"/><line class="cls-4" x1="54.17" y1="55" x2="54.17" y2="50"/><line class="cls-4" x1="65" y1="150" x2="65" y2="145"/><line class="cls-3" x1="65" y1="135" x2="65" y2="60"/><line class="cls-4" x1="65" y1="55" x2="65" y2="50"/><line class="cls-4" x1="75.83" y1="150" x2="75.83" y2="145"/><line class="cls-3" x1="75.83" y1="135" x2="75.83" y2="60"/><line class="cls-4" x1="75.83" y1="55" x2="75.83" y2="50"/><line class="cls-4" x1="86.67" y1="150" x2="86.67" y2="145"/><line class="cls-3" x1="86.67" y1="135" x2="86.67" y2="60"/><line class="cls-4" x1="86.67" y1="55" x2="86.67" y2="50"/><line class="cls-4" x1="97.5" y1="150" x2="97.5" y2="145"/><line class="cls-3" x1="97.5" y1="135" x2="97.5" y2="60"/><line class="cls-4" x1="97.5" y1="55" x2="97.5" y2="50"/><line class="cls-4" x1="108.33" y1="150" x2="108.33" y2="145"/><line class="cls-3" x1="108.33" y1="135" x2="108.33" y2="60"/><line class="cls-4" x1="108.33" y1="55" x2="108.33" y2="50"/><line class="cls-4" x1="119.17" y1="150" x2="119.17" y2="145"/><line class="cls-3" x1="119.17" y1="135" x2="119.17" y2="60"/><line class="cls-4" x1="119.17" y1="55" x2="119.17" y2="50"/><line class="cls-4" x1="130" y1="150" x2="130" y2="145"/><line class="cls-3" x1="130" y1="135" x2="130" y2="60"/><line class="cls-4" x1="130" y1="55" x2="130" y2="50"/><line class="cls-4" x1="140.83" y1="150" x2="140.83" y2="145"/><line class="cls-3" x1="140.83" y1="135" x2="140.83" y2="60"/><line class="cls-4" x1="140.83" y1="55" x2="140.83" y2="50"/><line class="cls-4" x1="151.67" y1="150" x2="151.67" y2="145"/><line class="cls-3" x1="151.67" y1="135" x2="151.67" y2="60"/><line class="cls-4" x1="151.67" y1="55" x2="151.67" y2="50"/><line class="cls-4" x1="162.5" y1="150" x2="162.5" y2="145"/><line class="cls-3" x1="162.5" y1="135" x2="162.5" y2="60"/><line class="cls-4" x1="162.5" y1="55" x2="162.5" y2="50"/><line class="cls-4" x1="173.33" y1="150" x2="173.33" y2="145"/><line class="cls-3" x1="173.33" y1="135" x2="173.33" y2="60"/><line class="cls-4" x1="173.33" y1="55" x2="173.33" y2="50"/><line class="cls-4" x1="184.17" y1="150" x2="184.17" y2="145"/><line class="cls-3" x1="184.17" y1="135" x2="184.17" y2="60"/><line class="cls-4" x1="184.17" y1="55" x2="184.17" y2="50"/><line class="cls-4" x1="195" y1="150" x2="195" y2="145"/><line class="cls-3" x1="195" y1="135" x2="195" y2="60"/><line class="cls-4" x1="195" y1="55" x2="195" y2="50"/><line class="cls-4" x1="205.83" y1="150" x2="205.83" y2="145"/><line class="cls-3" x1="205.83" y1="135" x2="205.83" y2="60"/><line class="cls-4" x1="205.83" y1="55" x2="205.83" y2="50"/><line class="cls-4" x1="216.67" y1="150" x2="216.67" y2="145"/><line class="cls-3" x1="216.67" y1="135" x2="216.67" y2="60"/><line class="cls-4" x1="216.67" y1="55" x2="216.67" y2="50"/><line class="cls-4" x1="227.5" y1="150" x2="227.5" y2="145"/><line class="cls-3" x1="227.5" y1="135" x2="227.5" y2="60"/><line class="cls-4" x1="227.5" y1="55" x2="227.5" y2="50"/><line class="cls-4" x1="238.33" y1="150" x2="238.33" y2="145"/><line class="cls-3" x1="238.33" y1="135" x2="238.33" y2="60"/><line class="cls-4" x1="238.33" y1="55" x2="238.33" y2="50"/><line class="cls-4" x1="249.17" y1="150" x2="249.17" y2="145"/><line class="cls-3" x1="249.17" y1="135" x2="249.17" y2="60"/><line class="cls-4" x1="249.17" y1="55" x2="249.17" y2="50"/><line class="cls-4" x1="260" y1="150" x2="260" y2="145"/><line class="cls-3" x1="260" y1="135" x2="260" y2="60"/><line class="cls-4" x1="260" y1="55" x2="260" y2="50"/></g><g class="cls-6"><line class="cls-4" y1="50" y2="45"/><line class="cls-3" y1="35" y2="-40"/><line class="cls-4" x1="10.83" y1="50" x2="10.83" y2="45"/><line class="cls-3" x1="10.83" y1="35" x2="10.83" y2="-40"/><line class="cls-4" x1="21.67" y1="50" x2="21.67" y2="45"/><line class="cls-3" x1="21.67" y1="35" x2="21.67" y2="-40"/><line class="cls-4" x1="32.5" y1="50" x2="32.5" y2="45"/><line class="cls-3" x1="32.5" y1="35" x2="32.5" y2="-40"/><line class="cls-4" x1="43.33" y1="50" x2="43.33" y2="45"/><line class="cls-3" x1="43.33" y1="35" x2="43.33" y2="-40"/><line class="cls-4" x1="54.17" y1="50" x2="54.17" y2="45"/><line class="cls-3" x1="54.17" y1="35" x2="54.17" y2="-40"/><line class="cls-4" x1="65" y1="50" x2="65" y2="45"/><line class="cls-3" x1="65" y1="35" x2="65" y2="-40"/><line class="cls-4" x1="75.83" y1="50" x2="75.83" y2="45"/><line class="cls-3" x1="75.83" y1="35" x2="75.83" y2="-40"/><line class="cls-4" x1="86.67" y1="50" x2="86.67" y2="45"/><line class="cls-3" x1="86.67" y1="35" x2="86.67" y2="-40"/><line class="cls-4" x1="97.5" y1="50" x2="97.5" y2="45"/><line class="cls-3" x1="97.5" y1="35" x2="97.5" y2="-40"/><line class="cls-4" x1="108.33" y1="50" x2="108.33" y2="45"/><line class="cls-3" x1="108.33" y1="35" x2="108.33" y2="-40"/><line class="cls-4" x1="119.17" y1="50" x2="119.17" y2="45"/><line class="cls-3" x1="119.17" y1="35" x2="119.17" y2="-40"/><line class="cls-4" x1="130" y1="50" x2="130" y2="45"/><line class="cls-3" x1="130" y1="35" x2="130" y2="-40"/><line class="cls-4" x1="140.83" y1="50" x2="140.83" y2="45"/><line class="cls-3" x1="140.83" y1="35" x2="140.83" y2="-40"/><line class="cls-4" x1="151.67" y1="50" x2="151.67" y2="45"/><line class="cls-3" x1="151.67" y1="35" x2="151.67" y2="-40"/><line class="cls-4" x1="162.5" y1="50" x2="162.5" y2="45"/><line class="cls-3" x1="162.5" y1="35" x2="162.5" y2="-40"/><line class="cls-4" x1="173.33" y1="50" x2="173.33" y2="45"/><line class="cls-3" x1="173.33" y1="35" x2="173.33" y2="-40"/><line class="cls-4" x1="184.17" y1="50" x2="184.17" y2="45"/><line class="cls-3" x1="184.17" y1="35" x2="184.17" y2="-40"/><line class="cls-4" x1="195" y1="50" x2="195" y2="45"/><line class="cls-3" x1="195" y1="35" x2="195" y2="-40"/><line class="cls-4" x1="205.83" y1="50" x2="205.83" y2="45"/><line class="cls-3" x1="205.83" y1="35" x2="205.83" y2="-40"/><line class="cls-4" x1="216.67" y1="50" x2="216.67" y2="45"/><line class="cls-3" x1="216.67" y1="35" x2="216.67" y2="-40"/><line class="cls-4" x1="227.5" y1="50" x2="227.5" y2="45"/><line class="cls-3" x1="227.5" y1="35" x2="227.5" y2="-40"/><line class="cls-4" x1="238.33" y1="50" x2="238.33" y2="45"/><line class="cls-3" x1="238.33" y1="35" x2="238.33" y2="-40"/><line class="cls-4" x1="249.17" y1="50" x2="249.17" y2="45"/><line class="cls-3" x1="249.17" y1="35" x2="249.17" y2="-40"/><line class="cls-4" x1="260" y1="50" x2="260" y2="45"/><line class="cls-3" x1="260" y1="35" x2="260" y2="-40"/></g></pattern></defs><title>Asset 6</title><g id="Layer_2" data-name="Layer 2"><g id="Layer_1-2" data-name="Layer 1"><rect class="cls-7" width="100" height="100"/></g></g></svg>