<svg xmlns="http://www.w3.org/2000/svg" xmlns:xlink="http://www.w3.org/1999/xlink" viewBox="0 0 100 100"><defs><style>.cls-1,.cls-2{fill:none;}.cls-2{stroke:#1e3e69;stroke-miterlimit:10;stroke-width:3px;}.cls-3{fill:url(#New_Pattern_51);}</style><pattern id="New_Pattern_51" data-name="New Pattern 51" width="100" height="100" patternTransform="translate(-234.96 -159.32) rotate(-90)" patternUnits="userSpaceOnUse" viewBox="0 0 100 100"><rect class="cls-1" width="100" height="100"/><line class="cls-2" x1="96.97" y1="96.97" x2="203.03" y2="203.03"/><line class="cls-2" x1="153.03" y1="46.97" x2="46.97" y2="153.03"/><line class="cls-2" x1="160.18" y1="54.11" x2="54.11" y2="160.18"/><line class="cls-2" x1="167.32" y1="61.25" x2="61.25" y2="167.32"/><line class="cls-2" x1="174.46" y1="68.4" x2="68.4" y2="174.46"/><line class="cls-2" x1="181.6" y1="75.54" x2="75.54" y2="181.6"/><line class="cls-2" x1="188.75" y1="82.68" x2="82.68" y2="188.75"/><line class="cls-2" x1="195.89" y1="89.82" x2="89.82" y2="195.89"/><line class="cls-2" x1="203.03" y1="96.97" x2="96.97" y2="203.03"/><line class="cls-2" x1="46.97" y1="46.97" x2="153.03" y2="153.03"/><line class="cls-2" x1="39.82" y1="54.11" x2="145.89" y2="160.18"/><line class="cls-2" x1="32.68" y1="61.25" x2="138.75" y2="167.32"/><line class="cls-2" x1="25.54" y1="68.4" x2="131.6" y2="174.46"/><line class="cls-2" x1="18.4" y1="75.54" x2="124.46" y2="181.6"/><line class="cls-2" x1="11.25" y1="82.68" x2="117.32" y2="188.75"/><line class="cls-2" x1="4.11" y1="89.82" x2="110.18" y2="195.89"/><line class="cls-2" x1="-3.03" y1="96.97" x2="103.03" y2="203.03"/><line class="cls-2" x1="53.03" y1="46.97" x2="-53.03" y2="153.03"/><line class="cls-2" x1="60.18" y1="54.11" x2="-45.89" y2="160.18"/><line class="cls-2" x1="67.32" y1="61.25" x2="-38.75" y2="167.32"/><line class="cls-2" x1="74.46" y1="68.4" x2="-31.6" y2="174.46"/><line class="cls-2" x1="81.6" y1="75.54" x2="-24.46" y2="181.6"/><line class="cls-2" x1="88.75" y1="82.68" x2="-17.32" y2="188.75"/><line class="cls-2" x1="95.89" y1="89.82" x2="-10.18" y2="195.89"/><line class="cls-2" x1="103.03" y1="96.97" x2="-3.03" y2="203.03"/><line class="cls-2" x1="-53.03" y1="46.97" x2="53.03" y2="153.03"/><line class="cls-2" x1="-60.18" y1="54.11" x2="45.89" y2="160.18"/><line class="cls-2" x1="-67.32" y1="61.25" x2="38.75" y2="167.32"/><line class="cls-2" x1="-74.46" y1="68.4" x2="31.6" y2="174.46"/><line class="cls-2" x1="-81.6" y1="75.54" x2="24.46" y2="181.6"/><line class="cls-2" x1="-88.75" y1="82.68" x2="17.32" y2="188.75"/><line class="cls-2" x1="-95.89" y1="89.82" x2="10.18" y2="195.89"/><line class="cls-2" x1="-103.03" y1="96.97" x2="3.03" y2="203.03"/><line class="cls-2" x1="3.03" y1="96.97" x2="-103.03" y2="203.03"/><line class="cls-2" x1="96.97" y1="-3.03" x2="203.03" y2="103.03"/><line class="cls-2" x1="89.82" y1="4.11" x2="195.89" y2="110.18"/><line class="cls-2" x1="82.68" y1="11.25" x2="188.75" y2="117.32"/><line class="cls-2" x1="75.54" y1="18.4" x2="181.6" y2="124.46"/><line class="cls-2" x1="68.4" y1="25.54" x2="174.46" y2="131.6"/><line class="cls-2" x1="61.25" y1="32.68" x2="167.32" y2="138.75"/><line class="cls-2" x1="54.11" y1="39.82" x2="160.18" y2="145.89"/><line class="cls-2" x1="46.97" y1="46.97" x2="153.03" y2="153.03"/><line class="cls-2" x1="153.03" y1="-53.03" x2="46.97" y2="53.03"/><line class="cls-2" x1="160.18" y1="-45.89" x2="54.11" y2="60.18"/><line class="cls-2" x1="167.32" y1="-38.75" x2="61.25" y2="67.32"/><line class="cls-2" x1="174.46" y1="-31.6" x2="68.4" y2="74.46"/><line class="cls-2" x1="181.6" y1="-24.46" x2="75.54" y2="81.6"/><line class="cls-2" x1="188.75" y1="-17.32" x2="82.68" y2="88.75"/><line class="cls-2" x1="195.89" y1="-10.18" x2="89.82" y2="95.89"/><line class="cls-2" x1="203.03" y1="-3.03" x2="96.97" y2="103.03"/><line class="cls-2" x1="46.97" y1="-53.03" x2="153.03" y2="53.03"/><line class="cls-2" x1="39.82" y1="-45.89" x2="145.89" y2="60.18"/><line class="cls-2" x1="32.68" y1="-38.75" x2="138.75" y2="67.32"/><line class="cls-2" x1="25.54" y1="-31.6" x2="131.6" y2="74.46"/><line class="cls-2" x1="18.4" y1="-24.46" x2="124.46" y2="81.6"/><line class="cls-2" x1="11.25" y1="-17.32" x2="117.32" y2="88.75"/><line class="cls-2" x1="4.11" y1="-10.18" x2="110.18" y2="95.89"/><line class="cls-2" x1="-3.03" y1="-3.03" x2="103.03" y2="103.03"/><line class="cls-2" x1="-10.18" y1="4.11" x2="95.89" y2="110.18"/><line class="cls-2" x1="-17.32" y1="11.25" x2="88.75" y2="117.32"/><line class="cls-2" x1="-24.46" y1="18.4" x2="81.6" y2="124.46"/><line class="cls-2" x1="-31.6" y1="25.54" x2="74.46" y2="131.6"/><line class="cls-2" x1="-38.75" y1="32.68" x2="67.32" y2="138.75"/><line class="cls-2" x1="-45.89" y1="39.82" x2="60.18" y2="145.89"/><line class="cls-2" x1="-53.03" y1="46.97" x2="53.03" y2="153.03"/><line class="cls-2" x1="53.03" y1="-53.03" x2="-53.03" y2="53.03"/><line class="cls-2" x1="60.18" y1="-45.89" x2="-45.89" y2="60.18"/><line class="cls-2" x1="67.32" y1="-38.75" x2="-38.75" y2="67.32"/><line class="cls-2" x1="74.46" y1="-31.6" x2="-31.6" y2="74.46"/><line class="cls-2" x1="81.6" y1="-24.46" x2="-24.46" y2="81.6"/><line class="cls-2" x1="88.75" y1="-17.32" x2="-17.32" y2="88.75"/><line class="cls-2" x1="95.89" y1="-10.18" x2="-10.18" y2="95.89"/><line class="cls-2" x1="103.03" y1="-3.03" x2="-3.03" y2="103.03"/><line class="cls-2" x1="110.18" y1="4.11" x2="4.11" y2="110.18"/><line class="cls-2" x1="117.32" y1="11.25" x2="11.25" y2="117.32"/><line class="cls-2" x1="124.46" y1="18.4" x2="18.4" y2="124.46"/><line class="cls-2" x1="131.6" y1="25.54" x2="25.54" y2="131.6"/><line class="cls-2" x1="138.75" y1="32.68" x2="32.68" y2="138.75"/><line class="cls-2" x1="145.89" y1="39.82" x2="39.82" y2="145.89"/><line class="cls-2" x1="153.03" y1="46.97" x2="46.97" y2="153.03"/><line class="cls-2" x1="-53.03" y1="-53.03" x2="53.03" y2="53.03"/><line class="cls-2" x1="-60.18" y1="-45.89" x2="45.89" y2="60.18"/><line class="cls-2" x1="-67.32" y1="-38.75" x2="38.75" y2="67.32"/><line class="cls-2" x1="-74.46" y1="-31.6" x2="31.6" y2="74.46"/><line class="cls-2" x1="-81.6" y1="-24.46" x2="24.46" y2="81.6"/><line class="cls-2" x1="-88.75" y1="-17.32" x2="17.32" y2="88.75"/><line class="cls-2" x1="-95.89" y1="-10.18" x2="10.18" y2="95.89"/><line class="cls-2" x1="-103.03" y1="-3.03" x2="3.03" y2="103.03"/><line class="cls-2" x1="3.03" y1="-3.03" x2="-103.03" y2="103.03"/><line class="cls-2" x1="10.18" y1="4.11" x2="-95.89" y2="110.18"/><line class="cls-2" x1="17.32" y1="11.25" x2="-88.75" y2="117.32"/><line class="cls-2" x1="24.46" y1="18.4" x2="-81.6" y2="124.46"/><line class="cls-2" x1="31.6" y1="25.54" x2="-74.46" y2="131.6"/><line class="cls-2" x1="38.75" y1="32.68" x2="-67.32" y2="138.75"/><line class="cls-2" x1="45.89" y1="39.82" x2="-60.18" y2="145.89"/><line class="cls-2" x1="53.03" y1="46.97" x2="-53.03" y2="153.03"/><line class="cls-2" x1="96.97" y1="-103.03" x2="203.03" y2="3.03"/><line class="cls-2" x1="89.82" y1="-95.89" x2="195.89" y2="10.18"/><line class="cls-2" x1="82.68" y1="-88.75" x2="188.75" y2="17.32"/><line class="cls-2" x1="75.54" y1="-81.6" x2="181.6" y2="24.46"/><line class="cls-2" x1="68.4" y1="-74.46" x2="174.46" y2="31.6"/><line class="cls-2" x1="61.25" y1="-67.32" x2="167.32" y2="38.75"/><line class="cls-2" x1="54.11" y1="-60.18" x2="160.18" y2="45.89"/><line class="cls-2" x1="46.97" y1="-53.03" x2="153.03" y2="53.03"/><line class="cls-2" x1="203.03" y1="-103.03" x2="96.97" y2="3.03"/><line class="cls-2" x1="-3.03" y1="-103.03" x2="103.03" y2="3.03"/><line class="cls-2" x1="-10.18" y1="-95.89" x2="95.89" y2="10.18"/><line class="cls-2" x1="-17.32" y1="-88.75" x2="88.75" y2="17.32"/><line class="cls-2" x1="-24.46" y1="-81.6" x2="81.6" y2="24.46"/><line class="cls-2" x1="-31.6" y1="-74.46" x2="74.46" y2="31.6"/><line class="cls-2" x1="-38.75" y1="-67.32" x2="67.32" y2="38.75"/><line class="cls-2" x1="-45.89" y1="-60.18" x2="60.18" y2="45.89"/><line class="cls-2" x1="-53.03" y1="-53.03" x2="53.03" y2="53.03"/><line class="cls-2" x1="103.03" y1="-103.03" x2="-3.03" y2="3.03"/><line class="cls-2" x1="110.18" y1="-95.89" x2="4.11" y2="10.18"/><line class="cls-2" x1="117.32" y1="-88.75" x2="11.25" y2="17.32"/><line class="cls-2" x1="124.46" y1="-81.6" x2="18.4" y2="24.46"/><line class="cls-2" x1="131.6" y1="-74.46" x2="25.54" y2="31.6"/><line class="cls-2" x1="138.75" y1="-67.32" x2="32.68" y2="38.75"/><line class="cls-2" x1="145.89" y1="-60.18" x2="39.82" y2="45.89"/><line class="cls-2" x1="153.03" y1="-53.03" x2="46.97" y2="53.03"/><line class="cls-2" x1="-103.03" y1="-103.03" x2="3.03" y2="3.03"/><line class="cls-2" x1="3.03" y1="-103.03" x2="-103.03" y2="3.03"/><line class="cls-2" x1="10.18" y1="-95.89" x2="-95.89" y2="10.18"/><line class="cls-2" x1="17.32" y1="-88.75" x2="-88.75" y2="17.32"/><line class="cls-2" x1="24.46" y1="-81.6" x2="-81.6" y2="24.46"/><line class="cls-2" x1="31.6" y1="-74.46" x2="-74.46" y2="31.6"/><line class="cls-2" x1="38.75" y1="-67.32" x2="-67.32" y2="38.75"/><line class="cls-2" x1="45.89" y1="-60.18" x2="-60.18" y2="45.89"/><line class="cls-2" x1="53.03" y1="-53.03" x2="-53.03" y2="53.03"/></pattern></defs><title>Asset 3</title><g id="Layer_2" data-name="Layer 2"><g id="Layer_1-2" data-name="Layer 1"><rect class="cls-3" width="100" height="100"/></g></g></svg>