<svg xmlns="http://www.w3.org/2000/svg" xmlns:xlink="http://www.w3.org/1999/xlink" viewBox="0 0 100 100"><defs><style>.cls-1,.cls-3{fill:none;}.cls-2{clip-path:url(#clip-path);}.cls-3{stroke:#265d8e;stroke-miterlimit:10;stroke-width:2.5px;}.cls-4{clip-path:url(#clip-path-2);}.cls-5{clip-path:url(#clip-path-3);}.cls-6{fill:url(#New_Pattern_33);}</style><clipPath id="clip-path"><rect id="SVGID" class="cls-1" y="150" width="260" height="100"/></clipPath><clipPath id="clip-path-2"><rect id="SVGID-2" data-name="SVGID" class="cls-1" y="50" width="260" height="100"/></clipPath><clipPath id="clip-path-3"><rect id="SVGID-3" data-name="SVGID" class="cls-1" y="-50" width="260" height="100"/></clipPath><pattern id="New_Pattern_33" data-name="New Pattern 33" width="260" height="200" patternTransform="translate(-240.69 92.05)" patternUnits="userSpaceOnUse" viewBox="0 0 260 200"><rect class="cls-1" width="260" height="200"/><g class="cls-2"><line class="cls-3" y1="250" y2="150"/><line class="cls-3" x1="8.39" y1="250" x2="8.39" y2="150"/><line class="cls-3" x1="16.77" y1="250" x2="16.77" y2="150"/><line class="cls-3" x1="25.16" y1="250" x2="25.16" y2="150"/><line class="cls-3" x1="33.55" y1="250" x2="33.55" y2="150"/><line class="cls-3" x1="41.94" y1="250" x2="41.94" y2="150"/><line class="cls-3" x1="50.32" y1="250" x2="50.32" y2="150"/><line class="cls-3" x1="58.71" y1="250" x2="58.71" y2="150"/><line class="cls-3" x1="67.1" y1="250" x2="67.1" y2="150"/><line class="cls-3" x1="75.48" y1="250" x2="75.48" y2="150"/><line class="cls-3" x1="83.87" y1="250" x2="83.87" y2="150"/><line class="cls-3" x1="92.26" y1="250" x2="92.26" y2="150"/><line class="cls-3" x1="100.65" y1="250" x2="100.65" y2="150"/><line class="cls-3" x1="109.03" y1="250" x2="109.03" y2="150"/><line class="cls-3" x1="117.42" y1="250" x2="117.42" y2="150"/><line class="cls-3" x1="125.81" y1="250" x2="125.81" y2="150"/><line class="cls-3" x1="134.19" y1="250" x2="134.19" y2="150"/><line class="cls-3" x1="142.58" y1="250" x2="142.58" y2="150"/><line class="cls-3" x1="150.97" y1="250" x2="150.97" y2="150"/><line class="cls-3" x1="159.35" y1="250" x2="159.35" y2="150"/><line class="cls-3" x1="167.74" y1="250" x2="167.74" y2="150"/><line class="cls-3" x1="176.13" y1="250" x2="176.13" y2="150"/><line class="cls-3" x1="184.52" y1="250" x2="184.52" y2="150"/><line class="cls-3" x1="192.9" y1="250" x2="192.9" y2="150"/><line class="cls-3" x1="201.29" y1="250" x2="201.29" y2="150"/><line class="cls-3" x1="209.68" y1="250" x2="209.68" y2="150"/><line class="cls-3" x1="218.06" y1="250" x2="218.06" y2="150"/><line class="cls-3" x1="226.45" y1="250" x2="226.45" y2="150"/><line class="cls-3" x1="234.84" y1="250" x2="234.84" y2="150"/><line class="cls-3" x1="243.23" y1="250" x2="243.23" y2="150"/><line class="cls-3" x1="251.61" y1="250" x2="251.61" y2="150"/><line class="cls-3" x1="260" y1="250" x2="260" y2="150"/></g><g class="cls-4"><line class="cls-3" y1="150" y2="50"/><line class="cls-3" x1="8.39" y1="150" x2="8.39" y2="50"/><line class="cls-3" x1="16.77" y1="150" x2="16.77" y2="50"/><line class="cls-3" x1="25.16" y1="150" x2="25.16" y2="50"/><line class="cls-3" x1="33.55" y1="150" x2="33.55" y2="50"/><line class="cls-3" x1="41.94" y1="150" x2="41.94" y2="50"/><line class="cls-3" x1="50.32" y1="150" x2="50.32" y2="50"/><line class="cls-3" x1="58.71" y1="150" x2="58.71" y2="50"/><line class="cls-3" x1="67.1" y1="150" x2="67.1" y2="50"/><line class="cls-3" x1="75.48" y1="150" x2="75.48" y2="50"/><line class="cls-3" x1="83.87" y1="150" x2="83.87" y2="50"/><line class="cls-3" x1="92.26" y1="150" x2="92.26" y2="50"/><line class="cls-3" x1="100.65" y1="150" x2="100.65" y2="50"/><line class="cls-3" x1="109.03" y1="150" x2="109.03" y2="50"/><line class="cls-3" x1="117.42" y1="150" x2="117.42" y2="50"/><line class="cls-3" x1="125.81" y1="150" x2="125.81" y2="50"/><line class="cls-3" x1="134.19" y1="150" x2="134.19" y2="50"/><line class="cls-3" x1="142.58" y1="150" x2="142.58" y2="50"/><line class="cls-3" x1="150.97" y1="150" x2="150.97" y2="50"/><line class="cls-3" x1="159.35" y1="150" x2="159.35" y2="50"/><line class="cls-3" x1="167.74" y1="150" x2="167.74" y2="50"/><line class="cls-3" x1="176.13" y1="150" x2="176.13" y2="50"/><line class="cls-3" x1="184.52" y1="150" x2="184.52" y2="50"/><line class="cls-3" x1="192.9" y1="150" x2="192.9" y2="50"/><line class="cls-3" x1="201.29" y1="150" x2="201.29" y2="50"/><line class="cls-3" x1="209.68" y1="150" x2="209.68" y2="50"/><line class="cls-3" x1="218.06" y1="150" x2="218.06" y2="50"/><line class="cls-3" x1="226.45" y1="150" x2="226.45" y2="50"/><line class="cls-3" x1="234.84" y1="150" x2="234.84" y2="50"/><line class="cls-3" x1="243.23" y1="150" x2="243.23" y2="50"/><line class="cls-3" x1="251.61" y1="150" x2="251.61" y2="50"/><line class="cls-3" x1="260" y1="150" x2="260" y2="50"/></g><g class="cls-5"><line class="cls-3" y1="50" y2="-50"/><line class="cls-3" x1="8.39" y1="50" x2="8.39" y2="-50"/><line class="cls-3" x1="16.77" y1="50" x2="16.77" y2="-50"/><line class="cls-3" x1="25.16" y1="50" x2="25.16" y2="-50"/><line class="cls-3" x1="33.55" y1="50" x2="33.55" y2="-50"/><line class="cls-3" x1="41.94" y1="50" x2="41.94" y2="-50"/><line class="cls-3" x1="50.32" y1="50" x2="50.32" y2="-50"/><line class="cls-3" x1="58.71" y1="50" x2="58.71" y2="-50"/><line class="cls-3" x1="67.1" y1="50" x2="67.1" y2="-50"/><line class="cls-3" x1="75.48" y1="50" x2="75.48" y2="-50"/><line class="cls-3" x1="83.87" y1="50" x2="83.87" y2="-50"/><line class="cls-3" x1="92.26" y1="50" x2="92.26" y2="-50"/><line class="cls-3" x1="100.65" y1="50" x2="100.65" y2="-50"/><line class="cls-3" x1="109.03" y1="50" x2="109.03" y2="-50"/><line class="cls-3" x1="117.42" y1="50" x2="117.42" y2="-50"/><line class="cls-3" x1="125.81" y1="50" x2="125.81" y2="-50"/><line class="cls-3" x1="134.19" y1="50" x2="134.19" y2="-50"/><line class="cls-3" x1="142.58" y1="50" x2="142.58" y2="-50"/><line class="cls-3" x1="150.97" y1="50" x2="150.97" y2="-50"/><line class="cls-3" x1="159.35" y1="50" x2="159.35" y2="-50"/><line class="cls-3" x1="167.74" y1="50" x2="167.74" y2="-50"/><line class="cls-3" x1="176.13" y1="50" x2="176.13" y2="-50"/><line class="cls-3" x1="184.52" y1="50" x2="184.52" y2="-50"/><line class="cls-3" x1="192.9" y1="50" x2="192.9" y2="-50"/><line class="cls-3" x1="201.29" y1="50" x2="201.29" y2="-50"/><line class="cls-3" x1="209.68" y1="50" x2="209.68" y2="-50"/><line class="cls-3" x1="218.06" y1="50" x2="218.06" y2="-50"/><line class="cls-3" x1="226.45" y1="50" x2="226.45" y2="-50"/><line class="cls-3" x1="234.84" y1="50" x2="234.84" y2="-50"/><line class="cls-3" x1="243.23" y1="50" x2="243.23" y2="-50"/><line class="cls-3" x1="251.61" y1="50" x2="251.61" y2="-50"/><line class="cls-3" x1="260" y1="50" x2="260" y2="-50"/></g></pattern></defs><title>Asset 5</title><g id="Layer_2" data-name="Layer 2"><g id="Layer_1-2" data-name="Layer 1"><rect class="cls-6" width="100" height="100"/></g></g></svg>