<svg xmlns="http://www.w3.org/2000/svg" xmlns:xlink="http://www.w3.org/1999/xlink" viewBox="0 0 100 100"><defs><style>.cls-1,.cls-2{fill:none;}.cls-2{stroke:#1e3e69;stroke-miterlimit:10;stroke-width:2px;}.cls-3{fill:url(#_12512012-1);}</style><pattern id="_12512012-1" data-name="12512012-1" width="100" height="100" patternTransform="translate(340.97 187.46)" patternUnits="userSpaceOnUse" viewBox="0 0 100 100"><rect class="cls-1" width="100" height="100"/><line class="cls-2" x1="153.03" y1="46.97" x2="46.97" y2="153.03"/><line class="cls-2" x1="163.03" y1="56.97" x2="56.97" y2="163.03"/><line class="cls-2" x1="173.03" y1="66.97" x2="66.97" y2="173.03"/><line class="cls-2" x1="183.03" y1="76.97" x2="76.97" y2="183.03"/><line class="cls-2" x1="193.03" y1="86.97" x2="86.97" y2="193.03"/><line class="cls-2" x1="203.03" y1="96.97" x2="96.97" y2="203.03"/><line class="cls-2" x1="53.03" y1="46.97" x2="-53.03" y2="153.03"/><line class="cls-2" x1="63.03" y1="56.97" x2="-43.03" y2="163.03"/><line class="cls-2" x1="73.03" y1="66.97" x2="-33.03" y2="173.03"/><line class="cls-2" x1="83.03" y1="76.97" x2="-23.03" y2="183.03"/><line class="cls-2" x1="93.03" y1="86.97" x2="-13.03" y2="193.03"/><line class="cls-2" x1="103.03" y1="96.97" x2="-3.03" y2="203.03"/><line class="cls-2" x1="3.03" y1="96.97" x2="-103.03" y2="203.03"/><line class="cls-2" x1="153.03" y1="-53.03" x2="46.97" y2="53.03"/><line class="cls-2" x1="163.03" y1="-43.03" x2="56.97" y2="63.03"/><line class="cls-2" x1="173.03" y1="-33.03" x2="66.97" y2="73.03"/><line class="cls-2" x1="183.03" y1="-23.03" x2="76.97" y2="83.03"/><line class="cls-2" x1="193.03" y1="-13.03" x2="86.97" y2="93.03"/><line class="cls-2" x1="203.03" y1="-3.03" x2="96.97" y2="103.03"/><line class="cls-2" x1="53.03" y1="-53.03" x2="-53.03" y2="53.03"/><line class="cls-2" x1="63.03" y1="-43.03" x2="-43.03" y2="63.03"/><line class="cls-2" x1="73.03" y1="-33.03" x2="-33.03" y2="73.03"/><line class="cls-2" x1="83.03" y1="-23.03" x2="-23.03" y2="83.03"/><line class="cls-2" x1="93.03" y1="-13.03" x2="-13.03" y2="93.03"/><line class="cls-2" x1="103.03" y1="-3.03" x2="-3.03" y2="103.03"/><line class="cls-2" x1="113.03" y1="6.97" x2="6.97" y2="113.03"/><line class="cls-2" x1="123.03" y1="16.97" x2="16.97" y2="123.03"/><line class="cls-2" x1="133.03" y1="26.97" x2="26.97" y2="133.03"/><line class="cls-2" x1="143.03" y1="36.97" x2="36.97" y2="143.03"/><line class="cls-2" x1="153.03" y1="46.97" x2="46.97" y2="153.03"/><rect class="cls-1" width="100" height="100"/><line class="cls-2" x1="3.03" y1="-3.03" x2="-103.03" y2="103.03"/><line class="cls-2" x1="13.03" y1="6.97" x2="-93.03" y2="113.03"/><line class="cls-2" x1="23.03" y1="16.97" x2="-83.03" y2="123.03"/><line class="cls-2" x1="33.03" y1="26.97" x2="-73.03" y2="133.03"/><line class="cls-2" x1="43.03" y1="36.97" x2="-63.03" y2="143.03"/><line class="cls-2" x1="53.03" y1="46.97" x2="-53.03" y2="153.03"/><line class="cls-2" x1="203.03" y1="-103.03" x2="96.97" y2="3.03"/><line class="cls-2" x1="103.03" y1="-103.03" x2="-3.03" y2="3.03"/><line class="cls-2" x1="113.03" y1="-93.03" x2="6.97" y2="13.03"/><line class="cls-2" x1="123.03" y1="-83.03" x2="16.97" y2="23.03"/><line class="cls-2" x1="133.03" y1="-73.03" x2="26.97" y2="33.03"/><line class="cls-2" x1="143.03" y1="-63.03" x2="36.97" y2="43.03"/><line class="cls-2" x1="153.03" y1="-53.03" x2="46.97" y2="53.03"/><line class="cls-2" x1="3.03" y1="-103.03" x2="-103.03" y2="3.03"/><line class="cls-2" x1="13.03" y1="-93.03" x2="-93.03" y2="13.03"/><line class="cls-2" x1="23.03" y1="-83.03" x2="-83.03" y2="23.03"/><line class="cls-2" x1="33.03" y1="-73.03" x2="-73.03" y2="33.03"/><line class="cls-2" x1="43.03" y1="-63.03" x2="-63.03" y2="43.03"/><line class="cls-2" x1="53.03" y1="-53.03" x2="-53.03" y2="53.03"/></pattern></defs><title>Asset 1</title><g id="Layer_2" data-name="Layer 2"><g id="Layer_1-2" data-name="Layer 1"><rect class="cls-3" width="100" height="100"/></g></g></svg>