<svg xmlns="http://www.w3.org/2000/svg" xmlns:xlink="http://www.w3.org/1999/xlink" viewBox="0 0 100 100"><defs><style>.cls-1,.cls-3{fill:none;}.cls-2{clip-path:url(#clip-path);}.cls-3{stroke:#4b2814;stroke-miterlimit:10;stroke-width:1.5px;}.cls-4{fill:url(#_19-1.5);}</style><clipPath id="clip-path"><rect id="SVGID" class="cls-1" width="100" height="100"/></clipPath><pattern id="_19-1.5" data-name="19-1.5" width="100" height="100" patternTransform="translate(-96.57 -16.28)" patternUnits="userSpaceOnUse" viewBox="0 0 100 100"><rect class="cls-1" width="100" height="100"/><g class="cls-2"><line class="cls-3" x1="46.97" y1="-53.03" x2="153.03" y2="53.03"/><line class="cls-3" x1="41.97" y1="-48.03" x2="148.03" y2="58.03"/><line class="cls-3" x1="36.97" y1="-43.03" x2="143.03" y2="63.03"/><line class="cls-3" x1="31.97" y1="-38.03" x2="138.03" y2="68.03"/><line class="cls-3" x1="26.97" y1="-33.03" x2="133.03" y2="73.03"/><line class="cls-3" x1="21.97" y1="-28.03" x2="128.03" y2="78.03"/><line class="cls-3" x1="16.97" y1="-23.03" x2="123.03" y2="83.03"/><line class="cls-3" x1="11.97" y1="-18.03" x2="118.03" y2="88.03"/><line class="cls-3" x1="6.97" y1="-13.03" x2="113.03" y2="93.03"/><line class="cls-3" x1="1.97" y1="-8.03" x2="108.03" y2="98.03"/><line class="cls-3" x1="-3.03" y1="-3.03" x2="103.03" y2="103.03"/><line class="cls-3" x1="-8.03" y1="1.97" x2="98.03" y2="108.03"/><line class="cls-3" x1="-13.03" y1="6.97" x2="93.03" y2="113.03"/><line class="cls-3" x1="-18.03" y1="11.97" x2="88.03" y2="118.03"/><line class="cls-3" x1="-23.03" y1="16.97" x2="83.03" y2="123.03"/><line class="cls-3" x1="-28.03" y1="21.97" x2="78.03" y2="128.03"/><line class="cls-3" x1="-33.03" y1="26.97" x2="73.03" y2="133.03"/><line class="cls-3" x1="-38.03" y1="31.97" x2="68.03" y2="138.03"/><line class="cls-3" x1="-43.03" y1="36.97" x2="63.03" y2="143.03"/><line class="cls-3" x1="-48.03" y1="41.97" x2="58.03" y2="148.03"/><line class="cls-3" x1="-53.03" y1="46.97" x2="53.03" y2="153.03"/></g></pattern></defs><title>Asset 3</title><g id="Layer_2" data-name="Layer 2"><g id="Layer_1-2" data-name="Layer 1"><rect class="cls-4" width="100" height="100"/></g></g></svg>