<svg xmlns="http://www.w3.org/2000/svg" xmlns:xlink="http://www.w3.org/1999/xlink" viewBox="0 0 100 100"><defs><style>.cls-1,.cls-3{fill:none;}.cls-2{clip-path:url(#clip-path);}.cls-3{stroke:#4b2814;stroke-miterlimit:10;stroke-width:1.5px;}.cls-4{fill:url(#_11-1.5);}</style><clipPath id="clip-path"><rect id="SVGID" class="cls-1" width="100" height="100"/></clipPath><pattern id="_11-1.5" data-name="11-1.5" width="100" height="100" patternTransform="translate(-66.25 8.23)" patternUnits="userSpaceOnUse" viewBox="0 0 100 100"><rect class="cls-1" width="100" height="100"/><g class="cls-2"><line class="cls-3" x1="46.97" y1="-53.03" x2="153.03" y2="53.03"/><line class="cls-3" x1="38.63" y1="-44.7" x2="144.7" y2="61.37"/><line class="cls-3" x1="30.3" y1="-36.37" x2="136.37" y2="69.7"/><line class="cls-3" x1="21.97" y1="-28.03" x2="128.03" y2="78.03"/><line class="cls-3" x1="13.63" y1="-19.7" x2="119.7" y2="86.37"/><line class="cls-3" x1="5.3" y1="-11.37" x2="111.37" y2="94.7"/><line class="cls-3" x1="-3.03" y1="-3.03" x2="103.03" y2="103.03"/><line class="cls-3" x1="-11.37" y1="5.3" x2="94.7" y2="111.37"/><line class="cls-3" x1="-19.7" y1="13.63" x2="86.37" y2="119.7"/><line class="cls-3" x1="-28.03" y1="21.97" x2="78.03" y2="128.03"/><line class="cls-3" x1="-36.37" y1="30.3" x2="69.7" y2="136.37"/><line class="cls-3" x1="-44.7" y1="38.63" x2="61.37" y2="144.7"/><line class="cls-3" x1="-53.03" y1="46.97" x2="53.03" y2="153.03"/></g></pattern></defs><title>Asset 1</title><g id="Layer_2" data-name="Layer 2"><g id="Layer_1-2" data-name="Layer 1"><rect class="cls-4" width="100" height="100"/></g></g></svg>