<svg xmlns="http://www.w3.org/2000/svg" xmlns:xlink="http://www.w3.org/1999/xlink" viewBox="0 0 100 100"><defs><style>.cls-1,.cls-3{fill:none;}.cls-2{clip-path:url(#clip-path);}.cls-3{stroke:#58825f;stroke-linecap:round;stroke-miterlimit:10;stroke-width:2px;}.cls-4{fill:url(#New_Pattern_18);}</style><clipPath id="clip-path"><rect class="cls-1" width="100" height="100"/></clipPath><pattern id="New_Pattern_18" data-name="New Pattern 18" width="100" height="100" patternTransform="translate(73.63 -29.24)" patternUnits="userSpaceOnUse" viewBox="0 0 100 100"><rect class="cls-1" width="100" height="100"/><g class="cls-2"><line class="cls-3" y1="125" y2="-25"/><line class="cls-3" x1="5.56" y1="125" x2="5.56" y2="-25"/><line class="cls-3" x1="11.11" y1="125" x2="11.11" y2="-25"/><line class="cls-3" x1="16.67" y1="125" x2="16.67" y2="-25"/><line class="cls-3" x1="22.22" y1="125" x2="22.22" y2="-25"/><line class="cls-3" x1="27.78" y1="125" x2="27.78" y2="-25"/><line class="cls-3" x1="33.33" y1="125" x2="33.33" y2="-25"/><line class="cls-3" x1="38.89" y1="125" x2="38.89" y2="-25"/><line class="cls-3" x1="44.44" y1="125" x2="44.44" y2="-25"/><line class="cls-3" x1="50" y1="125" x2="50" y2="-25"/><line class="cls-3" x1="55.56" y1="125" x2="55.56" y2="-25"/><line class="cls-3" x1="61.11" y1="125" x2="61.11" y2="-25"/><line class="cls-3" x1="66.67" y1="125" x2="66.67" y2="-25"/><line class="cls-3" x1="72.22" y1="125" x2="72.22" y2="-25"/><line class="cls-3" x1="77.78" y1="125" x2="77.78" y2="-25"/><line class="cls-3" x1="83.33" y1="125" x2="83.33" y2="-25"/><line class="cls-3" x1="88.89" y1="125" x2="88.89" y2="-25"/><line class="cls-3" x1="94.44" y1="125" x2="94.44" y2="-25"/><line class="cls-3" x1="100" y1="125" x2="100" y2="-25"/></g></pattern></defs><title>Asset 7</title><g id="Layer_2" data-name="Layer 2"><g id="Layer_1-2" data-name="Layer 1"><rect class="cls-4" width="100" height="100"/></g></g></svg>