<svg xmlns="http://www.w3.org/2000/svg" xmlns:xlink="http://www.w3.org/1999/xlink" viewBox="0 0 100 100"><defs><style>.cls-1,.cls-3{fill:none;}.cls-2{clip-path:url(#clip-path);}.cls-3{stroke:#b2a6af;stroke-miterlimit:10;stroke-width:1.75px;}.cls-4{fill:url(#New_Pattern_38);}</style><clipPath id="clip-path"><rect id="SVGID" class="cls-1" width="100" height="100"/></clipPath><pattern id="New_Pattern_38" data-name="New Pattern 38" width="100" height="100" patternTransform="translate(-79.53 183.07)" patternUnits="userSpaceOnUse" viewBox="0 0 100 100"><rect class="cls-1" width="100" height="100"/><g id="_5" data-name="5"><g class="cls-2"><line class="cls-3" x1="53.03" y1="-53.03" x2="-53.03" y2="53.03"/><line class="cls-3" x1="58.59" y1="-47.48" x2="-47.48" y2="58.59"/><line class="cls-3" x1="64.14" y1="-41.92" x2="-41.92" y2="64.14"/><line class="cls-3" x1="69.7" y1="-36.37" x2="-36.37" y2="69.7"/><line class="cls-3" x1="75.26" y1="-30.81" x2="-30.81" y2="75.26"/><line class="cls-3" x1="80.81" y1="-25.26" x2="-25.26" y2="80.81"/><line class="cls-3" x1="86.37" y1="-19.7" x2="-19.7" y2="86.37"/><line class="cls-3" x1="91.92" y1="-14.14" x2="-14.14" y2="91.92"/><line class="cls-3" x1="97.48" y1="-8.59" x2="-8.59" y2="97.48"/><line class="cls-3" x1="103.03" y1="-3.03" x2="-3.03" y2="103.03"/><line class="cls-3" x1="108.59" y1="2.52" x2="2.52" y2="108.59"/><line class="cls-3" x1="114.14" y1="8.08" x2="8.08" y2="114.14"/><line class="cls-3" x1="119.7" y1="13.63" x2="13.63" y2="119.7"/><line class="cls-3" x1="125.26" y1="19.19" x2="19.19" y2="125.26"/><line class="cls-3" x1="130.81" y1="24.74" x2="24.74" y2="130.81"/><line class="cls-3" x1="136.37" y1="30.3" x2="30.3" y2="136.37"/><line class="cls-3" x1="141.92" y1="35.86" x2="35.86" y2="141.92"/><line class="cls-3" x1="147.48" y1="41.41" x2="41.41" y2="147.48"/><line class="cls-3" x1="153.03" y1="46.97" x2="46.97" y2="153.03"/></g></g></pattern></defs><title>Asset 5</title><g id="Layer_2" data-name="Layer 2"><g id="Layer_1-2" data-name="Layer 1"><rect class="cls-4" width="100" height="100"/></g></g></svg>