<svg xmlns="http://www.w3.org/2000/svg" xmlns:xlink="http://www.w3.org/1999/xlink" viewBox="0 0 100 100"><defs><style>.cls-1,.cls-3{fill:none;}.cls-2{clip-path:url(#clip-path);}.cls-3{stroke:#ea5716;stroke-miterlimit:10;stroke-width:2px;}.cls-4{fill:url(#_11-1.5_2);}</style><clipPath id="clip-path"><polygon id="SVGID" class="cls-1" points="0 100 100 100 100 0 0 0 0 100"/></clipPath><pattern id="_11-1.5_2" data-name="11-1.5 2" width="100" height="100" patternTransform="translate(50.69 51.86)" patternUnits="userSpaceOnUse" viewBox="0 0 100 100"><rect class="cls-1" width="100" height="100"/><g class="cls-2"><line class="cls-3" x1="53.03" y1="-53.03" x2="-53.03" y2="53.03"/><line class="cls-3" x1="61.37" y1="-44.7" x2="-44.7" y2="61.37"/><line class="cls-3" x1="69.7" y1="-36.37" x2="-36.37" y2="69.7"/><line class="cls-3" x1="78.03" y1="-28.03" x2="-28.03" y2="78.03"/><line class="cls-3" x1="86.37" y1="-19.7" x2="-19.7" y2="86.37"/><line class="cls-3" x1="94.7" y1="-11.37" x2="-11.37" y2="94.7"/><line class="cls-3" x1="103.03" y1="-3.03" x2="-3.03" y2="103.03"/><line class="cls-3" x1="111.37" y1="5.3" x2="5.3" y2="111.37"/><line class="cls-3" x1="119.7" y1="13.63" x2="13.63" y2="119.7"/><line class="cls-3" x1="128.03" y1="21.97" x2="21.97" y2="128.03"/><line class="cls-3" x1="136.37" y1="30.3" x2="30.3" y2="136.37"/><line class="cls-3" x1="144.7" y1="38.63" x2="38.63" y2="144.7"/><line class="cls-3" x1="153.03" y1="46.97" x2="46.97" y2="153.03"/></g></pattern></defs><title>Asset 4</title><g id="Layer_2" data-name="Layer 2"><g id="Layer_1-2" data-name="Layer 1"><rect class="cls-4" width="100" height="100"/></g></g></svg>