<svg xmlns="http://www.w3.org/2000/svg" xmlns:xlink="http://www.w3.org/1999/xlink" viewBox="0 0 100 100"><defs><style>.cls-1,.cls-3,.cls-4{fill:none;}.cls-2{clip-path:url(#clip-path);}.cls-3{stroke:#e29a41;stroke-width:1.5px;}.cls-3,.cls-4{stroke-miterlimit:10;}.cls-4{stroke:#5c7982;stroke-width:2.5px;}.cls-5{fill:url(#New_Pattern_26);}</style><clipPath id="clip-path"><rect id="SVGID" class="cls-1" width="100" height="100"/></clipPath><pattern id="New_Pattern_26" data-name="New Pattern 26" width="100" height="100" patternTransform="translate(9.91 221.04)" patternUnits="userSpaceOnUse" viewBox="0 0 100 100"><rect class="cls-1" width="100" height="100"/><g class="cls-2"><line class="cls-3" y1="125" y2="-25"/><line class="cls-3" x1="5.26" y1="125" x2="5.26" y2="-25"/><line class="cls-3" x1="10.53" y1="125" x2="10.53" y2="-25"/><line class="cls-3" x1="15.79" y1="125" x2="15.79" y2="-25"/><line class="cls-3" x1="21.05" y1="125" x2="21.05" y2="-25"/><line class="cls-3" x1="26.32" y1="125" x2="26.32" y2="-25"/><line class="cls-3" x1="31.58" y1="125" x2="31.58" y2="-25"/><line class="cls-3" x1="36.84" y1="125" x2="36.84" y2="-25"/><line class="cls-3" x1="42.11" y1="125" x2="42.11" y2="-25"/><line class="cls-3" x1="47.37" y1="125" x2="47.37" y2="-25"/><line class="cls-3" x1="52.63" y1="125" x2="52.63" y2="-25"/><line class="cls-3" x1="57.89" y1="125" x2="57.89" y2="-25"/><line class="cls-3" x1="63.16" y1="125" x2="63.16" y2="-25"/><line class="cls-3" x1="68.42" y1="125" x2="68.42" y2="-25"/><line class="cls-3" x1="73.68" y1="125" x2="73.68" y2="-25"/><line class="cls-3" x1="78.95" y1="125" x2="78.95" y2="-25"/><line class="cls-3" x1="84.21" y1="125" x2="84.21" y2="-25"/><line class="cls-3" x1="89.47" y1="125" x2="89.47" y2="-25"/><line class="cls-3" x1="94.74" y1="125" x2="94.74" y2="-25"/><line class="cls-3" x1="100" y1="125" x2="100" y2="-25"/><line class="cls-4" x1="-25" x2="125"/><line class="cls-4" x1="-25" y1="6.67" x2="125" y2="6.67"/><line class="cls-4" x1="-25" y1="13.33" x2="125" y2="13.33"/><line class="cls-4" x1="-25" y1="20" x2="125" y2="20"/><line class="cls-4" x1="-25" y1="26.67" x2="125" y2="26.67"/><line class="cls-4" x1="-25" y1="33.33" x2="125" y2="33.33"/><line class="cls-4" x1="-25" y1="40" x2="125" y2="40"/><line class="cls-4" x1="-25" y1="46.67" x2="125" y2="46.67"/><line class="cls-4" x1="-25" y1="53.33" x2="125" y2="53.33"/><line class="cls-4" x1="-25" y1="60" x2="125" y2="60"/><line class="cls-4" x1="-25" y1="66.67" x2="125" y2="66.67"/><line class="cls-4" x1="-25" y1="73.33" x2="125" y2="73.33"/><line class="cls-4" x1="-25" y1="80" x2="125" y2="80"/><line class="cls-4" x1="-25" y1="86.67" x2="125" y2="86.67"/><line class="cls-4" x1="-25" y1="93.33" x2="125" y2="93.33"/><line class="cls-4" x1="-25" y1="100" x2="125" y2="100"/></g></pattern></defs><title>Asset 3</title><g id="Layer_2" data-name="Layer 2"><g id="Layer_1-2" data-name="Layer 1"><rect class="cls-5" width="100" height="100"/></g></g></svg>