<svg xmlns="http://www.w3.org/2000/svg" xmlns:xlink="http://www.w3.org/1999/xlink" viewBox="0 0 100 100"><defs><style>.cls-1,.cls-3{fill:none;}.cls-2{clip-path:url(#clip-path);}.cls-3{stroke:#b61002;stroke-miterlimit:10;stroke-width:2px;}.cls-4{fill:url(#_19-2_red);}</style><clipPath id="clip-path"><rect id="SVGID" class="cls-1" width="100" height="100"/></clipPath><pattern id="_19-2_red" data-name="19-2 red" width="100" height="100" patternTransform="translate(-117.43 97.35) rotate(-90)" patternUnits="userSpaceOnUse" viewBox="0 0 100 100"><rect class="cls-1" width="100" height="100"/><g class="cls-2"><line class="cls-3" x1="-53.03" y1="53.03" x2="53.03" y2="-53.03"/><line class="cls-3" x1="-47.48" y1="58.59" x2="58.59" y2="-47.48"/><line class="cls-3" x1="-41.92" y1="64.14" x2="64.14" y2="-41.92"/><line class="cls-3" x1="-36.37" y1="69.7" x2="69.7" y2="-36.37"/><line class="cls-3" x1="-30.81" y1="75.26" x2="75.26" y2="-30.81"/><line class="cls-3" x1="-25.26" y1="80.81" x2="80.81" y2="-25.26"/><line class="cls-3" x1="-19.7" y1="86.37" x2="86.37" y2="-19.7"/><line class="cls-3" x1="-14.14" y1="91.92" x2="91.92" y2="-14.14"/><line class="cls-3" x1="-8.59" y1="97.48" x2="97.48" y2="-8.59"/><line class="cls-3" x1="-3.03" y1="103.03" x2="103.03" y2="-3.03"/><line class="cls-3" x1="2.52" y1="108.59" x2="108.59" y2="2.52"/><line class="cls-3" x1="8.08" y1="114.14" x2="114.14" y2="8.08"/><line class="cls-3" x1="13.63" y1="119.7" x2="119.7" y2="13.63"/><line class="cls-3" x1="19.19" y1="125.26" x2="125.26" y2="19.19"/><line class="cls-3" x1="24.74" y1="130.81" x2="130.81" y2="24.74"/><line class="cls-3" x1="30.3" y1="136.37" x2="136.37" y2="30.3"/><line class="cls-3" x1="35.86" y1="141.92" x2="141.92" y2="35.86"/><line class="cls-3" x1="41.41" y1="147.48" x2="147.48" y2="41.41"/><line class="cls-3" x1="46.97" y1="153.03" x2="153.03" y2="46.97"/><line class="cls-3" x1="153.03" y1="53.03" x2="46.97" y2="-53.03"/><line class="cls-3" x1="147.48" y1="58.59" x2="41.41" y2="-47.48"/><line class="cls-3" x1="141.92" y1="64.14" x2="35.86" y2="-41.92"/><line class="cls-3" x1="136.37" y1="69.7" x2="30.3" y2="-36.37"/><line class="cls-3" x1="130.81" y1="75.26" x2="24.74" y2="-30.81"/><line class="cls-3" x1="125.26" y1="80.81" x2="19.19" y2="-25.26"/><line class="cls-3" x1="119.7" y1="86.37" x2="13.63" y2="-19.7"/><line class="cls-3" x1="114.14" y1="91.92" x2="8.08" y2="-14.14"/><line class="cls-3" x1="108.59" y1="97.48" x2="2.52" y2="-8.59"/><line class="cls-3" x1="103.03" y1="103.03" x2="-3.03" y2="-3.03"/><line class="cls-3" x1="97.48" y1="108.59" x2="-8.59" y2="2.52"/><line class="cls-3" x1="91.92" y1="114.14" x2="-14.14" y2="8.08"/><line class="cls-3" x1="86.37" y1="119.7" x2="-19.7" y2="13.63"/><line class="cls-3" x1="80.81" y1="125.26" x2="-25.26" y2="19.19"/><line class="cls-3" x1="75.26" y1="130.81" x2="-30.81" y2="24.74"/><line class="cls-3" x1="69.7" y1="136.37" x2="-36.37" y2="30.3"/><line class="cls-3" x1="64.14" y1="141.92" x2="-41.92" y2="35.86"/><line class="cls-3" x1="58.59" y1="147.48" x2="-47.48" y2="41.41"/><line class="cls-3" x1="53.03" y1="153.03" x2="-53.03" y2="46.97"/></g></pattern></defs><title>Asset 2</title><g id="Layer_2" data-name="Layer 2"><g id="Layer_1-2" data-name="Layer 1"><rect class="cls-4" width="100" height="100"/></g></g></svg>