<svg xmlns="http://www.w3.org/2000/svg" xmlns:xlink="http://www.w3.org/1999/xlink" viewBox="0 0 100 100"><defs><style>.cls-1,.cls-2{fill:none;}.cls-2{stroke:#deab40;stroke-miterlimit:10;stroke-width:2px;}.cls-3{fill:url(#New_Pattern_23);}</style><pattern id="New_Pattern_23" data-name="New Pattern 23" width="100" height="100" patternTransform="translate(252.36 -138.51)" patternUnits="userSpaceOnUse" viewBox="0 0 100 100"><rect class="cls-1" width="100" height="100"/><line class="cls-2" y1="100" x2="100" y2="100"/><line class="cls-2" x1="100" y1="100" x2="100"/><line class="cls-2" x2="100"/><line class="cls-2" y1="7.14" x2="100" y2="7.14"/><line class="cls-2" y1="14.29" x2="100" y2="14.29"/><line class="cls-2" y1="21.43" x2="100" y2="21.43"/><line class="cls-2" y1="28.57" x2="100" y2="28.57"/><line class="cls-2" y1="35.71" x2="100" y2="35.71"/><line class="cls-2" y1="42.86" x2="100" y2="42.86"/><line class="cls-2" y1="50" x2="100" y2="50"/><line class="cls-2" y1="57.14" x2="100" y2="57.14"/><line class="cls-2" y1="64.29" x2="100" y2="64.29"/><line class="cls-2" y1="71.43" x2="100" y2="71.43"/><line class="cls-2" y1="78.57" x2="100" y2="78.57"/><line class="cls-2" y1="85.71" x2="100" y2="85.71"/><line class="cls-2" y1="92.86" x2="100" y2="92.86"/><line class="cls-2" y1="100" x2="100" y2="100"/><line class="cls-2" y1="100"/><line class="cls-2" x1="7.14" y1="100" x2="7.14"/><line class="cls-2" x1="14.29" y1="100" x2="14.29"/><line class="cls-2" x1="21.43" y1="100" x2="21.43"/><line class="cls-2" x1="28.57" y1="100" x2="28.57"/><line class="cls-2" x1="35.71" y1="100" x2="35.71"/><line class="cls-2" x1="42.86" y1="100" x2="42.86"/><line class="cls-2" x1="50" y1="100" x2="50"/><line class="cls-2" x1="57.14" y1="100" x2="57.14"/><line class="cls-2" x1="64.29" y1="100" x2="64.29"/><line class="cls-2" x1="71.43" y1="100" x2="71.43"/><line class="cls-2" x1="78.57" y1="100" x2="78.57"/><line class="cls-2" x1="85.71" y1="100" x2="85.71"/><line class="cls-2" x1="92.86" y1="100" x2="92.86"/><line class="cls-2" x1="100" y1="100" x2="100"/><line class="cls-2" y1="100"/><line class="cls-2" x2="100"/></pattern></defs><title>Asset 6</title><g id="Layer_2" data-name="Layer 2"><g id="Layer_1-2" data-name="Layer 1"><rect class="cls-3" width="100" height="100"/></g></g></svg>